<svg xmlns="http://www.w3.org/2000/svg" width="24" height="24" viewBox="0 0 24 24" fill="none">
                                                    <path d="M1.81087 4.8418C1.89232 4.77425 1.98799 4.72769 2.09789 4.7021C2.19892 4.67858 2.30178 4.67893 2.40646 4.70314C2.51249 4.72517 2.61113 4.76761 2.70237 4.83046C2.79539 4.89289 2.87576 4.97322 2.94347 5.07144C3.01255 5.16748 3.06153 5.27754 3.09041 5.40162C3.11311 5.49911 3.12047 5.60297 3.1125 5.71321C3.10412 5.82167 3.07683 5.92519 3.03064 6.02377C2.98404 6.12058 2.91729 6.20713 2.83041 6.28341C2.7453 6.35929 2.63627 6.4127 2.50333 6.44365C2.38988 6.47006 2.28171 6.47095 2.17881 6.44632C2.07549 6.41992 1.98196 6.37536 1.89822 6.31263C1.81407 6.24813 1.7412 6.16793 1.67963 6.07201C1.61942 5.97391 1.5757 5.86637 1.54846 5.74938C1.52082 5.63062 1.51343 5.51461 1.52631 5.40136C1.53877 5.28634 1.5694 5.18111 1.61818 5.08566C1.66697 4.99022 1.7312 4.90893 1.81087 4.8418Z" fill="url(#paint0_linear)"></path>
                                                    <path fill-rule="evenodd" clip-rule="evenodd" d="M13.6848 2.19403C13.5734 1.6531 13.0446 1.30487 12.5037 1.41625L1.00898 3.78305C0.46804 3.89443 0.119815 4.42324 0.231195 4.96418L3.51898 20.9318C3.63036 21.4727 4.15916 21.821 4.7001 21.7096L16.1948 19.3428C16.7358 19.2314 17.084 18.7026 16.9726 18.1617L13.6848 2.19403ZM6.07717 8.20932C7.0597 8.00702 7.67758 8.3736 8.01447 8.69899C8.19506 8.26705 8.61709 7.68635 9.59757 7.48446C10.7703 7.24299 12.1933 7.76361 12.5461 9.47732C12.6852 10.1527 12.6489 10.7189 12.4249 11.3706C12.2068 12.0048 11.6419 12.8475 10.746 13.8752C10.3963 14.2764 10.0689 14.6206 9.8559 14.8388C9.44652 15.2581 9.42859 15.2653 9.37114 15.2771L9.36267 15.279C9.30834 15.2902 9.26736 15.2806 8.74979 15.0685C8.46786 14.9529 8.03103 14.767 7.55109 14.5375C6.32101 13.9492 5.4669 13.3972 5.01248 12.8968C4.55007 12.3876 4.29332 11.8817 4.15404 11.2053C3.80118 9.49157 4.90357 8.45097 6.07717 8.20932ZM2.0695 7.59015C2.01524 7.53364 1.97317 7.47336 1.94331 7.4093L1.58702 7.49225C1.63075 7.59979 1.69137 7.69966 1.7689 7.79187C1.84778 7.88188 1.94191 7.95714 2.0513 8.01763C2.16204 8.07594 2.28611 8.11526 2.42352 8.13559C2.56052 8.15415 2.70966 8.14465 2.87097 8.1071C3.06772 8.0613 3.23658 7.97994 3.37754 7.86304C3.51986 7.74395 3.62746 7.58809 3.70035 7.39547C3.775 7.20244 3.81275 6.97128 3.81359 6.702C3.81621 6.43231 3.77687 6.12287 3.69557 5.77367C3.63161 5.49892 3.54515 5.26398 3.43619 5.06885C3.32723 4.87372 3.20041 4.71825 3.05572 4.60244C2.91104 4.48663 2.75156 4.41164 2.5773 4.37747C2.40262 4.34152 2.21868 4.34604 2.02547 4.39102C1.84466 4.43311 1.691 4.50345 1.56446 4.60205C1.43751 4.69887 1.33699 4.8129 1.2629 4.94414C1.19058 5.07496 1.14543 5.21815 1.12745 5.37369C1.10947 5.52924 1.11864 5.685 1.15495 5.84099C1.1954 6.0147 1.25974 6.1707 1.34799 6.30899C1.43584 6.4455 1.54129 6.55736 1.66437 6.64457C1.78881 6.72958 1.92915 6.78661 2.0854 6.81563C2.24164 6.84466 2.4084 6.83854 2.58565 6.79727C2.64947 6.78242 2.71987 6.75575 2.79687 6.71727C2.87523 6.6766 2.95091 6.62441 3.0239 6.56071C3.09825 6.49481 3.16617 6.41733 3.22766 6.32827C3.28915 6.23921 3.33628 6.13668 3.36907 6.02066C3.39206 6.12743 3.41029 6.24185 3.42375 6.36391C3.43858 6.48379 3.44434 6.60484 3.44103 6.72707C3.43949 6.84889 3.42697 6.96766 3.40346 7.08339C3.38172 7.1987 3.34577 7.30517 3.29562 7.4028C3.24506 7.49866 3.17838 7.58146 3.09558 7.65119C3.01236 7.71914 2.9096 7.76736 2.78729 7.79583C2.6898 7.81853 2.59657 7.82342 2.50761 7.81049C2.41823 7.7958 2.33653 7.76997 2.26253 7.73301C2.18988 7.69386 2.12554 7.64624 2.0695 7.59015ZM11.9822 2.50383C11.6862 2.56492 11.5589 2.73998 11.5044 2.87016C11.403 2.77216 11.217 2.66175 10.9216 2.72271C10.5683 2.79563 10.2366 3.10924 10.3432 3.6255C10.3852 3.82896 10.4627 3.98131 10.6023 4.13494C10.7382 4.28447 10.9949 4.45034 11.3653 4.62798C11.5099 4.69731 11.6415 4.75357 11.7264 4.78856C11.8897 4.85581 11.8955 4.85566 11.9128 4.85209L11.9154 4.8516C11.9317 4.84822 11.9419 4.84068 12.0599 4.72032C12.1241 4.65474 12.2229 4.55126 12.3283 4.43055C12.5986 4.1212 12.7692 3.86668 12.8353 3.67408C12.9026 3.47808 12.9134 3.30749 12.8713 3.10372C12.7647 2.58746 12.3357 2.43086 11.9822 2.50383Z" fill="url(#paint1_linear)"></path>
                                                    <path fill-rule="evenodd" clip-rule="evenodd" d="M23.2383 4.46832C23.7643 4.60927 24.0764 5.14994 23.9355 5.67595L19.8261 21.0123C19.6852 21.5383 19.1445 21.8505 18.6185 21.7095L13.5533 20.3523L16.8938 19.6645C17.4347 19.5531 17.783 19.0243 17.6716 18.4834L16.9726 15.0887C17.9381 15.1236 18.8372 14.4898 19.0977 13.5178C19.3933 12.4145 18.7584 11.2771 17.6761 10.9427C17.7995 10.755 17.8915 10.5494 17.9508 10.3283C18.2535 9.19867 17.5807 8.03335 16.451 7.73066C16.1134 7.6402 15.7726 7.63686 15.4527 7.7068L14.3838 2.51576C14.3445 2.3251 14.2534 2.15838 14.1282 2.02728L23.2383 4.46832ZM22.49 5.60106C22.4712 5.67096 22.442 5.73594 22.4028 5.79522C22.745 5.90154 22.9452 6.26157 22.8512 6.61038C22.7549 6.96751 22.386 7.17972 22.0288 7.08343C21.8607 7.03809 21.7247 6.93225 21.6379 6.79572L21.6501 7.31134L21.057 7.15144L21.3239 6.71633C21.1817 6.78798 21.0136 6.80969 20.8481 6.76506C20.491 6.66876 20.2788 6.29986 20.375 5.94273C20.4691 5.59392 20.8232 5.38336 21.1724 5.46345C21.1684 5.39253 21.1758 5.32168 21.1946 5.25178C21.2909 4.89465 21.6598 4.68244 22.017 4.77874C22.3741 4.87503 22.5863 5.24393 22.49 5.60106Z" fill="url(#paint2_linear)"></path>
                                                    <defs>
                                                        <linearGradient id="paint0_linear" x1="0.750424" y1="5.86212" x2="20.3908" y2="11.3351" gradientUnits="userSpaceOnUse">
                                                            <stop stop-color="#FC4665"></stop>
                                                            <stop offset="0.994792" stop-color="#3959D9"></stop>
                                                        </linearGradient>
                                                        <linearGradient id="paint1_linear" x1="0.750424" y1="5.86212" x2="20.3908" y2="11.3351" gradientUnits="userSpaceOnUse">
                                                            <stop stop-color="#FC4665"></stop>
                                                            <stop offset="0.994792" stop-color="#3959D9"></stop>
                                                        </linearGradient>
                                                        <linearGradient id="paint2_linear" x1="0.750424" y1="5.86212" x2="20.3908" y2="11.3351" gradientUnits="userSpaceOnUse">
                                                            <stop stop-color="#FC4665"></stop>
                                                            <stop offset="0.994792" stop-color="#3959D9"></stop>
                                                        </linearGradient>
                                                    </defs>
                                                </svg>