<svg xmlns="http://www.w3.org/2000/svg" width="24" height="24" viewBox="0 0 24 24" fill="none">
                                                    <path d="M17.8762 9.89745H23.143C23.3936 9.89745 23.6209 10.0467 23.7235 10.2783C23.8261 10.5092 23.785 10.7807 23.6184 10.9702L13.4366 22.6147C13.2274 22.854 12.8793 22.8982 12.6201 22.7303C12.3566 22.5611 12.2533 22.2231 12.3765 21.9329L15.8143 13.7646H10.4157C10.2113 13.7646 10.0193 13.6653 9.89929 13.4971C9.77997 13.3291 9.74699 13.1125 9.81228 12.9162L13.6305 1.27165C13.7168 1.00864 13.9599 0.831055 14.2339 0.831055H21.8703C22.0971 0.831055 22.3066 0.953247 22.4209 1.15198C22.5346 1.35088 22.5353 1.59576 22.4228 1.79533L17.8762 9.89745Z" fill="url(#paint0_linear)"></path>
                                                    <path d="M7.49787 6.23779C8.67846 6.23779 9.81739 6.50881 10.8436 7.0214L10.2775 8.74802C9.45436 8.28749 8.50621 8.02481 7.49787 8.02481C4.34886 8.02481 1.78695 10.5867 1.78695 13.7357C1.78695 16.8847 4.34886 19.4466 7.49787 19.4466C10.5236 19.4466 13.0073 17.0813 13.1971 14.1027H14.8019L12.6729 19.1613C11.2721 20.499 9.44141 21.2335 7.49787 21.2335C5.49512 21.2335 3.61225 20.4536 2.19609 19.0375C0.779925 17.6213 0 15.7384 0 13.7357C0 11.7329 0.779896 9.85004 2.19606 8.43388C3.61222 7.01772 5.49512 6.23779 7.49787 6.23779Z" fill="url(#paint1_linear)"></path>
                                                    <path fill-rule="evenodd" clip-rule="evenodd" d="M7.49779 8.90305C8.41208 8.90305 9.26789 9.15827 9.99771 9.60121L8.79989 13.2542C8.73459 13.4506 8.76757 13.6672 8.88689 13.8352C9.00687 14.0033 9.19894 14.1027 9.40327 14.1027H12.3165C12.1283 16.5965 10.039 18.5681 7.49779 18.5681C4.83311 18.5681 2.66526 16.4003 2.66526 13.7356C2.66526 11.0709 4.83311 8.90305 7.49779 8.90305ZM8.59142 15.8874C8.40236 16.0482 8.17473 16.1572 7.90888 16.2149V16.9124C7.90888 17.155 7.71224 17.3516 7.4697 17.3516C7.22716 17.3516 7.03052 17.155 7.03052 16.9124V16.2358C6.76803 16.1973 6.53326 16.1189 6.32633 16.0003C6.02024 15.8247 5.86723 15.6335 5.86723 15.4264C5.86723 15.3229 5.9066 15.2183 5.98538 15.1125C6.06408 15.0068 6.153 14.9538 6.25206 14.9538C6.31049 14.9538 6.37697 14.9819 6.45122 15.038C6.52549 15.0941 6.59743 15.1562 6.66728 15.2239C6.73702 15.2917 6.83712 15.3537 6.96775 15.4098C7.0982 15.4659 7.24221 15.4939 7.39982 15.4939C7.61588 15.4939 7.7958 15.4445 7.93993 15.3454C8.08391 15.2465 8.15599 15.1002 8.15599 14.9066C8.15599 14.7716 8.11651 14.6512 8.03784 14.5454C7.95905 14.4397 7.85555 14.352 7.72729 14.2821C7.59901 14.2124 7.45828 14.1449 7.30536 14.0796C7.15227 14.0144 6.99818 13.9412 6.84287 13.8602C6.68761 13.7792 6.54579 13.688 6.41756 13.5867C6.28928 13.4855 6.18572 13.3505 6.10702 13.1817C6.02823 13.0129 5.98887 12.8205 5.98887 12.6045C5.98887 12.3624 6.03717 12.1487 6.13402 11.9637C6.23076 11.7787 6.36019 11.6348 6.52224 11.5321C6.6809 11.4314 6.85033 11.3572 7.0306 11.3091V10.5309C7.0306 10.2883 7.22725 10.0917 7.46979 10.0917C7.71233 10.0917 7.90897 10.2883 7.90897 10.5309V11.2482C7.93919 11.2511 7.96974 11.2544 8.00076 11.2582C8.13127 11.2745 8.26966 11.301 8.41598 11.338C8.56216 11.375 8.68148 11.4328 8.7738 11.5113C8.866 11.5899 8.91222 11.6823 8.91222 11.7886C8.91222 11.8888 8.88065 11.9925 8.81768 12.0996C8.75462 12.2067 8.66915 12.2601 8.56111 12.2601C8.5206 12.2601 8.41027 12.2174 8.23029 12.1319C8.05026 12.0464 7.84989 12.0036 7.62947 12.0036C7.3864 12.0036 7.19843 12.0498 7.06569 12.142C6.9329 12.2343 6.86653 12.3614 6.86653 12.5234C6.86653 12.654 6.92054 12.7676 7.02855 12.8644C7.13657 12.9612 7.27045 13.0399 7.43025 13.1007C7.58996 13.1614 7.76326 13.238 7.95009 13.3302C8.13683 13.4225 8.31013 13.5226 8.46996 13.6306C8.62964 13.7387 8.76364 13.8951 8.87165 14.0998C8.97967 14.3047 9.03368 14.5444 9.03368 14.8189C9.03365 15.2804 8.88618 15.6366 8.59142 15.8874Z" fill="url(#paint2_linear)"></path>
                                                    <defs>
                                                        <linearGradient id="paint0_linear" x1="0.540438" y1="5.66033" x2="20.4024" y2="10.7838" gradientUnits="userSpaceOnUse">
                                                            <stop stop-color="#FC4665"></stop>
                                                            <stop offset="0.994792" stop-color="#3959D9"></stop>
                                                        </linearGradient>
                                                        <linearGradient id="paint1_linear" x1="0.540438" y1="5.66033" x2="20.4024" y2="10.7838" gradientUnits="userSpaceOnUse">
                                                            <stop stop-color="#FC4665"></stop>
                                                            <stop offset="0.994792" stop-color="#3959D9"></stop>
                                                        </linearGradient>
                                                        <linearGradient id="paint2_linear" x1="0.540438" y1="5.66033" x2="20.4024" y2="10.7838" gradientUnits="userSpaceOnUse">
                                                            <stop stop-color="#FC4665"></stop>
                                                            <stop offset="0.994792" stop-color="#3959D9"></stop>
                                                        </linearGradient>
                                                    </defs>
                                                </svg>