<svg xmlns="http://www.w3.org/2000/svg" width="24" height="24" viewBox="0 0 24 24" fill="none">
                                                    <path d="M5.44888 5.05401C5.39218 5.08378 5.33122 5.09867 5.266 5.09867C5.20079 5.09867 5.13841 5.08378 5.07887 5.05401C5.01933 5.02424 4.96688 4.98384 4.92151 4.9328C4.87615 4.88035 4.84 4.81868 4.81306 4.7478C4.78613 4.6755 4.77266 4.59752 4.77266 4.51388C4.77266 4.45009 4.78258 4.38488 4.80243 4.31825C4.82228 4.2502 4.85205 4.18853 4.89174 4.13324C4.93286 4.07654 4.98389 4.03046 5.04485 3.99502C5.10723 3.95958 5.18024 3.94186 5.26388 3.94186C5.33334 3.94186 5.39643 3.95816 5.45313 3.99077C5.50984 4.02196 5.55875 4.06449 5.59986 4.11836C5.64097 4.17081 5.67287 4.23248 5.69555 4.30336C5.71824 4.37424 5.72958 4.44796 5.72958 4.52451C5.72958 4.6039 5.71753 4.67833 5.69343 4.7478C5.67074 4.81726 5.63814 4.87822 5.59561 4.93067C5.5545 4.98313 5.50559 5.02424 5.44888 5.05401Z" fill="url(#paint0_linear)"></path>
                                                    <path fill-rule="evenodd" clip-rule="evenodd" d="M4 6.8914C5.5961 6.8914 6.89 5.5975 6.89 4.0014C6.89 2.4053 5.5961 1.1114 4 1.1114C2.4039 1.1114 1.11 2.4053 1.11 4.0014C1.11 5.5975 2.4039 6.8914 4 6.8914ZM5.68067 3.19546C5.72332 3.27841 5.80117 3.34644 5.89443 3.34644H5.9746C6.09801 3.34644 6.19263 3.23494 6.15093 3.11879C6.14174 3.09317 6.13171 3.06769 6.12085 3.04236C6.07832 2.94312 6.0202 2.85452 5.94648 2.77655C5.87276 2.69857 5.78061 2.6362 5.67004 2.58942C5.56088 2.54121 5.43116 2.51711 5.28089 2.51711C5.11644 2.51711 4.96759 2.55114 4.83433 2.61919C4.70249 2.68723 4.58907 2.78789 4.49409 2.92115C4.39911 3.05441 4.3261 3.21956 4.27506 3.41662C4.22403 3.61367 4.19851 3.84191 4.19851 4.10134C4.19851 4.32108 4.22332 4.51672 4.27294 4.68825C4.32397 4.85979 4.39627 5.00439 4.48984 5.12206C4.5834 5.23972 4.6954 5.32974 4.82582 5.39212C4.95766 5.4545 5.10439 5.48569 5.266 5.48569C5.41628 5.48569 5.55095 5.46017 5.67004 5.40913C5.78912 5.35668 5.88977 5.2865 5.972 5.19861C6.05422 5.11072 6.1166 5.00864 6.15913 4.8924C6.20307 4.77615 6.22505 4.65352 6.22505 4.52451C6.22505 4.38275 6.20378 4.25162 6.16125 4.13112C6.12014 4.0092 6.05918 3.90429 5.97838 3.8164C5.89899 3.72708 5.80117 3.65762 5.68492 3.608C5.56867 3.55696 5.43612 3.53145 5.28727 3.53145C5.24757 3.53145 5.20292 3.53641 5.1533 3.54633C5.1051 3.55626 5.05406 3.57256 5.00019 3.59524C4.94632 3.61792 4.89103 3.64769 4.83433 3.68455C4.77904 3.72141 4.72517 3.76607 4.67272 3.81852C4.68406 3.69519 4.70532 3.57965 4.73651 3.47191C4.76912 3.36416 4.81094 3.2706 4.86197 3.19121C4.91301 3.1104 4.97397 3.04661 5.04485 2.99983C5.11573 2.95304 5.19583 2.92965 5.28514 2.92965C5.34468 2.92965 5.39926 2.9417 5.44888 2.9658C5.49992 2.9899 5.54457 3.0218 5.58285 3.06149C5.62254 3.10119 5.65515 3.14584 5.68067 3.19546ZM2.22431 5.21532C2.20277 5.33518 2.29652 5.44316 2.4183 5.44316H2.52791C2.62776 5.44316 2.71192 5.36943 2.72836 5.27095C2.76502 5.05134 2.81155 4.84789 2.86796 4.66061C2.93885 4.42528 3.0232 4.20625 3.12102 4.00353C3.21883 3.79938 3.3287 3.60587 3.45062 3.423C3.56153 3.25854 3.68104 3.09466 3.80914 2.93136C3.83709 2.89573 3.85253 2.85183 3.85253 2.80655V2.75964C3.85253 2.64919 3.76298 2.55964 3.65253 2.55964H1.97059C1.86254 2.55964 1.77495 2.64723 1.77495 2.75528C1.77495 2.86333 1.86254 2.95092 1.97059 2.95092H3.22734C3.07707 3.13379 2.94452 3.32447 2.82969 3.52294C2.71486 3.72 2.61491 3.92343 2.52985 4.13324C2.44621 4.34164 2.37604 4.5557 2.31933 4.77544C2.28267 4.9202 2.251 5.06682 2.22431 5.21532Z" fill="url(#paint1_linear)"></path>
                                                    <path fill-rule="evenodd" clip-rule="evenodd" d="M4 8.0028C6.20914 8.0028 8 6.21131 8 4.0014C8 1.79149 6.20914 0 4 0C1.79086 0 0 1.79149 0 4.0014C0 6.21131 1.79086 8.0028 4 8.0028ZM7.39 4.0014C7.39 5.87365 5.87225 7.3914 4 7.3914C2.12775 7.3914 0.61 5.87365 0.61 4.0014C0.61 2.12915 2.12775 0.6114 4 0.6114C5.87225 0.6114 7.39 2.12915 7.39 4.0014Z" fill="url(#paint2_linear)"></path>
                                                    <path fill-rule="evenodd" clip-rule="evenodd" d="M10 0.5C9.17157 0.5 8.5 1.17157 8.5 2V6C8.5 6.82843 9.17157 7.5 10 7.5H14C14.8284 7.5 15.5 6.82843 15.5 6V2C15.5 1.17157 14.8284 0.5 14 0.5H10Z" fill="url(#paint3_linear)"></path>
                                                    <path fill-rule="evenodd" clip-rule="evenodd" d="M18 0.5C17.1716 0.5 16.5 1.17157 16.5 2V6C16.5 6.82843 17.1716 7.5 18 7.5H22C22.8284 7.5 23.5 6.82843 23.5 6V2C23.5 1.17157 22.8284 0.5 22 0.5H18Z" fill="url(#paint4_linear)"></path>
                                                    <path fill-rule="evenodd" clip-rule="evenodd" d="M16.5 10C16.5 9.17157 17.1716 8.5 18 8.5H22C22.8284 8.5 23.5 9.17157 23.5 10V14C23.5 14.8284 22.8284 15.5 22 15.5H18C17.1716 15.5 16.5 14.8284 16.5 14V10Z" fill="url(#paint5_linear)"></path>
                                                    <path fill-rule="evenodd" clip-rule="evenodd" d="M2 8.5C1.17157 8.5 0.5 9.17157 0.5 10V14C0.5 14.8284 1.17157 15.5 2 15.5H6C6.82843 15.5 7.5 14.8284 7.5 14V10C7.5 9.17157 6.82843 8.5 6 8.5H2Z" fill="url(#paint6_linear)"></path>
                                                    <path fill-rule="evenodd" clip-rule="evenodd" d="M0.5 18C0.5 17.1716 1.17157 16.5 2 16.5H6C6.82843 16.5 7.5 17.1716 7.5 18V22C7.5 22.8284 6.82843 23.5 6 23.5H2C1.17157 23.5 0.5 22.8284 0.5 22V18Z" fill="url(#paint7_linear)"></path>
                                                    <path fill-rule="evenodd" clip-rule="evenodd" d="M10 16.5C9.17157 16.5 8.5 17.1716 8.5 18V22C8.5 22.8284 9.17157 23.5 10 23.5H14C14.8284 23.5 15.5 22.8284 15.5 22V18C15.5 17.1716 14.8284 16.5 14 16.5H10Z" fill="url(#paint8_linear)"></path>
                                                    <path d="M19.5662 19.4441C19.5419 19.3926 19.5298 19.338 19.5298 19.2804C19.5298 19.2229 19.5397 19.1668 19.5594 19.1123C19.5791 19.0562 19.6086 19.007 19.648 18.9646C19.6874 18.9207 19.7358 18.8858 19.7934 18.8601C19.8525 18.8343 19.9199 18.8214 19.9957 18.8214C20.0699 18.8214 20.1365 18.8343 20.1956 18.8601C20.2547 18.8858 20.3047 18.9207 20.3456 18.9646C20.3865 19.007 20.4176 19.0562 20.4388 19.1123C20.4615 19.1668 20.4729 19.2229 20.4729 19.2804C20.4729 19.338 20.46 19.3926 20.4342 19.4441C20.41 19.4956 20.3759 19.541 20.332 19.5804C20.2896 19.6183 20.2388 19.6486 20.1797 19.6713C20.1222 19.694 20.0608 19.7054 19.9957 19.7054C19.932 19.7054 19.8714 19.694 19.8139 19.6713C19.7578 19.6486 19.7086 19.6183 19.6662 19.5804C19.6237 19.541 19.5904 19.4956 19.5662 19.4441Z" fill="url(#paint9_linear)"></path>
                                                    <path d="M19.498 20.8507C19.4707 20.7855 19.4571 20.7166 19.4571 20.6439C19.4571 20.5712 19.4707 20.503 19.498 20.4394C19.5268 20.3757 19.5654 20.3204 19.6139 20.2735C19.6639 20.225 19.7215 20.1871 19.7866 20.1599C19.8517 20.1326 19.9214 20.119 19.9957 20.119C20.0714 20.119 20.1426 20.1326 20.2093 20.1599C20.2759 20.1871 20.3335 20.225 20.382 20.2735C20.432 20.3204 20.4706 20.3757 20.4979 20.4394C20.5266 20.503 20.541 20.5712 20.541 20.6439C20.541 20.7166 20.5266 20.7855 20.4979 20.8507C20.4706 20.9143 20.432 20.9704 20.382 21.0188C20.3335 21.0673 20.2759 21.1059 20.2093 21.1347C20.1426 21.162 20.0714 21.1756 19.9957 21.1756C19.9214 21.1756 19.8517 21.162 19.7866 21.1347C19.7215 21.1059 19.6639 21.0673 19.6139 21.0188C19.5654 20.9704 19.5268 20.9143 19.498 20.8507Z" fill="url(#paint10_linear)"></path>
                                                    <path fill-rule="evenodd" clip-rule="evenodd" d="M22.8893 19.9985C22.8893 21.5943 21.5957 22.888 19.9998 22.888C18.404 22.888 17.1103 21.5943 17.1103 19.9985C17.1103 18.4026 18.404 17.109 19.9998 17.109C21.5957 17.109 22.8893 18.4026 22.8893 19.9985ZM18.9254 20.6439C18.9254 20.5727 18.9344 20.5022 18.9526 20.4326C18.9723 20.3614 19.0011 20.2939 19.039 20.2303C19.0784 20.1667 19.1276 20.1076 19.1867 20.0531C19.2473 19.9985 19.3185 19.9516 19.4003 19.9122C19.3336 19.8743 19.2753 19.8349 19.2253 19.794C19.1753 19.7531 19.1329 19.7069 19.0981 19.6554C19.0647 19.6039 19.039 19.5463 19.0208 19.4827C19.0041 19.4176 18.9958 19.3426 18.9958 19.2577C18.9958 19.1411 19.02 19.032 19.0685 18.9305C19.117 18.8275 19.1852 18.7381 19.273 18.6624C19.3609 18.5851 19.4662 18.5245 19.5889 18.4806C19.7116 18.4351 19.8472 18.4124 19.9957 18.4124C20.1502 18.4124 20.2888 18.4359 20.4115 18.4828C20.5357 18.5298 20.6418 18.5934 20.7296 18.6737C20.8175 18.7525 20.8849 18.8441 20.9319 18.9487C20.9788 19.0532 21.0023 19.1638 21.0023 19.2804C21.0023 19.3426 20.9925 19.4032 20.9728 19.4622C20.9546 19.5213 20.9281 19.5781 20.8933 19.6327C20.8599 19.6857 20.8198 19.7357 20.7728 19.7826C20.7274 19.8296 20.6774 19.8728 20.6228 19.9122C20.688 19.9531 20.7478 20.0008 20.8024 20.0553C20.8584 20.1099 20.9061 20.169 20.9455 20.2326C20.9864 20.2962 21.0182 20.3629 21.041 20.4326C21.0637 20.5022 21.075 20.5727 21.075 20.6439C21.075 20.7893 21.047 20.9204 20.991 21.037C20.9349 21.1521 20.8584 21.2506 20.7615 21.3324C20.6645 21.4142 20.5501 21.4771 20.4183 21.521C20.288 21.5635 20.1472 21.5847 19.9957 21.5847C19.8472 21.5847 19.7078 21.5657 19.5775 21.5279C19.4473 21.49 19.3336 21.4324 19.2367 21.3552C19.1397 21.2764 19.0632 21.1779 19.0072 21.0597C18.9526 20.9416 18.9254 20.803 18.9254 20.6439Z" fill="url(#paint11_linear)"></path>
                                                    <path fill-rule="evenodd" clip-rule="evenodd" d="M24 19.9985C24 22.2084 22.2091 23.9999 20 23.9999C17.7909 23.9999 16 22.2084 16 19.9985C16 17.7886 17.7909 15.9971 20 15.9971C22.2091 15.9971 24 17.7886 24 19.9985ZM19.9998 23.388C21.8718 23.388 23.3893 21.8704 23.3893 19.9985C23.3893 18.1265 21.8718 16.609 19.9998 16.609C18.1279 16.609 16.6103 18.1265 16.6103 19.9985C16.6103 21.8704 18.1279 23.388 19.9998 23.388Z" fill="url(#paint12_linear)"></path>
                                                    <path fill-rule="evenodd" clip-rule="evenodd" d="M14.89 11.9999C14.89 13.596 13.5961 14.8899 12 14.8899C10.4039 14.8899 9.11 13.596 9.11 11.9999C9.11 10.4038 10.4039 9.10993 12 9.10993C13.5961 9.10993 14.89 10.4038 14.89 11.9999ZM10.0829 11.4733C9.95871 11.4733 9.86389 11.3607 9.90269 11.2427C9.91644 11.2009 9.93189 11.1596 9.94906 11.1187C9.99719 11.004 10.0616 10.9021 10.1423 10.8129C10.223 10.7237 10.3214 10.6522 10.4375 10.5985C10.5535 10.5447 10.6909 10.5178 10.8494 10.5178C10.9952 10.5178 11.1219 10.539 11.2295 10.5815C11.3385 10.6225 11.4291 10.6791 11.5013 10.7513C11.5735 10.8235 11.6273 10.9085 11.6627 11.0062C11.6981 11.1024 11.7158 11.2065 11.7158 11.3183C11.7158 11.4386 11.6882 11.5505 11.633 11.6538C11.5792 11.7557 11.4999 11.8414 11.3951 11.9107C11.5409 11.9872 11.6521 12.0835 11.7285 12.1995C11.805 12.3142 11.8432 12.4544 11.8432 12.62C11.8432 12.7601 11.8163 12.884 11.7625 12.9916C11.7101 13.0992 11.6386 13.1898 11.548 13.2634C11.4574 13.3356 11.352 13.3901 11.2316 13.4269C11.1113 13.4637 10.9846 13.4821 10.8515 13.4821C10.5571 13.4821 10.3185 13.3972 10.1359 13.2273C10.0007 13.1015 9.89727 12.9334 9.82569 12.7229C9.78492 12.6031 9.88079 12.4862 10.0074 12.4862H10.1157C10.2123 12.4862 10.2927 12.556 10.3219 12.6481C10.3369 12.6958 10.3542 12.7388 10.3737 12.7771C10.4148 12.855 10.4615 12.918 10.5139 12.9661C10.5663 13.0128 10.6215 13.0461 10.6795 13.0659C10.7376 13.0857 10.7949 13.0956 10.8515 13.0956C10.911 13.0956 10.9704 13.0843 11.0299 13.0617C11.0894 13.039 11.1424 13.0072 11.1892 12.9661C11.2373 12.9251 11.2755 12.8755 11.3038 12.8175C11.3336 12.758 11.3484 12.6922 11.3484 12.62C11.3484 12.552 11.3357 12.4883 11.3102 12.4289C11.2861 12.368 11.2514 12.3156 11.2061 12.2717C11.1608 12.2264 11.1056 12.191 11.0405 12.1656C10.9754 12.1387 10.9025 12.1252 10.8218 12.1252H10.7457C10.6353 12.1252 10.5457 12.0357 10.5457 11.9252V11.9154C10.5457 11.8049 10.6353 11.7154 10.7457 11.7154H10.8218C10.8954 11.7154 10.9577 11.7048 11.0087 11.6835C11.0596 11.6623 11.1007 11.634 11.1318 11.5986C11.1644 11.5632 11.1877 11.5236 11.2019 11.4797C11.2161 11.4344 11.2231 11.3884 11.2231 11.3417C11.2231 11.2143 11.187 11.1137 11.1148 11.0401C11.0441 10.9665 10.9464 10.9297 10.8218 10.9297C10.7538 10.9297 10.6923 10.946 10.6371 10.9786C10.5833 11.0097 10.5365 11.0507 10.4969 11.1017C10.4573 11.1527 10.4254 11.2107 10.4014 11.2758C10.3984 11.2844 10.3955 11.293 10.3928 11.3016C10.3622 11.3976 10.2792 11.4733 10.1785 11.4733H10.0829ZM12.4775 11.4733C12.3533 11.4733 12.2585 11.3607 12.2973 11.2427C12.3111 11.2009 12.3265 11.1596 12.3437 11.1187C12.3918 11.004 12.4562 10.9021 12.5369 10.8129C12.6176 10.7237 12.716 10.6522 12.8321 10.5985C12.9482 10.5447 13.0855 10.5178 13.244 10.5178C13.3898 10.5178 13.5165 10.539 13.6241 10.5815C13.7331 10.6225 13.8237 10.6791 13.8959 10.7513C13.9681 10.8235 14.0219 10.9085 14.0573 11.0062C14.0927 11.1024 14.1104 11.2065 14.1104 11.3183C14.1104 11.4386 14.0828 11.5505 14.0276 11.6538C13.9738 11.7557 13.8945 11.8414 13.7898 11.9107C13.9356 11.9872 14.0467 12.0835 14.1231 12.1995C14.1996 12.3142 14.2378 12.4544 14.2378 12.62C14.2378 12.7601 14.2109 12.884 14.1571 12.9916C14.1047 13.0992 14.0332 13.1898 13.9426 13.2634C13.852 13.3356 13.7466 13.3901 13.6263 13.4269C13.5059 13.4637 13.3792 13.4821 13.2462 13.4821C12.9517 13.4821 12.7132 13.3972 12.5305 13.2273C12.3953 13.1015 12.2919 12.9334 12.2203 12.7229C12.1795 12.6031 12.2754 12.4862 12.402 12.4862H12.5103C12.6069 12.4862 12.6874 12.556 12.7165 12.6481C12.7315 12.6958 12.7488 12.7388 12.7684 12.7771C12.8094 12.855 12.8561 12.918 12.9085 12.9661C12.9609 13.0128 13.0161 13.0461 13.0742 13.0659C13.1322 13.0857 13.1895 13.0956 13.2462 13.0956C13.3056 13.0956 13.3651 13.0843 13.4245 13.0617C13.484 13.039 13.5371 13.0072 13.5838 12.9661C13.6319 12.9251 13.6701 12.8755 13.6985 12.8175C13.7282 12.758 13.743 12.6922 13.743 12.62C13.743 12.552 13.7303 12.4883 13.7048 12.4289C13.6808 12.368 13.6461 12.3156 13.6008 12.2717C13.5555 12.2264 13.5003 12.191 13.4351 12.1656C13.37 12.1387 13.2971 12.1252 13.2164 12.1252H13.1404C13.0299 12.1252 12.9404 12.0357 12.9404 11.9252V11.9154C12.9404 11.8049 13.0299 11.7154 13.1404 11.7154H13.2164C13.29 11.7154 13.3523 11.7048 13.4033 11.6835C13.4543 11.6623 13.4953 11.634 13.5265 11.5986C13.559 11.5632 13.5824 11.5236 13.5965 11.4797C13.6107 11.4344 13.6178 11.3884 13.6178 11.3417C13.6178 11.2143 13.5817 11.1137 13.5095 11.0401C13.4387 10.9665 13.341 10.9297 13.2164 10.9297C13.1485 10.9297 13.0869 10.946 13.0317 10.9786C12.9779 11.0097 12.9312 11.0507 12.8915 11.1017C12.8519 11.1527 12.82 11.2107 12.796 11.2758L12.7908 11.2911L12.7874 11.3016C12.7569 11.3976 12.6738 11.4733 12.5732 11.4733H12.4775Z" fill="url(#paint13_linear)"></path>
                                                    <path fill-rule="evenodd" clip-rule="evenodd" d="M12 16.0013C14.2091 16.0013 16 14.2098 16 11.9999C16 9.79002 14.2091 7.99854 12 7.99854C9.79086 7.99854 8 9.79002 8 11.9999C8 14.2098 9.79086 16.0013 12 16.0013ZM15.39 11.9999C15.39 13.8722 13.8722 15.3899 12 15.3899C10.1278 15.3899 8.61 13.8722 8.61 11.9999C8.61 10.1277 10.1278 8.60993 12 8.60993C13.8722 8.60993 15.39 10.1277 15.39 11.9999Z" fill="url(#paint14_linear)"></path>
                                                    <defs>
                                                        <linearGradient id="paint0_linear" x1="0.545454" y1="5.26827" x2="20.7736" y2="10.0958" gradientUnits="userSpaceOnUse">
                                                            <stop stop-color="#FC4665"></stop>
                                                            <stop offset="0.994792" stop-color="#3959D9"></stop>
                                                        </linearGradient>
                                                        <linearGradient id="paint1_linear" x1="0.545454" y1="5.26827" x2="20.7736" y2="10.0958" gradientUnits="userSpaceOnUse">
                                                            <stop stop-color="#FC4665"></stop>
                                                            <stop offset="0.994792" stop-color="#3959D9"></stop>
                                                        </linearGradient>
                                                        <linearGradient id="paint2_linear" x1="0.545454" y1="5.26827" x2="20.7736" y2="10.0958" gradientUnits="userSpaceOnUse">
                                                            <stop stop-color="#FC4665"></stop>
                                                            <stop offset="0.994792" stop-color="#3959D9"></stop>
                                                        </linearGradient>
                                                        <linearGradient id="paint3_linear" x1="0.545454" y1="5.26827" x2="20.7736" y2="10.0958" gradientUnits="userSpaceOnUse">
                                                            <stop stop-color="#FC4665"></stop>
                                                            <stop offset="0.994792" stop-color="#3959D9"></stop>
                                                        </linearGradient>
                                                        <linearGradient id="paint4_linear" x1="0.545454" y1="5.26827" x2="20.7736" y2="10.0958" gradientUnits="userSpaceOnUse">
                                                            <stop stop-color="#FC4665"></stop>
                                                            <stop offset="0.994792" stop-color="#3959D9"></stop>
                                                        </linearGradient>
                                                        <linearGradient id="paint5_linear" x1="0.545454" y1="5.26827" x2="20.7736" y2="10.0958" gradientUnits="userSpaceOnUse">
                                                            <stop stop-color="#FC4665"></stop>
                                                            <stop offset="0.994792" stop-color="#3959D9"></stop>
                                                        </linearGradient>
                                                        <linearGradient id="paint6_linear" x1="0.545454" y1="5.26827" x2="20.7736" y2="10.0958" gradientUnits="userSpaceOnUse">
                                                            <stop stop-color="#FC4665"></stop>
                                                            <stop offset="0.994792" stop-color="#3959D9"></stop>
                                                        </linearGradient>
                                                        <linearGradient id="paint7_linear" x1="0.545454" y1="5.26827" x2="20.7736" y2="10.0958" gradientUnits="userSpaceOnUse">
                                                            <stop stop-color="#FC4665"></stop>
                                                            <stop offset="0.994792" stop-color="#3959D9"></stop>
                                                        </linearGradient>
                                                        <linearGradient id="paint8_linear" x1="0.545454" y1="5.26827" x2="20.7736" y2="10.0958" gradientUnits="userSpaceOnUse">
                                                            <stop stop-color="#FC4665"></stop>
                                                            <stop offset="0.994792" stop-color="#3959D9"></stop>
                                                        </linearGradient>
                                                        <linearGradient id="paint9_linear" x1="0.545454" y1="5.26827" x2="20.7736" y2="10.0958" gradientUnits="userSpaceOnUse">
                                                            <stop stop-color="#FC4665"></stop>
                                                            <stop offset="0.994792" stop-color="#3959D9"></stop>
                                                        </linearGradient>
                                                        <linearGradient id="paint10_linear" x1="0.545454" y1="5.26827" x2="20.7736" y2="10.0958" gradientUnits="userSpaceOnUse">
                                                            <stop stop-color="#FC4665"></stop>
                                                            <stop offset="0.994792" stop-color="#3959D9"></stop>
                                                        </linearGradient>
                                                        <linearGradient id="paint11_linear" x1="0.545454" y1="5.26827" x2="20.7736" y2="10.0958" gradientUnits="userSpaceOnUse">
                                                            <stop stop-color="#FC4665"></stop>
                                                            <stop offset="0.994792" stop-color="#3959D9"></stop>
                                                        </linearGradient>
                                                        <linearGradient id="paint12_linear" x1="0.545454" y1="5.26827" x2="20.7736" y2="10.0958" gradientUnits="userSpaceOnUse">
                                                            <stop stop-color="#FC4665"></stop>
                                                            <stop offset="0.994792" stop-color="#3959D9"></stop>
                                                        </linearGradient>
                                                        <linearGradient id="paint13_linear" x1="0.545454" y1="5.26827" x2="20.7736" y2="10.0958" gradientUnits="userSpaceOnUse">
                                                            <stop stop-color="#FC4665"></stop>
                                                            <stop offset="0.994792" stop-color="#3959D9"></stop>
                                                        </linearGradient>
                                                        <linearGradient id="paint14_linear" x1="0.545454" y1="5.26827" x2="20.7736" y2="10.0958" gradientUnits="userSpaceOnUse">
                                                            <stop stop-color="#FC4665"></stop>
                                                            <stop offset="0.994792" stop-color="#3959D9"></stop>
                                                        </linearGradient>
                                                    </defs>
                                                </svg>