<svg xmlns="http://www.w3.org/2000/svg" width="26" height="24" viewBox="0 0 26 24" fill="none">
                                                    <path fill-rule="evenodd" clip-rule="evenodd" d="M1.5 4C0.671573 4 0 4.67157 0 5.5V18.5C0 19.3284 0.671573 20 1.5 20H22.5C23.3284 20 24 19.3284 24 18.5V5.5C24 4.67157 23.3284 4 22.5 4H1.5ZM3.91856 6.4176C3.83984 6.29505 3.66072 6.29505 3.582 6.4176L3.11056 7.15158C3.08348 7.19375 3.04155 7.22421 2.99308 7.23694L2.14934 7.45849C2.00846 7.49548 1.95311 7.66584 2.04534 7.77857L2.59771 8.45375C2.62945 8.49254 2.64546 8.54183 2.64259 8.59186L2.59257 9.46277C2.58421 9.60819 2.72913 9.71347 2.86485 9.6606L3.67767 9.3439C3.72437 9.3257 3.7762 9.3257 3.82289 9.3439L4.63572 9.6606C4.77144 9.71347 4.91635 9.60819 4.908 9.46277L4.85798 8.59186C4.8551 8.54183 4.87112 8.49254 4.90285 8.45375L5.45523 7.77857C5.54746 7.66584 5.4921 7.49548 5.35123 7.45849L4.50748 7.23694C4.45901 7.22421 4.41708 7.19375 4.39 7.15158L3.91856 6.4176ZM3.582 10.4176C3.66072 10.295 3.83984 10.295 3.91856 10.4176L4.39 11.1516C4.41708 11.1937 4.45901 11.2242 4.50748 11.2369L5.35123 11.4585C5.4921 11.4955 5.54746 11.6658 5.45523 11.7786L4.90285 12.4538C4.87112 12.4925 4.8551 12.5418 4.85798 12.5919L4.908 13.4628C4.91635 13.6082 4.77144 13.7135 4.63572 13.6606L3.82289 13.3439C3.7762 13.3257 3.72437 13.3257 3.67767 13.3439L2.86485 13.6606C2.72913 13.7135 2.58421 13.6082 2.59257 13.4628L2.64259 12.5919C2.64546 12.5418 2.62945 12.4925 2.59771 12.4538L2.04534 11.7786C1.95311 11.6658 2.00846 11.4955 2.14934 11.4585L2.99308 11.2369C3.04155 11.2242 3.08348 11.1937 3.11056 11.1516L3.582 10.4176ZM3.582 14.4176C3.66072 14.295 3.83984 14.295 3.91856 14.4176L4.39 15.1516C4.41708 15.1937 4.45901 15.2242 4.50748 15.2369L5.35123 15.4585C5.4921 15.4955 5.54746 15.6658 5.45523 15.7786L4.90285 16.4538C4.87112 16.4925 4.8551 16.5418 4.85798 16.5919L4.908 17.4628C4.91635 17.6082 4.77144 17.7135 4.63572 17.6606L3.82289 17.3439C3.7762 17.3257 3.72437 17.3257 3.67767 17.3439L2.86485 17.6606C2.72913 17.7135 2.58421 17.6082 2.59257 17.4628L2.64259 16.5919C2.64546 16.5418 2.62945 16.4925 2.59771 16.4538L2.04534 15.7786C1.95311 15.6658 2.00846 15.4955 2.14934 15.4585L2.99308 15.2369C3.04155 15.2242 3.08348 15.1937 3.11056 15.1516L3.582 14.4176ZM21.4831 5.67656H8.96216C8.52033 5.67656 8.16216 6.03473 8.16216 6.47656V17.5225C8.16216 17.9643 8.52033 18.3225 8.96216 18.3225H21.4831C21.9249 18.3225 22.2831 17.9643 22.2831 17.5225V6.47656C22.2831 6.03473 21.9249 5.67656 21.4831 5.67656ZM8.96216 4.97656C8.13373 4.97656 7.46216 5.64814 7.46216 6.47656V17.5225C7.46216 18.3509 8.13373 19.0225 8.96216 19.0225H21.4831C22.3115 19.0225 22.9831 18.3509 22.9831 17.5225V6.47656C22.9831 5.64814 22.3115 4.97656 21.4831 4.97656H8.96216ZM10.6426 15.2809C10.25 15.6762 10.2522 16.315 10.6476 16.7077C11.043 17.1003 11.6817 17.0981 12.0744 16.7027L13.2109 15.5583C13.0247 15.9364 13.0898 16.4065 13.4053 16.7199C13.8007 17.1125 14.4395 17.1103 14.8321 16.7149L15.946 15.5933C15.8158 15.9514 15.8952 16.3683 16.1833 16.6545C16.5787 17.0471 17.2175 17.0449 17.6101 16.6495L20.3861 13.8542C20.7787 13.4588 20.7765 12.82 20.3812 12.4274C20.093 12.1412 19.6755 12.0648 19.3183 12.1975L20.2997 11.2092C20.6923 10.8139 20.6901 10.1751 20.2948 9.78245C19.9792 9.46909 19.5086 9.40724 19.1318 9.59604L20.0146 8.70711C20.4072 8.31175 20.405 7.67296 20.0097 7.28033C19.6143 6.8877 18.9755 6.88992 18.5829 7.28528L17.0766 8.80204C17.1272 8.49145 17.0321 8.16187 16.7918 7.92323C16.3964 7.5306 15.7576 7.53282 15.365 7.92818L14.4089 8.89102C14.5145 8.54465 14.4297 8.15277 14.1548 7.87985C13.7595 7.48722 13.1207 7.48944 12.7281 7.8848L10.7702 9.85628C10.3776 10.2516 10.3798 10.8904 10.7752 11.2831C11.05 11.556 11.7881 11.53 11.7881 11.53L10.9967 12.3269C10.6041 12.7223 10.6063 13.3611 11.0017 13.7537C11.242 13.9924 11.5722 14.0851 11.8824 14.0324L10.6426 15.2809ZM14.3762 13.7244C14.5601 13.6845 14.7175 13.6092 14.8483 13.4979C15.0521 13.3245 15.1541 13.0781 15.1541 12.7589C15.1541 12.569 15.1168 12.4033 15.0421 12.2616C14.9674 12.12 14.8747 12.0118 14.7643 11.9371C14.6537 11.8624 14.5338 11.7931 14.4047 11.7293C14.2755 11.6655 14.1556 11.6125 14.0451 11.5705C13.9346 11.5285 13.842 11.4741 13.7673 11.4071C13.6926 11.3402 13.6552 11.2616 13.6552 11.1713C13.6552 11.0592 13.7011 10.9713 13.793 10.9074C13.8848 10.8437 14.0148 10.8117 14.1829 10.8117C14.3354 10.8117 14.474 10.8413 14.5985 10.9004C14.723 10.9596 14.7993 10.9892 14.8273 10.9892C14.902 10.9892 14.9611 10.9522 15.0047 10.8781C15.0483 10.8041 15.0701 10.7324 15.0701 10.663C15.0701 10.5895 15.0382 10.5256 14.9744 10.4712C14.9106 10.417 14.828 10.377 14.7269 10.3514C14.6257 10.3258 14.53 10.3074 14.4397 10.2962C14.4183 10.2935 14.3972 10.2913 14.3762 10.2892V9.79313C14.3762 9.62538 14.2402 9.48938 14.0725 9.48938C13.9047 9.48938 13.7687 9.62538 13.7687 9.79313V10.3314C13.644 10.3647 13.5269 10.416 13.4171 10.4856C13.305 10.5567 13.2155 10.6562 13.1486 10.7841C13.0816 10.9121 13.0482 11.0599 13.0482 11.2273C13.0482 11.3767 13.0754 11.5098 13.1299 11.6265C13.1844 11.7433 13.256 11.8366 13.3447 11.9067C13.4334 11.9767 13.5315 12.0398 13.6389 12.0958C13.7463 12.1519 13.8529 12.2025 13.9588 12.2476C14.0645 12.2927 14.1619 12.3394 14.2506 12.3876C14.3393 12.436 14.4109 12.4966 14.4654 12.5698C14.5198 12.6429 14.5471 12.7262 14.5471 12.8196C14.5471 12.9535 14.4972 13.0547 14.3977 13.1231C14.298 13.1916 14.1735 13.2258 14.0241 13.2258C13.9151 13.2258 13.8155 13.2064 13.7253 13.1676C13.6349 13.1288 13.5657 13.0859 13.5174 13.039C13.4691 12.9922 13.4194 12.9493 13.368 12.9105C13.3166 12.8717 13.2707 12.8522 13.2302 12.8522C13.1617 12.8522 13.1002 12.8889 13.0458 12.962C12.9913 13.0351 12.9641 13.1075 12.9641 13.1791C12.9641 13.3223 13.0699 13.4546 13.2816 13.576C13.4247 13.6581 13.5871 13.7123 13.7687 13.7389V14.2069C13.7687 14.3746 13.9047 14.5106 14.0724 14.5106C14.2402 14.5106 14.3762 14.3746 14.3762 14.2069V13.7244ZM17.7589 13.4979C17.6281 13.6092 17.4707 13.6845 17.2868 13.7244V14.2069C17.2868 14.3746 17.1508 14.5106 16.983 14.5106C16.8153 14.5106 16.6793 14.3746 16.6793 14.2069V13.7389C16.4977 13.7123 16.3354 13.6581 16.1922 13.576C15.9805 13.4546 15.8747 13.3223 15.8747 13.1791C15.8747 13.1075 15.9019 13.0351 15.9564 12.962C16.0109 12.8889 16.0724 12.8522 16.1409 12.8522C16.1813 12.8522 16.2273 12.8717 16.2786 12.9105C16.33 12.9493 16.3797 12.9922 16.4281 13.039C16.4763 13.0859 16.5455 13.1288 16.6359 13.1676C16.7261 13.2064 16.8257 13.2258 16.9347 13.2258C17.0842 13.2258 17.2086 13.1916 17.3083 13.1231C17.4079 13.0547 17.4577 12.9535 17.4577 12.8196C17.4577 12.7262 17.4304 12.6429 17.376 12.5698C17.3215 12.4966 17.2499 12.436 17.1612 12.3876C17.0725 12.3394 16.9751 12.2927 16.8694 12.2476C16.7635 12.2025 16.6569 12.1519 16.5495 12.0958C16.4421 12.0398 16.344 11.9767 16.2553 11.9067C16.1666 11.8366 16.095 11.7433 16.0406 11.6265C15.9861 11.5098 15.9588 11.3767 15.9588 11.2273C15.9588 11.0599 15.9922 10.9121 16.0592 10.7841C16.1261 10.6562 16.2157 10.5567 16.3277 10.4856C16.4375 10.416 16.5547 10.3647 16.6793 10.3314V9.79313C16.6793 9.62538 16.8154 9.48938 16.9831 9.48938C17.1509 9.48938 17.2869 9.62538 17.2869 9.79313V10.2892C17.3078 10.2913 17.3289 10.2935 17.3503 10.2962C17.4406 10.3074 17.5363 10.3258 17.6375 10.3514C17.7386 10.377 17.8212 10.417 17.885 10.4712C17.9488 10.5256 17.9808 10.5895 17.9808 10.663C17.9808 10.7324 17.9589 10.8041 17.9154 10.8781C17.8718 10.9522 17.8126 10.9892 17.7379 10.9892C17.7099 10.9892 17.6336 10.9596 17.5091 10.9004C17.3846 10.8413 17.246 10.8117 17.0935 10.8117C16.9254 10.8117 16.7954 10.8437 16.7036 10.9074C16.6118 10.9713 16.5659 11.0592 16.5659 11.1713C16.5659 11.2616 16.6032 11.3402 16.6779 11.4071C16.7526 11.4741 16.8452 11.5285 16.9558 11.5705C17.0662 11.6125 17.1861 11.6655 17.3153 11.7293C17.4445 11.7931 17.5643 11.8624 17.6749 11.9371C17.7853 12.0118 17.878 12.12 17.9527 12.2616C18.0274 12.4033 18.0648 12.569 18.0648 12.7589C18.0647 13.0781 17.9627 13.3245 17.7589 13.4979Z" fill="url(#paint0_linear)"></path>
                                                    <defs>
                                                        <linearGradient id="paint0_linear" x1="0.545454" y1="7.5122" x2="19.4971" y2="14.2965" gradientUnits="userSpaceOnUse">
                                                            <stop stop-color="#FC4665"></stop>
                                                            <stop offset="0.994792" stop-color="#3959D9"></stop>
                                                        </linearGradient>
                                                    </defs>
                                                </svg>