<svg xmlns="http://www.w3.org/2000/svg" fill="none" viewBox="0 0 4144 1240">
  <g fill="#002F5C" clip-path="url(#a)">
    <path fill-rule="evenodd" d="M492.2 531.6 366.6 180.3l-124 351.3h249.6ZM23.8 859.3v-23c27.9-3.7 48.7-16.2 62.5-37.4 13.8-21.2 37.8-78.7 72-172.6L384.8 0H406l270.3 723.5c18 48.2 32.2 78.1 42.7 89.8 10.5 11.6 28.7 19.3 54.6 23v23h-276v-23c31.8-3.4 52.3-7.2 61.5-11.8 9.2-4.7 13.8-16.9 13.8-35.6a178 178 0 0 0-5.3-33.2 412.8 412.8 0 0 0-14.9-49.8l-45-122.8h-284a7817 7817 0 0 0-50.8 153.3 166 166 0 0 0-8 43.6c0 21.7 7.4 36.6 22.2 44.9 9.2 5 26.5 8.7 52 11.2v23l-215.2.2Zm909-17.8c34.6-4.1 56.8-13.3 66.5-27.3 9.7-14.1 14.6-47.4 14.7-99.7V314.3c0-35.7-4.7-58.8-14.2-69.3-9.5-10.6-31.2-17-65-19.3v-18.3h165.6l194 497 185.1-497h167.3v18.3c-31.1 2.6-51.2 9.5-60.2 20.2s-13.5 33.2-13.5 68.4v438.2c0 36 4.5 59 13.5 69.3 9 10.3 29 16.9 60.2 19.7v17.8h-234.9v-17.8c33.8-3.1 54.8-10.2 63-21.1 8.2-11 12.4-37.4 12.7-79.4V298.4l-214.5 561h-11.5l-210.6-538v393.1c0 53.8 6.7 89 20 105.4 8.8 10.6 28.3 17.8 58.6 21.6v17.8H932.8v-17.8Zm1269.9-235.2-97-271.3-95.7 271.3h192.7Zm-361.7 253v-17.8a64.4 64.4 0 0 0 48.3-28.8c11-16.3 29.5-60.8 55.7-133.3l174.7-483.5h16.4l208.6 558.6c13.9 37.1 25 60.2 33.3 69.2 8.3 9 22.3 15 42 17.8v17.8h-213.2v-17.8c24.5-2.5 40.4-5.6 47.5-9 7-4 10.6-13 10.6-27.5-.5-8.6-2-17.1-4.1-25.5-3-13-6.8-26-11.4-38.5l-34.8-95h-219.3a5361 5361 0 0 0-39.3 118.5 127.2 127.2 0 0 0-6.1 33.6c0 16.7 5.7 28.3 17.2 34.7 7 3.8 20.4 6.7 40 8.6v17.8l-166 .1Zm676.6-651.9H2991l4.7 167.5h-20.3c-9.8-52.6-22.3-86.8-37.6-102.5-15.3-15.7-47-23.8-95.3-24h-46.7v504.1c0 38.2 5 62 15.1 71.2 10.1 9.3 32.3 15.3 66.5 17.8v17.8H2633v-17.8c35.5-3.1 57.7-10 66.5-20.7 8.9-10.6 13.2-37.2 13-79.8V248.3H2666c-46.4 0-78 8-95 23.8s-29.5 50.1-37.7 103h-20.4l4.8-167.7Zm669.1 634.1c34.1-2.8 56.3-8.7 66.5-17.8 10.2-9 15.3-32.7 15.2-71.2V314.3c0-36.3-5-59.6-15.2-69.8-10-10.3-32.3-16.6-66.5-19v-18.3h248v18.3c-34.1 2-56.3 8.3-66.5 19-10.3 10.7-15.3 34-15.2 69.8v438.2c0 38.2 5 62 15.2 71.2 10 9.3 32.2 15.3 66.5 17.8v17.8h-248v-17.8Zm829.5-629.7c32 10.6 49.8 16 53.6 15.9a38 38 0 0 0 37.3-31.8h17.5l7.8 221.4h-19c-11.1-44-25.7-79.4-43.8-106.4-34.3-50.6-80.6-76-138.7-76-58.6 0-106.6 27.3-144 81.8-37.4 54.5-56 129.6-55.6 225.2 0 87.9 19.5 158.1 58.5 210.7 39 52.6 88.6 78.8 149 78.4 42.7.3 84.5-12.5 119.8-36.5a375 375 0 0 0 69.2-62.6l15.5 18.3A301.1 301.1 0 0 1 4074 823c-47 35.2-98 52.8-152.8 52.8-90 0-161.5-33.8-214.4-101.5-48.8-62.6-73.2-140.7-73.2-234.3 0-95.9 25.7-176.4 77.3-241.5 54.3-68.4 125-102.5 212-102.5 31.7.2 63.2 5.6 93.2 16Z" clip-rule="evenodd"/>
    <path d="M4140.1 946.7H0v-16.5h4140.1v16.5ZM34.7 1038.4H3.6v200h31v-200Z"/>
    <path fill-rule="evenodd" d="M408.3 1238.3h31.1v-58a959 959 0 0 0-4.1-70h.8c9.2 44.6 25.2 86 36.1 128.2h29.4v-200.1h-31v58c0 17.6 2.5 53.2 4.2 70h-.9c-9.5-44.5-25.2-86-36.1-128.2h-29.5v200.1Zm467 0h62.2c17.2 0 31.1-9.2 31.1-20.7v-158.5c0-11.5-13.9-20.7-31.1-20.7h-62.2v200Zm31.1-179.2h31v158.5h-31v-158.5Zm529.1-20.7h-31v179.2h-31.2v-179.2h-31V1209c0 17 21 31 46.6 31s46.6-14.2 46.6-31v-170.6Zm373.7 170.6c0 17 21 31 46.6 31 25.7 0 46.7-14.2 46.7-31v-60.3c0-11.5-13.9-20.7-31.1-20.7h-31.1v-69h31v31.4h31.2v-22.7c0-17-21-31.1-46.7-31.1-25.6 0-46.6 14.2-46.6 31.1v60c0 11.6 13.8 20.8 31 20.8h31.2v69h-31.1v-31.3h-31.1v22.7Zm486.3 29.3h31v-179.2h31.2v-20.7h-93.3v20.7h31v179.2Zm424.1 0h31.1v-89.6h31.1v74.8c.7 5.5 3 10.7 6.8 14.8h31.9c-4.2-5-7.6-9.2-7.6-14.8v-66.4c0-12.4-6.3-16.5-13.8-18.5 7.5-2.8 13.8-6.4 13.8-16v-63.5c0-11.5-13.8-20.7-31-20.7h-62.3v200Zm31.1-179.2h31.1v68.8h-31V1059Z" clip-rule="evenodd"/>
    <path d="M3217.7 1038.4h-31.1v200h31v-200Z"/>
    <path fill-rule="evenodd" d="M3684.7 1038.4h-62.2c-17.3 0-31.1 9.5-31.1 20.7v158.5c0 11.5 13.8 20.7 31 20.7h62.3v-20.7h-62.2v-68.9h46.6V1128h-46.6v-69h62.2v-20.7Zm366 170.6c0 17 21 31 46.6 31s46.7-14.2 46.7-31v-60.3c0-11.5-13.9-20.7-31.1-20.7h-31.1v-69h31v31.4h31v-22.7c0-17-21-31.1-46.7-31.1-25.6 0-46.6 14.2-46.6 31.1v60c0 11.6 13.9 20.8 31.1 20.8h31.1v69h-31.1v-31.3h-31.1l.2 22.7Z" clip-rule="evenodd"/>
  </g>
  <defs>
    <clipPath id="a">
      <path fill="#fff" d="M0 0h4144v1240H0z"/>
    </clipPath>
  </defs>
</svg>
