<svg xmlns="http://www.w3.org/2000/svg" fill="none" viewBox="0 0 20 20">
  <path fill="url(#a)" d="M10.4 3h.6a7.6 7.6 0 0 1 6.9 7.6 7 7 0 0 1-1.2 3.7h-1.2l-.1-.1-.2-.6h.8c.2 0 .3-.2.2-.3l-.5-1.4a.2.2 0 0 1 0-.2.6.6 0 0 0 0-.8.7.7 0 0 0-1 .2l-.1.3.1.3.3.2h.1v.1l.3.9H15a757.8 757.8 0 0 0-1.1-2.8h-1.4v.4l.4 2c0 .2 0 .4-.2.4h-1.3L11 10h-.3l.1 2.8H9.1l.2-2.8H9l-.1.5-.2 1.8v.4H7.3a.3.3 0 0 1-.2 0 .3.3 0 0 1 0-.3l.4-2.4H6l-1.3 4-.2.3H3.3l-.1-.2a7.2 7.2 0 0 1 0-7.6A8.3 8.3 0 0 1 9.6 3h1ZM10 7.3H3.5v.2l-.1.2v.5A99 99 0 0 0 5 9a364.5 364.5 0 0 0 2.7-1L10 9a.3.3 0 0 0 .2 0l2.1-1a.6.6 0 0 1 .6 0A301.3 301.3 0 0 0 15 9l1.5-.6v-.5a.4.4 0 0 0 0-.3.3.3 0 0 0-.3-.1H10Zm3.1-.2-.1-.3a4 4 0 0 0-1.4-2c-1-1-2.3-1-3.3 0a5 5 0 0 0-1.2 1.8l-.2.5H13Zm3.6 1.4-1.4.6a.7.7 0 0 1-.5 0l-2.2-.9a.2.2 0 0 0-.2 0l-2.2 1h-.4a340.1 340.1 0 0 0-2.4-1 227.8 227.8 0 0 0-2.7.9l-1.3-.5c.2.4.5.7.8.8.5.3 1 .5 1.6.4H15c.6-.2 1-.4 1.4-.8l.3-.5ZM8 12l.4-.1.2-.5c0-.1 0-.3-.2-.4a.6.6 0 0 0-.3-.2l-.5.1-.3.4a.7.7 0 0 0 .2.5.6.6 0 0 0 .5.2Zm4.5-.5a.7.7 0 0 0-.2-.5.6.6 0 0 0-.4-.2l-.4.1-.3.3v.4l.3.3a.6.6 0 0 0 .6 0l.3-.1v-.3Zm-2.6.5a.6.6 0 0 0 .5-.2.6.6 0 0 0 .1-.5c0-.1 0-.3-.2-.3a.6.6 0 0 0-.4-.2l-.4.1-.2.4a.6.6 0 0 0 .1.5.6.6 0 0 0 .5.2Z"/>
  <path fill="url(#b)" d="m0 17 .1-.1 1.8-.7a28.3 28.3 0 0 1 7.2-.8v-1H7.3l-.2-.1L7 14l.1-.3.3-.1h5.3l.2.2a.4.4 0 0 1 0 .5h-2v1l2.1.2a67.1 67.1 0 0 1 5.5.9 7.3 7.3 0 0 1 1.5.5c-.5 0-1 0-1.6-.2l-2.5-.3a119.5 119.5 0 0 0-7.4-.3 76.3 76.3 0 0 0-5 .4l-2.6.3-.8.2Z"/>
  <defs>
    <linearGradient id="a" x1="10" x2="10" y1="14.4" y2="3" gradientUnits="userSpaceOnUse">
      <stop stop-color="#EE721A"/>
      <stop offset="1" stop-color="#E52620"/>
    </linearGradient>
    <linearGradient id="b" x1="10" x2="10" y1="17" y2="13.6" gradientUnits="userSpaceOnUse">
      <stop stop-color="#EF7D16"/>
      <stop offset="1" stop-color="#EB5E1D"/>
    </linearGradient>
  </defs>
</svg>
