<?xml version="1.0" standalone="no"?>
<!DOCTYPE svg PUBLIC "-//W3C//DTD SVG 20010904//EN"
 "http://www.w3.org/TR/2001/REC-SVG-20010904/DTD/svg10.dtd">
<svg version="1.0" xmlns="http://www.w3.org/2000/svg"
 width="465.000000pt" height="250.000000pt" viewBox="0 0 465.000000 250.000000"
 preserveAspectRatio="xMidYMid meet">

<g transform="translate(0.000000,250.000000) scale(0.100000,-0.100000)"
fill="#000000" stroke="none">
<path d="M3784 1581 c-55 -34 -130 -150 -170 -264 -13 -38 -13 -41 10 -64 14
-14 26 -34 28 -46 2 -16 40 22 168 172 91 105 165 197 165 204 0 8 -27 13 -85
15 -69 2 -91 -1 -116 -17z m-59 -104 c-19 -45 -19 -58 0 -33 8 11 15 16 15 10
0 -5 -9 -20 -20 -34 -26 -34 -25 -48 2 -24 l22 19 -22 -32 c-28 -40 -28 -51 0
-27 19 16 18 13 -5 -18 -34 -47 -35 -68 -1 -31 l26 28 -24 -35 c-14 -19 -32
-48 -41 -65 l-16 -30 4 30 c3 17 9 67 15 113 5 46 19 104 30 129 24 54 38 53
15 0z"/>
<path d="M1773 1534 c-4 -10 -7 -36 -7 -58 l-1 -41 57 -3 c65 -3 74 6 80 74
l3 39 -63 3 c-52 2 -63 0 -69 -14z"/>
<path d="M3213 1534 c-4 -10 -7 -36 -7 -58 l-1 -41 57 -3 c65 -3 74 6 80 74
l3 39 -63 3 c-52 2 -63 0 -69 -14z"/>
<path d="M2523 1513 c-4 -9 -11 -42 -18 -72 -11 -55 -11 -56 -48 -59 -40 -3
-51 -16 -61 -74 l-7 -38 42 0 c39 0 41 -1 35 -26 -30 -116 -37 -176 -26 -208
17 -53 52 -70 144 -71 l79 0 13 47 c6 26 9 49 6 52 -3 4 -22 6 -42 6 -20 0
-44 6 -54 13 -17 12 -17 17 0 99 l18 87 60 3 60 3 8 40 c12 57 6 65 -53 65
-48 0 -51 1 -45 23 3 12 9 46 12 75 l7 52 -62 0 c-48 0 -63 -4 -68 -17z"/>
<path d="M962 1508 c-28 -35 -302 -531 -297 -539 4 -5 35 -9 71 -9 l64 0 31
50 31 51 101 -3 102 -3 5 -35 c4 -20 10 -41 14 -48 8 -14 122 -17 130 -4 6 10
-68 525 -78 541 -10 16 -161 15 -174 -1z m83 -263 l7 -75 -66 0 c-36 0 -66 3
-66 6 0 4 23 50 52 102 59 110 60 109 73 -33z"/>
<path d="M1253 1363 c-5 -14 17 -148 59 -355 l10 -48 57 0 c43 0 62 5 73 18
33 37 238 384 233 393 -10 15 -112 11 -127 -5 -8 -8 -43 -64 -78 -125 -39 -66
-67 -106 -71 -99 -3 7 -12 58 -19 113 -7 55 -18 106 -23 113 -15 19 -106 16
-114 -5z"/>
<path d="M1743 1368 c-10 -13 -83 -359 -83 -391 0 -14 10 -17 59 -17 35 0 62
5 68 13 14 17 86 375 79 392 -7 19 -109 21 -123 3z"/>
<path d="M2015 1361 c-105 -63 -159 -236 -110 -353 22 -54 147 -73 203 -31 29
22 30 22 35 3 4 -17 14 -20 61 -20 43 0 57 4 64 18 15 27 84 373 78 388 -3 9
-21 14 -50 14 -54 0 -76 -8 -76 -26 0 -10 -8 -9 -32 6 -44 26 -131 27 -173 1z
m153 -103 c16 -16 15 -54 -3 -116 -12 -39 -23 -56 -45 -67 -37 -19 -55 -19
-74 1 -29 28 -11 130 30 175 19 21 73 26 92 7z"/>
<path d="M2823 1368 c-6 -7 -23 -71 -38 -143 -15 -71 -33 -157 -41 -190 -7
-33 -10 -63 -5 -68 4 -4 36 -7 71 -5 l63 3 27 124 c33 149 42 161 131 161 66
0 75 9 81 87 l3 38 -52 -1 c-33 -1 -66 -9 -88 -22 l-35 -21 3 22 c2 20 -3 22
-54 25 -37 2 -59 -2 -66 -10z"/>
<path d="M3183 1368 c-10 -13 -83 -359 -83 -391 0 -14 10 -17 59 -17 35 0 62
5 68 13 14 17 86 375 79 392 -7 19 -109 21 -123 3z"/>
<path d="M3380 1360 c0 -6 18 -46 40 -90 22 -44 40 -93 40 -110 0 -42 42 -80
87 -80 43 0 93 46 93 85 0 35 -26 82 -49 90 -11 3 -33 30 -50 60 l-31 55 -65
0 c-38 0 -65 -4 -65 -10z m193 -171 c15 -24 1 -49 -27 -49 -29 0 -44 33 -25
56 15 18 38 15 52 -7z"/>
<path d="M3426 1141 c-4 -6 -5 -15 -2 -20 12 -18 -14 -204 -34 -249 -24 -55
-37 -51 -14 4 l16 39 -23 -20 -23 -20 22 32 c24 33 28 48 12 38 -15 -9 -12 7
5 29 8 11 13 28 10 37 -3 10 -1 20 5 24 5 3 10 11 10 17 0 6 -10 3 -22 -8 -17
-15 -16 -11 7 24 15 23 26 45 23 47 -8 8 -308 -342 -308 -360 0 -12 15 -15 84
-15 73 0 88 3 121 26 21 14 46 35 56 47 24 29 96 165 114 216 13 37 12 42 -4
53 -10 7 -25 26 -33 42 -10 18 -18 25 -22 17z m-48 -151 c-7 -10 -14 -17 -17
-15 -4 4 18 35 25 35 2 0 -1 -9 -8 -20z"/>
<path d="M3611 1083 c-19 -13 -45 -23 -57 -23 -29 0 -29 1 -2 -55 l22 -45 63
0 c74 0 75 3 35 87 l-27 58 -34 -22z"/>
</g>
</svg>
