<svg width="55" height="14" viewBox="0 0 55 14" fill="none" xmlns="http://www.w3.org/2000/svg">
    <path fill-rule="evenodd" clip-rule="evenodd" d="M9.38069 0C10.3584 0 11.1333 0.24111 11.7097 0.720999C12.2817 1.20439 12.5047 1.84372 12.3752 2.63861C12.3709 2.667 12.3628 2.71639 12.3426 2.79417C12.3221 2.86805 12.3143 2.91705 12.3104 2.94583L10.0261 12.1399C9.96478 12.5047 10.1149 12.7011 10.4763 12.7256L10.1556 14H9.1573C8.5449 14 8.08647 13.8487 7.78628 13.5454C7.48183 13.2421 7.37634 12.8162 7.46554 12.271C7.47606 12.1873 7.49517 12.105 7.52255 12.0252L8.33003 8.79667H6.0538L4.75531 14H2.25607L3.55029 8.79667H0C0 7.88667 0.722159 7.14544 1.62272 7.14544C1.91529 7.14544 2.24629 7.14462 2.60434 7.14374C3.02613 7.14269 3.48545 7.14155 3.96373 7.14155L5.0109 2.94583C5.23003 2.05683 5.74547 1.344 6.56109 0.807332C7.37633 0.270276 8.31374 0 9.38069 0ZM6.45134 7.14155L6.44707 7.16994H8.71943L8.72757 7.14155L9.88372 2.58533L9.91242 2.41344C9.96478 2.08522 9.91242 1.81067 9.76194 1.59794C9.60797 1.38056 9.37681 1.274 9.05995 1.274C8.7233 1.274 8.41497 1.39728 8.1431 1.64267C7.87122 1.88883 7.69281 2.20422 7.60749 2.58533L6.45134 7.14155Z" fill="#E50539"/>
    <path d="M24.4735 0C24.8354 0 25.1255 0.127557 25.3434 0.381112C25.5591 0.634279 25.6374 0.938777 25.5785 1.29228C25.5199 1.64772 25.3368 1.95417 25.0363 2.21433C24.733 2.47372 24.3998 2.60361 24.0356 2.60361C23.6738 2.60361 23.3841 2.47605 23.1684 2.2225C22.9508 1.96894 22.8721 1.66055 22.9353 1.29228C22.9943 0.938777 23.175 0.634279 23.4756 0.381112C23.7785 0.127557 24.1097 0 24.4735 0Z" fill="#E50539"/>
    <path d="M22.9264 11.7009C22.9136 11.739 22.9047 11.7709 22.9 11.7966C22.8085 12.3418 23.0245 12.6525 23.5431 12.7268L23.2119 14H22.824C21.9285 14 21.2552 13.8063 20.8018 13.4213C20.3484 13.0336 20.1762 12.5117 20.2875 11.8541C20.2984 11.7756 20.3174 11.6985 20.3442 11.6239L21.8955 5.62256H20.2263L19.3148 9.35939C19.0139 10.6073 18.3161 11.6927 17.2174 12.6156C16.1186 13.5376 14.9613 14 13.7435 14H11.2474L13.3049 5.55761L13.5701 4.27778H16.1376L14.0612 12.7202C14.5812 12.7202 15.0785 12.5316 15.5485 12.1571C16.0186 11.7826 16.3192 11.333 16.453 10.8107L18.0571 4.27778H20.5555L20.538 4.34933H24.8136L22.9504 11.6239C22.9489 11.6355 22.9431 11.6524 22.9343 11.6779L22.9264 11.7009Z" fill="#E50539"/>
    <path d="M38.8724 4.14167L39.4348 1.94444H36.9526L36.4089 4.14167H35.191L34.8749 5.39117H36.0955L34.6139 11.2984C34.6097 11.3237 34.5992 11.3676 34.5825 11.4306C34.5706 11.4738 34.5609 11.5175 34.5534 11.5617C34.4499 12.1948 34.572 12.6941 34.9188 13.0616C35.2678 13.4272 35.7926 13.6111 36.4961 13.6111H37.3676L37.6852 12.3433C37.1748 12.2951 36.9631 12.0027 37.0503 11.4679C37.0542 11.4427 37.0624 11.4116 37.0752 11.3738C37.0789 11.3602 37.0824 11.3485 37.0854 11.3385C37.0907 11.3207 37.0945 11.308 37.0957 11.2988L38.5757 5.39117H39.6318L39.9475 4.14167H38.8724Z" fill="#E50539"/>
    <path d="M51.4489 4.83374C52.2037 4.29474 53.1007 4.02485 54.1374 4.02485L55 4.02524L54.3135 6.63857H52.9115L53.2167 5.3984C52.5907 5.61113 52.0315 5.99651 51.5346 6.55418C51.0378 7.11029 50.7047 7.70801 50.5348 8.34813L49.1991 13.5701H46.6265L49.0827 4.02485H51.6425L51.4489 4.83374Z" fill="#E50539"/>
    <path fill-rule="evenodd" clip-rule="evenodd" d="M46.2949 4.977C45.7791 4.5115 45.1012 4.27778 44.2557 4.27778H43.8651C42.9448 4.27778 42.1059 4.5395 41.3461 5.06294C40.5859 5.58639 40.1143 6.23155 39.9305 6.99533L38.8725 11.2824C38.8466 11.3636 38.8278 11.4469 38.8162 11.5313C38.6991 12.2586 38.9015 12.8504 39.4255 13.3117C39.9475 13.7706 40.6383 14 41.4943 14H41.8658C42.7737 14 43.6088 13.734 44.3767 13.2067C45.1446 12.6766 45.6185 12.0353 45.8024 11.2824L46.8585 6.99533L46.898 6.74878C47.0109 6.03244 46.8104 5.4425 46.2949 4.977ZM44.3619 6.99494L44.3953 6.78494C44.4581 6.40344 44.4224 6.1075 44.2952 5.89517C44.168 5.68478 43.9799 5.57939 43.7317 5.57939C43.4331 5.57939 43.1643 5.71083 42.9238 5.97217C42.6838 6.23389 42.5108 6.57494 42.4065 6.99533L41.369 11.2828C41.3624 11.3183 41.354 11.3533 41.3438 11.3878C41.3294 11.4326 41.3205 11.4668 41.3166 11.4928C41.2604 11.851 41.2961 12.1427 41.4272 12.3721C41.559 12.6035 41.7491 12.7174 41.9973 12.7174C42.2707 12.7174 42.5317 12.593 42.7819 12.3441C43.0324 12.0952 43.2139 11.7413 43.3249 11.2824L44.3619 6.99494Z" fill="#E50539"/>
    <path fill-rule="evenodd" clip-rule="evenodd" d="M32.254 12.0097C32.2589 11.9832 32.2667 11.9574 32.2772 11.9327C32.287 11.9085 32.2939 11.8834 32.2978 11.8576L34.13 4.27778H29.8536C28.9632 4.27778 28.1355 4.53717 27.3695 5.05439C26.602 5.57122 26.1269 6.21872 25.9423 6.99494L24.9087 11.2824C24.882 11.3634 24.8633 11.4467 24.8528 11.5313C24.7388 12.2457 24.9397 12.8357 25.4586 13.3008C25.9772 13.7663 26.6559 14 27.4963 14H27.8842C28.6125 14 29.2889 13.7387 29.9157 13.2148C30.2291 13.7387 30.8162 14 31.6796 14H32.5511L32.8644 12.7174C32.3874 12.6918 32.1838 12.4557 32.254 12.0097ZM29.2851 12.2974C29.6252 12.0163 29.8451 11.6772 29.9448 11.2824L31.3352 5.56033H29.5569C29.038 5.56033 28.6979 5.88 28.5357 6.517L27.347 11.4349C27.3431 11.4606 27.3346 11.4994 27.3199 11.5508C27.3055 11.6021 27.2974 11.6344 27.295 11.6449C27.1833 12.3612 27.4839 12.7174 28.1995 12.7174C28.5815 12.7174 28.9445 12.5782 29.2851 12.2974Z" fill="#E50539"/>
</svg>
