<svg xmlns="http://www.w3.org/2000/svg" fill="none" viewBox="0 0 20 20">
  <path fill="url(#a)" fill-rule="evenodd" d="M5 1.6.7 6.1l-.1.4.1.3 4.5 4.5.4.1.3-.1 4.5-4.5a.5.5 0 0 0 0-.7L5.8 1.6a.5.5 0 0 0-.7 0Zm1.2-.3 1.7 1.8 2.4-1.7h.2S20 7.4 20 13a5 5 0 0 1-1.4 3.6 5 5 0 0 1-3.5 1.4 5.3 5.3 0 0 1-4.3-2.3c.5 3.3 3.9 3.5 4.3 3.5v.3H5.7v-.3c.4 0 3.9-.2 4.3-3.5-.4.6-1 1.1-1.5 1.5-.8.5-1.8.8-2.8.8-1.3 0-2.6-.5-3.4-1.4A5 5 0 0 1 .8 13c0-.7.2-1.4.4-2.1l1-1.9L.3 7.2a1 1 0 0 1 0-1.5l4.4-4.4a1 1 0 0 1 1.5 0Z" clip-rule="evenodd"/>
  <defs>
    <linearGradient id="a" x1="29.8" x2="29.8" y1="1" y2="19.5" gradientUnits="userSpaceOnUse">
      <stop stop-color="#0D67B1"/>
      <stop offset="1" stop-color="#2CABE1"/>
    </linearGradient>
  </defs>
</svg>
