<svg xmlns="http://www.w3.org/2000/svg" fill="none" viewBox="0 0 20 20">
  <path fill="#FA9E1C" fill-rule="evenodd" d="M10 14.4A4.2 4.2 0 1 1 10 6c2.3 0 4.2 1.8 4.2 4.2 0 2.2-2 4.3-4.2 4.2Zm1.9-4.2a2 2 0 0 0-2-1.9 2 2 0 0 0-1.8 1.9 2 2 0 0 0 1.9 1.9 2 2 0 0 0 1.9-1.9Z" clip-rule="evenodd"/>
  <path fill="#FA9E1C" d="M16.4 6.3c.4 0 .8.1 1 .6l.3.7 2.2 5c.3.6 0 1.2-.6 1.5-.6.2-1.2 0-1.5-.6l-2.5-5.6c-.4-.8.2-1.6 1-1.7ZM.9 6.3c-.5 0-.9.6-.9 1.1l.1.6 1 2 1.4 3.4c.3.6 1 1 1.6.7.6-.3.8-1 .5-1.7a261.3 261.3 0 0 0-.9-2l-.4-1-1.1-2.5c-.3-.5-.8-.7-1.3-.6Z"/>
</svg>
