<svg xmlns="http://www.w3.org/2000/svg" fill="none" viewBox="0 0 20 20">
  <path fill="#FC0" fill-rule="evenodd" d="M2 0h16v20H2V0Zm3.8 17V3.6h4a5 5 0 0 1 3.2 1c.7.6 1.1 1.5 1.1 2.7 0 .6 0 1.2-.4 1.7-.3.5-.7.9-1.2 1a2.4 2.4 0 0 1 1.5 1.1c.4.6.5 1.3.5 2 0 1.3-.3 2.2-1 2.9a5 5 0 0 1-3.2 1H5.8Zm2.5-6v4H10a1.6 1.6 0 0 0 1.2-.5c.3-.4.5-.8.5-1.3 0-.6-.1-1-.4-1.5a1.2 1.2 0 0 0-1.1-.5h-2Zm0-1.7h1.4a1.7 1.7 0 0 0 1.2-.5c.3-.4.5-.8.4-1.3a1.9 1.9 0 0 0-.4-1.3c-.4-.4-.8-.5-1.3-.5H8.3v3.6Z" clip-rule="evenodd"/>
  <path fill="#fff" fill-rule="evenodd" d="M5.8 17V3.6h4a5 5 0 0 1 3.2 1c.7.6 1.1 1.5 1.1 2.7 0 .6 0 1.2-.4 1.7-.3.5-.7.9-1.2 1a2.4 2.4 0 0 1 1.5 1.1c.4.6.5 1.3.5 2 0 1.3-.3 2.2-1 2.9a5 5 0 0 1-3.2 1H5.8Zm2.5-2.1v-3.8h2a1.2 1.2 0 0 1 1.1.5c.3.4.4 1 .4 1.5s-.2 1-.5 1.3a1.6 1.6 0 0 1-1.2.5H8.3Zm1.4-5.6H8.3V5.7h1.3c.5 0 1 .1 1.3.5a1.9 1.9 0 0 1 .4 1.3c0 .5 0 1-.4 1.3a1.7 1.7 0 0 1-1.2.5Z" clip-rule="evenodd"/>
</svg>
