<svg xmlns="http://www.w3.org/2000/svg" fill="none" viewBox="0 0 20 20">
  <path fill="#EC1C24" fill-rule="evenodd" d="m6.3 4.2-2-.2H0v11.5h4.6a6 6 0 0 0 1.8-.3 4 4 0 0 0 1.4-.7A3.1 3.1 0 0 0 8.9 12c0-.6-.2-1.2-.5-1.6a4 4 0 0 0-1.7-.9c.3 0 .6-.2.9-.4l.6-.6a2.2 2.2 0 0 0 .4-1.4c0-.5 0-.9-.2-1.3s-.4-.7-.8-1l-1.3-.6ZM2.7 8.8V6H5l.5.3.4.4v1.4l-.4.4-.6.3H2.7Zm2.7 4.5-.9.2H2.7v-2.9h2.7l.5.4.3.4v1.1c0 .2-.1.3-.3.5l-.5.3Z" clip-rule="evenodd"/>
  <path fill="#EC1C24" d="M20 9.5h-4v1.8l.5.1h1v1.7a4.3 4.3 0 0 1-1.5.4c-.5 0-1-.1-1.4-.3a3 3 0 0 1-1.8-1.9c-.2-.4-.3-1-.3-1.6 0-.5.1-1 .3-1.4.1-.5.3-.9.6-1.2l1-.7c.4-.2.8-.3 1.3-.3a5.4 5.4 0 0 1 1.3.2l.6.2.6.3c.2.2.4.2.6.2.2 0 .3-.2.4-.3l.8-1.2a5.3 5.3 0 0 0-2.9-1.4 7.5 7.5 0 0 0-3.8.3c-.7.3-1.3.7-1.8 1.2-.6.5-1 1.1-1.2 1.8a6.2 6.2 0 0 0 0 4.6 5.1 5.1 0 0 0 3.2 3 7.2 7.2 0 0 0 4.6.2 6 6 0 0 0 1.8-1V9.6Z"/>
</svg>
