<svg xmlns="http://www.w3.org/2000/svg" fill="none" viewBox="0 0 20 20">
  <g fill="#158C90" clip-path="url(#a)">
    <path d="M15 4.6v-.2a18251 18251 0 0 0-4.1-4A1.3 1.3 0 0 0 9 .4v.1L5 4.4v.2h.2a4662.4 4662.4 0 0 0 3.4 0h.2v.1c-.2.8-.6 1.3-1.3 1.6-.6.3-1.2.3-1.8.4a18.3 18.3 0 0 1-2.2 0h-.7l-.2.2L.4 9c-.3.3-.4.5-.4.8 0 .4.1.8.4 1l4.3 4.4L9 19.5l.1.2c.5.4 1.3.4 1.7 0l.2-.2 2-2 1.9-1.8.1-.2h-2.4a7.5 7.5 0 0 1-2-.4 3 3 0 0 1-.6-.3c-.5-.3-.8-.8-1-1.4a605.1 605.1 0 0 1 0-6.8A2.4 2.4 0 0 1 10.6 5l1.5-.3h1.2a84.7 84.7 0 0 1 1.5 0h.2Z"/>
    <path fill-rule="evenodd" d="M17 6.7h-3a225.8 225.8 0 0 0-2 .1 1 1 0 0 0-.7.7l-.2.8a492.5 492.5 0 0 0 .2 4.3c0 .2.2.4.4.5l.4.1.9.1h4.2a.8.8 0 0 1 0-.1l.6-.6 1.6-1.6.2-.2c.3-.3.4-.7.2-1.2 0-.2-.1-.4-.3-.5l-1.7-1.8-.5-.4v-.1H17a4.9 4.9 0 0 1-.1 0Zm-2.3 2.9v-.1h.5v1.6c0 .2 0 .2-.2.2h-.3V9.5Zm.4-1.1h.1V9h-.5v-.5h.4Z" clip-rule="evenodd"/>
  </g>
  <defs>
    <clipPath id="a">
      <path fill="#fff" d="M0 0h20v20H0z"/>
    </clipPath>
  </defs>
</svg>
