<svg width="347" height="66" viewBox="0 0 347 66" fill="none" xmlns="http://www.w3.org/2000/svg">
<path d="M2.10376 15V13.4385L3.59863 13.1528V2.99341L2.10376 2.70776V1.13672H13.0154V4.83105H11.0159L10.873 3.13623H6.18848V7.16382H11.092V9.16333H6.18848V13.1528L7.68335 13.4385V15H2.10376ZM19.947 15.2C19.0203 15.2 18.1792 15.0286 17.4238 14.6858C16.6685 14.3367 16.0178 13.8479 15.4719 13.2195C14.9324 12.5847 14.5166 11.842 14.2246 10.9915C13.9326 10.1345 13.7866 9.19507 13.7866 8.1731V7.96362C13.7866 6.948 13.9326 6.01489 14.2246 5.16431C14.5166 4.30737 14.9324 3.5647 15.4719 2.93628C16.0178 2.30151 16.6653 1.80957 17.4143 1.46045C18.1697 1.11133 19.0107 0.936768 19.9375 0.936768C20.8833 0.936768 21.7339 1.11133 22.4893 1.46045C23.251 1.80957 23.9048 2.30151 24.4507 2.93628C24.9966 3.5647 25.4124 4.30737 25.698 5.16431C25.99 6.01489 26.136 6.948 26.136 7.96362V8.1731C26.136 9.19507 25.99 10.1345 25.698 10.9915C25.4124 11.842 24.9966 12.5847 24.4507 13.2195C23.9111 13.8479 23.2605 14.3367 22.4988 14.6858C21.7371 15.0286 20.8865 15.2 19.947 15.2ZM19.947 13.1624C20.7595 13.1624 21.4324 12.9561 21.9656 12.5435C22.4988 12.1245 22.8955 11.5405 23.1558 10.7915C23.4224 10.0425 23.5557 9.16968 23.5557 8.1731V7.94458C23.5557 6.96069 23.4224 6.09741 23.1558 5.35474C22.8892 4.61206 22.4861 4.03125 21.9465 3.6123C21.4133 3.19336 20.7437 2.98389 19.9375 2.98389C19.1504 2.98389 18.4934 3.19336 17.9666 3.6123C17.4397 4.0249 17.043 4.60254 16.7764 5.34521C16.5161 6.08789 16.386 6.95435 16.386 7.94458V8.1731C16.386 9.16333 16.5161 10.0361 16.7764 10.7915C17.043 11.5405 17.4397 12.1245 17.9666 12.5435C18.4998 12.9561 19.1599 13.1624 19.947 13.1624ZM27.3167 15V13.4385L28.8115 13.1528V2.99341L27.3167 2.70776V1.13672H33.8103C34.8577 1.13672 35.7559 1.29858 36.5049 1.62231C37.2603 1.94604 37.8347 2.4126 38.2283 3.02197C38.6282 3.63135 38.8281 4.36133 38.8281 5.21191C38.8281 6.02441 38.6313 6.7417 38.2378 7.36377C37.8442 7.98584 37.292 8.47461 36.5811 8.83008C35.8765 9.1792 35.0576 9.35693 34.1245 9.36328L31.4014 9.3728V13.1528L32.8962 13.4385V15H27.3167ZM36.2859 15L33.7913 8.81104L36.1716 8.32544L38.3044 13.1719L39.4375 13.4194V15H36.2859ZM31.4014 7.37329H33.7246C34.5815 7.37329 35.2163 7.19873 35.6289 6.84961C36.0415 6.49414 36.2478 5.97998 36.2478 5.30713C36.2478 4.64697 36.0447 4.12012 35.6384 3.72656C35.2322 3.33301 34.6228 3.13623 33.8103 3.13623H31.4014V7.37329ZM45.3503 15V13.4385L46.3501 13.2957L50.8538 1.13672H53.4341L57.8997 13.2957L58.8899 13.4385V15H54.3291V13.4385L55.3098 13.2576L54.6338 11.22H49.616L48.9399 13.2576L49.9111 13.4385V15H45.3503ZM50.2539 9.26807H53.9958L52.2915 4.33594L52.1582 3.93604H52.1011L51.9583 4.35498L50.2539 9.26807ZM66.1167 15.2C65.0439 15.2 64.0981 15.0127 63.2793 14.6382C62.4668 14.2573 61.832 13.7083 61.375 12.991C60.918 12.2673 60.6895 11.3945 60.6895 10.3726V2.99341L59.2041 2.70776V1.13672H64.7742V2.70776L63.2793 2.99341V10.3726C63.2793 11.001 63.3936 11.5247 63.6221 11.9436C63.8569 12.3625 64.187 12.6768 64.6123 12.8862C65.0376 13.0957 65.5391 13.2004 66.1167 13.2004C66.707 13.2004 67.218 13.0989 67.6497 12.8958C68.0813 12.6863 68.4114 12.3721 68.6399 11.9531C68.8748 11.5342 68.9922 11.0073 68.9922 10.3726V2.99341L67.4973 2.70776V1.13672H73.0769V2.70776L71.582 2.99341V10.3726C71.582 11.4009 71.3535 12.2769 70.8965 13.0005C70.4395 13.7178 69.8015 14.2637 68.9827 14.6382C68.1638 15.0127 67.2085 15.2 66.1167 15.2ZM79.6086 15.2C78.6248 15.2 77.717 15.0857 76.8855 14.8572C76.0603 14.6223 75.2542 14.2288 74.467 13.6765V10.4011H76.4666L76.7712 12.4197C77.0823 12.6609 77.4854 12.8545 77.9805 13.0005C78.4819 13.1465 79.0247 13.2195 79.6086 13.2195C80.1418 13.2195 80.5894 13.1465 80.9512 13.0005C81.3193 12.8481 81.5986 12.6355 81.7891 12.3625C81.9795 12.0833 82.0747 11.7595 82.0747 11.3914C82.0747 11.0359 81.989 10.7249 81.8176 10.4583C81.6462 10.1853 81.3638 9.94092 80.9702 9.7251C80.583 9.50293 80.0562 9.29346 79.3896 9.09668C78.3232 8.79834 77.4346 8.45874 76.7236 8.07788C76.0127 7.69702 75.4795 7.23999 75.124 6.70679C74.7749 6.16724 74.6003 5.52612 74.6003 4.78345C74.6003 4.04077 74.8035 3.38379 75.2097 2.8125C75.6223 2.23486 76.1904 1.78101 76.9141 1.45093C77.644 1.12085 78.4819 0.952637 79.4277 0.946289C80.4814 0.933594 81.4114 1.06372 82.2175 1.33667C83.0237 1.60962 83.7124 1.97778 84.2837 2.44116V5.48804H82.3318L81.9795 3.57422C81.7256 3.40283 81.3923 3.25684 80.9797 3.13623C80.5671 3.01562 80.0911 2.95532 79.5515 2.95532C79.0881 2.95532 78.6787 3.02832 78.3232 3.17432C77.9678 3.31396 77.6885 3.52026 77.4854 3.79321C77.2822 4.06616 77.1807 4.39307 77.1807 4.77393C77.1807 5.104 77.2695 5.39282 77.4473 5.64038C77.625 5.88794 77.9233 6.11646 78.3423 6.32593C78.7612 6.5354 79.3293 6.75122 80.0466 6.97339C81.5637 7.38599 82.7126 7.94458 83.4934 8.64917C84.2805 9.34741 84.6741 10.2551 84.6741 11.3723C84.6741 12.1467 84.4614 12.8228 84.0361 13.4004C83.6172 13.9717 83.0269 14.416 82.2651 14.7334C81.5098 15.0444 80.6243 15.2 79.6086 15.2ZM89.1206 15V13.4385L90.6155 13.1528V3.12671H87.959L87.7781 4.84058H85.8262V1.13672H98.0137V4.84058H96.0522L95.8713 3.12671H93.2053V13.1528L94.7097 13.4385V15H89.1206ZM99.1467 15V13.4385L100.642 13.1528V2.99341L99.1467 2.70776V1.13672H105.64C106.688 1.13672 107.586 1.29858 108.335 1.62231C109.09 1.94604 109.665 2.4126 110.058 3.02197C110.458 3.63135 110.658 4.36133 110.658 5.21191C110.658 6.02441 110.461 6.7417 110.068 7.36377C109.674 7.98584 109.122 8.47461 108.411 8.83008C107.707 9.1792 106.888 9.35693 105.955 9.36328L103.231 9.3728V13.1528L104.726 13.4385V15H99.1467ZM108.116 15L105.621 8.81104L108.002 8.32544L110.135 13.1719L111.268 13.4194V15H108.116ZM103.231 7.37329H105.555C106.412 7.37329 107.046 7.19873 107.459 6.84961C107.872 6.49414 108.078 5.97998 108.078 5.30713C108.078 4.64697 107.875 4.12012 107.469 3.72656C107.062 3.33301 106.453 3.13623 105.64 3.13623H103.231V7.37329ZM112.382 15V13.4385L113.381 13.2957L117.885 1.13672H120.465L124.931 13.2957L125.921 13.4385V15H121.36V13.4385L122.341 13.2576L121.665 11.22H116.647L115.971 13.2576L116.942 13.4385V15H112.382ZM117.285 9.26807H121.027L119.323 4.33594L119.189 3.93604H119.132L118.99 4.35498L117.285 9.26807ZM126.949 15V13.4385L128.444 13.1528V2.99341L126.949 2.70776V1.13672H128.444H131.034H132.681V2.70776L131.034 2.99341V13.0195H135.157L135.309 10.9534H137.29V15H126.949ZM138.394 15V13.4385L139.889 13.1528V2.99341L138.394 2.70776V1.13672H143.974V2.70776L142.479 2.99341V13.1528L143.974 13.4385V15H138.394ZM144.279 15V13.4385L145.278 13.2957L149.782 1.13672H152.362L156.828 13.2957L157.818 13.4385V15H153.257V13.4385L154.238 13.2576L153.562 11.22H148.544L147.868 13.2576L148.839 13.4385V15H144.279ZM149.182 9.26807H152.924L151.22 4.33594L151.086 3.93604H151.029L150.886 4.35498L149.182 9.26807ZM158.856 15V13.4385L160.341 13.1528V2.99341L158.856 2.70776V1.13672H160.341H162.969L169.168 11.001L169.225 10.9915V2.99341L167.463 2.70776V1.13672H171.548H173.043V2.70776L171.548 2.99341V15H169.063L162.731 5.20239L162.674 5.21191V13.1528L164.436 13.4385V15H158.856ZM178.899 15V13.4385L180.394 13.1528V2.99341L178.899 2.70776V1.13672H185.392C186.44 1.13672 187.338 1.29858 188.087 1.62231C188.842 1.94604 189.417 2.4126 189.81 3.02197C190.21 3.63135 190.41 4.36133 190.41 5.21191C190.41 6.02441 190.213 6.7417 189.82 7.36377C189.426 7.98584 188.874 8.47461 188.163 8.83008C187.458 9.1792 186.64 9.35693 185.707 9.36328L182.983 9.3728V13.1528L184.478 13.4385V15H178.899ZM187.868 15L185.373 8.81104L187.754 8.32544L189.886 13.1719L191.02 13.4194V15H187.868ZM182.983 7.37329H185.307C186.164 7.37329 186.798 7.19873 187.211 6.84961C187.624 6.49414 187.83 5.97998 187.83 5.30713C187.83 4.64697 187.627 4.12012 187.22 3.72656C186.814 3.33301 186.205 3.13623 185.392 3.13623H182.983V7.37329ZM192.267 15V13.4385L193.762 13.1528V2.99341L192.267 2.70776V1.13672H202.921V4.79297H200.922L200.779 3.12671H196.352V6.83057H201.131V8.8396H196.352V13.0195H201.027L201.169 11.3152H203.15V15H192.267ZM210.243 15.2C209.26 15.2 208.352 15.0857 207.52 14.8572C206.695 14.6223 205.889 14.2288 205.102 13.6765V10.4011H207.101L207.406 12.4197C207.717 12.6609 208.12 12.8545 208.615 13.0005C209.117 13.1465 209.659 13.2195 210.243 13.2195C210.777 13.2195 211.224 13.1465 211.586 13.0005C211.954 12.8481 212.233 12.6355 212.424 12.3625C212.614 12.0833 212.709 11.7595 212.709 11.3914C212.709 11.0359 212.624 10.7249 212.452 10.4583C212.281 10.1853 211.999 9.94092 211.605 9.7251C211.218 9.50293 210.691 9.29346 210.024 9.09668C208.958 8.79834 208.069 8.45874 207.358 8.07788C206.647 7.69702 206.114 7.23999 205.759 6.70679C205.41 6.16724 205.235 5.52612 205.235 4.78345C205.235 4.04077 205.438 3.38379 205.844 2.8125C206.257 2.23486 206.825 1.78101 207.549 1.45093C208.279 1.12085 209.117 0.952637 210.062 0.946289C211.116 0.933594 212.046 1.06372 212.852 1.33667C213.658 1.60962 214.347 1.97778 214.918 2.44116V5.48804H212.967L212.614 3.57422C212.36 3.40283 212.027 3.25684 211.615 3.13623C211.202 3.01562 210.726 2.95532 210.186 2.95532C209.723 2.95532 209.313 3.02832 208.958 3.17432C208.603 3.31396 208.323 3.52026 208.12 3.79321C207.917 4.06616 207.815 4.39307 207.815 4.77393C207.815 5.104 207.904 5.39282 208.082 5.64038C208.26 5.88794 208.558 6.11646 208.977 6.32593C209.396 6.5354 209.964 6.75122 210.681 6.97339C212.198 7.38599 213.347 7.94458 214.128 8.64917C214.915 9.34741 215.309 10.2551 215.309 11.3723C215.309 12.1467 215.096 12.8228 214.671 13.4004C214.252 13.9717 213.662 14.416 212.9 14.7334C212.145 15.0444 211.259 15.2 210.243 15.2ZM216.509 15V13.4385L218.003 13.1528V2.99341L216.509 2.70776V1.13672H222.088V2.70776L220.593 2.99341V13.1528L222.088 13.4385V15H216.509ZM223.25 15V13.4385L224.754 13.1243V3.02197L223.25 2.70776V1.13672H224.754H229.201C230.438 1.13672 231.524 1.42871 232.457 2.0127C233.396 2.59668 234.13 3.39966 234.656 4.42163C235.183 5.4436 235.447 6.61792 235.447 7.94458V8.20166C235.447 9.50928 235.187 10.6772 234.666 11.7056C234.152 12.7275 233.428 13.5337 232.495 14.124C231.568 14.708 230.486 15 229.248 15H223.25ZM227.344 13.01H229.115C229.908 13.01 230.581 12.8005 231.134 12.3816C231.686 11.9626 232.108 11.3914 232.4 10.6677C232.698 9.94409 232.847 9.12207 232.847 8.20166V7.92554C232.847 6.99243 232.698 6.16724 232.4 5.44995C232.108 4.72632 231.686 4.16138 231.134 3.75513C230.581 3.34253 229.908 3.13623 229.115 3.13623H227.344V13.01ZM236.694 15V13.4385L238.189 13.1528V2.99341L236.694 2.70776V1.13672H247.349V4.79297H245.349L245.206 3.12671H240.779V6.83057H245.559V8.8396H240.779V13.0195H245.454L245.597 11.3152H247.577V15H236.694ZM249.158 15V13.4385L250.643 13.1528V2.99341L249.158 2.70776V1.13672H250.643H253.271L259.469 11.001L259.527 10.9915V2.99341L257.765 2.70776V1.13672H261.85H263.345V2.70776L261.85 2.99341V15H259.365L253.033 5.20239L252.976 5.21191V13.1528L254.737 13.4385V15H249.158ZM267.648 15V13.4385L269.143 13.1528V3.12671H266.487L266.306 4.84058H264.354V1.13672H276.542V4.84058H274.58L274.399 3.12671H271.733V13.1528L273.238 13.4385V15H267.648ZM283.045 15.2C282.061 15.2 281.153 15.0857 280.322 14.8572C279.496 14.6223 278.69 14.2288 277.903 13.6765V10.4011H279.903L280.207 12.4197C280.518 12.6609 280.921 12.8545 281.417 13.0005C281.918 13.1465 282.461 13.2195 283.045 13.2195C283.578 13.2195 284.025 13.1465 284.387 13.0005C284.755 12.8481 285.035 12.6355 285.225 12.3625C285.416 12.0833 285.511 11.7595 285.511 11.3914C285.511 11.0359 285.425 10.7249 285.254 10.4583C285.082 10.1853 284.8 9.94092 284.406 9.7251C284.019 9.50293 283.492 9.29346 282.826 9.09668C281.759 8.79834 280.871 8.45874 280.16 8.07788C279.449 7.69702 278.916 7.23999 278.56 6.70679C278.211 6.16724 278.036 5.52612 278.036 4.78345C278.036 4.04077 278.24 3.38379 278.646 2.8125C279.058 2.23486 279.626 1.78101 280.35 1.45093C281.08 1.12085 281.918 0.952637 282.864 0.946289C283.917 0.933594 284.847 1.06372 285.654 1.33667C286.46 1.60962 287.148 1.97778 287.72 2.44116V5.48804H285.768L285.416 3.57422C285.162 3.40283 284.828 3.25684 284.416 3.13623C284.003 3.01562 283.527 2.95532 282.988 2.95532C282.524 2.95532 282.115 3.02832 281.759 3.17432C281.404 3.31396 281.125 3.52026 280.921 3.79321C280.718 4.06616 280.617 4.39307 280.617 4.77393C280.617 5.104 280.706 5.39282 280.883 5.64038C281.061 5.88794 281.359 6.11646 281.778 6.32593C282.197 6.5354 282.765 6.75122 283.483 6.97339C285 7.38599 286.149 7.94458 286.929 8.64917C287.717 9.34741 288.11 10.2551 288.11 11.3723C288.11 12.1467 287.897 12.8228 287.472 13.4004C287.053 13.9717 286.463 14.416 285.701 14.7334C284.946 15.0444 284.06 15.2 283.045 15.2ZM300.317 15.2C299.39 15.2 298.549 15.0286 297.793 14.6858C297.038 14.3367 296.387 13.8479 295.842 13.2195C295.302 12.5847 294.886 11.842 294.594 10.9915C294.302 10.1345 294.156 9.19507 294.156 8.1731V7.96362C294.156 6.948 294.302 6.01489 294.594 5.16431C294.886 4.30737 295.302 3.5647 295.842 2.93628C296.387 2.30151 297.035 1.80957 297.784 1.46045C298.539 1.11133 299.38 0.936768 300.307 0.936768C301.253 0.936768 302.104 1.11133 302.859 1.46045C303.621 1.80957 304.274 2.30151 304.82 2.93628C305.366 3.5647 305.782 4.30737 306.068 5.16431C306.36 6.01489 306.506 6.948 306.506 7.96362V8.1731C306.506 9.19507 306.36 10.1345 306.068 10.9915C305.782 11.842 305.366 12.5847 304.82 13.2195C304.281 13.8479 303.63 14.3367 302.868 14.6858C302.107 15.0286 301.256 15.2 300.317 15.2ZM300.317 13.1624C301.129 13.1624 301.802 12.9561 302.335 12.5435C302.868 12.1245 303.265 11.5405 303.525 10.7915C303.792 10.0425 303.925 9.16968 303.925 8.1731V7.94458C303.925 6.96069 303.792 6.09741 303.525 5.35474C303.259 4.61206 302.856 4.03125 302.316 3.6123C301.783 3.19336 301.113 2.98389 300.307 2.98389C299.52 2.98389 298.863 3.19336 298.336 3.6123C297.809 4.0249 297.413 4.60254 297.146 5.34521C296.886 6.08789 296.756 6.95435 296.756 7.94458V8.1731C296.756 9.16333 296.886 10.0361 297.146 10.7915C297.413 11.5405 297.809 12.1245 298.336 12.5435C298.869 12.9561 299.53 13.1624 300.317 13.1624ZM307.696 15V13.4385L309.181 13.1528V2.99341L307.696 2.70776V1.13672H309.181H311.809L318.008 11.001L318.065 10.9915V2.99341L316.303 2.70776V1.13672H320.388H321.883V2.70776L320.388 2.99341V15H317.903L311.571 5.20239L311.514 5.21191V13.1528L313.275 13.4385V15H307.696ZM322.94 15V13.4385L324.435 13.1528V2.99341L322.94 2.70776V1.13672H324.435H327.024H328.672V2.70776L327.024 2.99341V13.0195H331.147L331.3 10.9534H333.28V15H322.94ZM335.556 15V13.4385L337.051 13.1528V10.1821L332.909 2.89819L331.614 2.70776V1.13672H336.984V2.70776L335.756 2.87915L338.193 7.52563L338.403 7.9541L338.45 7.94458L338.66 7.53516L341.326 2.87915L339.783 2.70776V1.13672H345.049V2.70776L343.716 2.89819L339.631 9.98218V13.1528L341.135 13.4385V15H335.556ZM9.21894 65L2.82476 40.8611L0.100618 40.5773V37.4559H10.7324V40.5773L7.78119 41.0124L11.0918 54.7845L11.735 57.4708L11.8485 57.4897L12.6241 54.7845L18.0913 37.4559H22.0073L27.6447 55.1628L28.3825 57.6789H28.496L29.1582 55.1628L32.5444 41.0124L29.4419 40.5773V37.4559H39.8656V40.5773L37.3306 40.8611L30.9364 65H26.2259L20.8533 48.2768L20.1723 45.8932H20.0588L19.321 48.3335L13.8916 65H9.21894ZM41.8141 65V61.8975L44.7842 61.33V41.1448L41.8141 40.5773V37.4559H62.983V44.7203H59.0103L58.7265 41.4097H49.9298V48.7686H59.4264V52.7603H49.9298V61.0651H59.2183L59.5021 57.6789H63.437V65H41.8141ZM66.5584 65V61.8975L69.5285 61.33V41.1448L66.5584 40.5773V37.4559H69.5285H74.6741H77.9468V40.5773L74.6741 41.1448V61.0651H82.8654L83.1681 56.96H87.103V65H66.5584ZM101.632 65.3973C98.9328 65.3973 96.606 64.8297 94.6511 63.6947C92.7089 62.5596 91.2144 60.9642 90.1677 58.9085C89.1209 56.8402 88.5975 54.4187 88.5975 51.6441V50.8307C88.5975 48.157 89.1083 45.786 90.1298 43.7176C91.1514 41.6493 92.6143 40.0224 94.5187 38.8369C96.4231 37.6514 98.6932 37.0586 101.329 37.0586C103.183 37.0586 104.911 37.3298 106.513 37.8721C108.114 38.4018 109.527 39.1837 110.75 40.2178V46.7255H106.872L106.342 42.5069C105.926 42.2042 105.466 41.9457 104.961 41.7313C104.469 41.5169 103.927 41.3529 103.334 41.2394C102.754 41.1259 102.124 41.0691 101.443 41.0691C99.8283 41.0691 98.4473 41.4727 97.2996 42.2799C96.1519 43.0744 95.2691 44.1969 94.6511 45.6472C94.0458 47.0976 93.7431 48.8128 93.7431 50.7928V51.6441C93.7431 53.6494 94.0647 55.3835 94.7079 56.8465C95.3511 58.3094 96.2654 59.4382 97.451 60.2327C98.6491 61.0147 100.074 61.4056 101.726 61.4056C102.546 61.4056 103.36 61.3174 104.167 61.1408C104.974 60.9516 105.693 60.7057 106.323 60.403L106.872 56.5249H110.712V62.9758C109.653 63.6695 108.341 64.2496 106.777 64.7162C105.214 65.1703 103.498 65.3973 101.632 65.3973ZM125.846 65.3973C124.005 65.3973 122.334 65.0568 120.833 64.3757C119.332 63.6821 118.04 62.711 116.955 61.4624C115.883 60.2012 115.057 58.7256 114.477 57.0357C113.897 55.3331 113.607 53.4665 113.607 51.436V51.0198C113.607 49.002 113.897 47.148 114.477 45.458C115.057 43.7555 115.883 42.2799 116.955 41.0313C118.04 39.7701 119.326 38.7927 120.814 38.0991C122.315 37.4054 123.986 37.0586 125.827 37.0586C127.707 37.0586 129.397 37.4054 130.897 38.0991C132.411 38.7927 133.71 39.7701 134.794 41.0313C135.879 42.2799 136.705 43.7555 137.273 45.458C137.853 47.148 138.143 49.002 138.143 51.0198V51.436C138.143 53.4665 137.853 55.3331 137.273 57.0357C136.705 58.7256 135.879 60.2012 134.794 61.4624C133.722 62.711 132.43 63.6821 130.916 64.3757C129.403 65.0568 127.713 65.3973 125.846 65.3973ZM125.846 61.3489C127.461 61.3489 128.798 60.939 129.857 60.1192C130.916 59.2869 131.705 58.1266 132.222 56.6384C132.751 55.1502 133.016 53.4161 133.016 51.436V50.982C133.016 49.0272 132.751 47.312 132.222 45.8364C131.692 44.3608 130.891 43.2068 129.819 42.3745C128.76 41.5421 127.429 41.1259 125.827 41.1259C124.264 41.1259 122.958 41.5421 121.912 42.3745C120.865 43.1942 120.077 44.3419 119.547 45.8175C119.03 47.2931 118.771 49.0146 118.771 50.982V51.436C118.771 53.4035 119.03 55.1376 119.547 56.6384C120.077 58.1266 120.865 59.2869 121.912 60.1192C122.971 60.939 124.283 61.3489 125.846 61.3489ZM140.545 65V61.8975L143.497 61.33V41.1448L140.545 40.5773V37.4559H143.497H151.007L158.801 57.0167H158.914L166.463 37.4559H176.981V40.5773L174.011 41.1448V61.33L176.981 61.8975V65H165.895V61.8975L169.017 61.33V55.4844L169.092 43.2447L168.998 43.2258L160.598 64.4892H156.796L148.188 43.3582L148.075 43.3771L148.377 55.0304V61.33L151.631 61.8975V65H140.545ZM179.232 65V61.8975L182.202 61.33V41.1448L179.232 40.5773V37.4559H200.401V44.7203H196.428L196.144 41.4097H187.348V48.7686H196.844V52.7603H187.348V61.0651H196.636L196.92 57.6789H200.855V65H179.232ZM213.511 65V61.8975L216.481 61.33V41.1448L213.511 40.5773V37.4559H216.481H225.675C228.841 37.4559 231.312 38.0865 233.091 39.3476C234.869 40.5962 235.758 42.4754 235.758 44.9851C235.758 46.2463 235.405 47.375 234.699 48.3714C234.005 49.3677 233.021 50.1118 231.748 50.6037C232.845 50.8433 233.765 51.2721 234.509 51.8901C235.254 52.508 235.815 53.2584 236.193 54.1413C236.584 55.0241 236.78 55.9889 236.78 57.0357C236.78 59.6463 235.916 61.6263 234.188 62.9758C232.473 64.3253 230.064 65 226.961 65H213.511ZM221.627 61.0462H226.961C228.475 61.0462 229.629 60.7057 230.423 60.0247C231.23 59.3436 231.634 58.3473 231.634 57.0357C231.634 56.1024 231.483 55.3142 231.18 54.671C230.89 54.0151 230.43 53.517 229.799 53.1765C229.181 52.8359 228.386 52.6657 227.415 52.6657H221.627V61.0462ZM221.627 49.0335H226.034C227.485 49.0335 228.607 48.7119 229.402 48.0687C230.209 47.4255 230.612 46.5048 230.612 45.3067C230.612 43.9825 230.196 43.0051 229.364 42.3745C228.532 41.7439 227.302 41.4286 225.675 41.4286H221.627V49.0335ZM251.195 65.3973C249.354 65.3973 247.683 65.0568 246.182 64.3757C244.681 63.6821 243.388 62.711 242.304 61.4624C241.232 60.2012 240.406 58.7256 239.825 57.0357C239.245 55.3331 238.955 53.4665 238.955 51.436V51.0198C238.955 49.002 239.245 47.148 239.825 45.458C240.406 43.7555 241.232 42.2799 242.304 41.0313C243.388 39.7701 244.675 38.7927 246.163 38.0991C247.664 37.4054 249.335 37.0586 251.176 37.0586C253.055 37.0586 254.745 37.4054 256.246 38.0991C257.759 38.7927 259.058 39.7701 260.143 41.0313C261.228 42.2799 262.054 43.7555 262.621 45.458C263.201 47.148 263.491 49.002 263.491 51.0198V51.436C263.491 53.4665 263.201 55.3331 262.621 57.0357C262.054 58.7256 261.228 60.2012 260.143 61.4624C259.071 62.711 257.778 63.6821 256.265 64.3757C254.751 65.0568 253.061 65.3973 251.195 65.3973ZM251.195 61.3489C252.809 61.3489 254.146 60.939 255.205 60.1192C256.265 59.2869 257.053 58.1266 257.57 56.6384C258.1 55.1502 258.365 53.4161 258.365 51.436V50.982C258.365 49.0272 258.1 47.312 257.57 45.8364C257.04 44.3608 256.24 43.2068 255.168 42.3745C254.108 41.5421 252.778 41.1259 251.176 41.1259C249.612 41.1259 248.307 41.5421 247.26 42.3745C246.213 43.1942 245.425 44.3419 244.895 45.8175C244.378 47.2931 244.12 49.0146 244.12 50.982V51.436C244.12 53.4035 244.378 55.1376 244.895 56.6384C245.425 58.1266 246.213 59.2869 247.26 60.1192C248.319 60.939 249.631 61.3489 251.195 61.3489ZM265.856 65V61.8975L268.807 61.33V41.1448L265.856 40.5773V37.4559H268.807H274.028L286.344 57.0546L286.457 57.0357V41.1448L282.958 40.5773V37.4559H291.073H294.043V40.5773L291.073 41.1448V65H286.136L273.556 45.5337L273.442 45.5526V61.33L276.942 61.8975V65H265.856ZM309.594 65.3973C307.462 65.3973 305.583 65.0252 303.956 64.2811C302.342 63.5244 301.081 62.4335 300.173 61.0084C299.265 59.5706 298.811 57.8365 298.811 55.806V41.1448L295.86 40.5773V37.4559H306.926V40.5773L303.956 41.1448V55.806C303.956 57.0546 304.183 58.095 304.637 58.9274C305.104 59.7598 305.76 60.3841 306.605 60.8003C307.45 61.2165 308.446 61.4246 309.594 61.4246C310.767 61.4246 311.782 61.2228 312.64 60.8192C313.497 60.403 314.153 59.7787 314.607 58.9463C315.074 58.114 315.307 57.0672 315.307 55.806V41.1448L312.337 40.5773V37.4559H323.423V40.5773L320.453 41.1448V55.806C320.453 57.8491 319.998 59.5895 319.09 61.0273C318.182 62.4524 316.915 63.537 315.288 64.2811C313.661 65.0252 311.763 65.3973 309.594 65.3973ZM336.4 65.3973C334.445 65.3973 332.642 65.1703 330.99 64.7162C329.35 64.2496 327.748 63.4677 326.185 62.3704V55.8628H330.157L330.763 59.8733C331.381 60.3526 332.181 60.7372 333.165 61.0273C334.162 61.3174 335.24 61.4624 336.4 61.4624C337.459 61.4624 338.349 61.3174 339.067 61.0273C339.799 60.7246 340.354 60.3021 340.732 59.7598C341.111 59.2049 341.3 58.5617 341.3 57.8302C341.3 57.1239 341.13 56.506 340.789 55.9763C340.448 55.434 339.887 54.9484 339.105 54.5196C338.336 54.0782 337.289 53.662 335.965 53.271C333.846 52.6783 332.081 52.0036 330.668 51.2469C329.256 50.4901 328.196 49.5821 327.49 48.5227C326.796 47.4507 326.449 46.1769 326.449 44.7013C326.449 43.2258 326.853 41.9204 327.66 40.7854C328.48 39.6377 329.609 38.736 331.046 38.0802C332.497 37.4243 334.162 37.0901 336.041 37.0775C338.134 37.0523 339.982 37.3108 341.584 37.8531C343.185 38.3954 344.554 39.1269 345.689 40.0476V46.1012H341.811L341.111 42.2988C340.606 41.9583 339.944 41.6682 339.124 41.4286C338.304 41.189 337.359 41.0691 336.287 41.0691C335.366 41.0691 334.552 41.2142 333.846 41.5043C333.14 41.7817 332.585 42.1916 332.181 42.7339C331.778 43.2762 331.576 43.9257 331.576 44.6824C331.576 45.3382 331.753 45.9121 332.106 46.4039C332.459 46.8958 333.052 47.3498 333.884 47.766C334.716 48.1822 335.845 48.611 337.27 49.0524C340.285 49.8722 342.567 50.982 344.119 52.3819C345.682 53.7692 346.464 55.5727 346.464 57.7924C346.464 59.331 346.042 60.6742 345.197 61.8218C344.364 62.9569 343.192 63.8397 341.678 64.4703C340.177 65.0883 338.418 65.3973 336.4 65.3973Z" fill="white"/>
</svg>
