<svg width="24" height="24" viewBox="0 0 24 24" fill="none" xmlns="http://www.w3.org/2000/svg">
<path fill-rule="evenodd" clip-rule="evenodd" d="M6.85826 6.00005H17.144C17.6014 6.00005 18.017 6.17923 18.3244 6.47123L12.0003 11.7413L5.67706 6.47194C5.98454 6.17952 6.40044 6.00005 6.85826 6.00005ZM5.14397 8.25919V16.2858C5.14397 17.2325 5.91148 18.0001 6.85826 18.0001H17.144C18.0907 18.0001 18.8583 17.2325 18.8583 16.2858V8.25787L12.5491 13.5155C12.2312 13.7804 11.7695 13.7804 11.4516 13.5155L5.14397 8.25919ZM17.144 4.28577H6.85826C4.96471 4.28577 3.42969 5.82079 3.42969 7.71434V16.2858C3.42969 18.1793 4.96471 19.7143 6.85826 19.7143H17.144C19.0375 19.7143 20.5725 18.1793 20.5725 16.2858V7.71434C20.5725 5.82079 19.0375 4.28577 17.144 4.28577Z" fill="#3959D9"/>
</svg>
