<svg xmlns="http://www.w3.org/2000/svg" fill="none" viewBox="0 0 20 20">
  <g clip-path="url(#a)">
    <path fill="#2F98D5" d="m5 6.3 4.7 2.2c-.1 0-2.4-1.6-3.1-2.8-.7-1.3-.7-2.2 0-3 .6-1 2-1.5 4.4-1.4 2.3.2 4.8.9 6.7 2.6 0 0-1.6-2.9-5.8-3.7-4-.8-7.2.8-9 2.5-.5.4-.8.8-.9 1.2 0 1.3 3 2.4 3 2.4Z"/>
    <path fill="#F9AE00" d="M6.5 17.4c-.6-1-.6-1.8.1-3a12 12 0 0 1 3.1-2.9l-4.8 2.2S2.1 14.8 2 16.1c.1.4.4.8.8 1.2 1.9 1.7 5 3.3 9.1 2.5 4.2-.8 5.8-3.7 5.8-3.7a11 11 0 0 1-6.7 2.6c-2.3.1-3.8-.4-4.5-1.3Z"/>
    <path fill="#E40E20" d="m5 13.7 4.7-2.2s1.4-.7 1.4-1.5-1.4-1.5-1.4-1.5L4.9 6.3S2.1 5.2 2 3.9C1.8 5.1 3 6 3.7 7c1.3.8 1.7 2 1.7 3s-.5 2-1.7 3.2C3 14 1.8 14.9 2 16c0-1.3 3-2.4 3-2.4Z"/>
  </g>
  <defs>
    <clipPath id="a">
      <path fill="#fff" d="M0 0h20v20H0z"/>
    </clipPath>
  </defs>
</svg>
