<svg xmlns="http://www.w3.org/2000/svg" fill="none" viewBox="0 0 1827 835">
  <g clip-path="url(#a)">
    <path fill="#2F98D5" d="m121.5 262 200 93c-4.8-3.2-99.9-67.1-129.2-117.7-30.1-51.8-27.9-90.2-2.5-127.3 25.5-37 88.5-60.4 184.3-54.2 95.9 6.1 201.3 35.1 280.4 106.1 0 0-67.5-119.7-239.2-153.2a433.8 433.8 0 0 0-380 103.4c-20.2 18.4-30.6 36-34 52.7 1.6 51 120.2 97.1 120.2 97.1Z"/>
    <path fill="#F9AE00" d="M189.8 725c-25.5-37.1-27.6-75.5 2.5-127.3C222.5 546 321.6 480 321.6 480l-200.1 93S2.8 619.4 1.3 670.3C4.7 687 15 704.5 35.3 723a433.6 433.6 0 0 0 380 103.3C587 792.8 654.4 673 654.4 673 575.4 744 470 773 374 779.2c-95.8 6.2-158.8-17-184.3-54.2Z"/>
    <path fill="#E40E20" d="m121.5 573 200.1-93s56.9-30.4 56.9-60.5l-.1-2v-2c0-30.1-56.8-60.5-56.8-60.5h-.2l-200-93S3 215.7 1.4 164.8c-9.5 46.2 34.5 86.3 70.9 120.6 48.5 45.7 70 91.2 69.7 132 .4 40.8-21.2 86.3-69.7 132.1-36.4 34.2-80.4 74.3-71 120.6 1.6-51 120.3-97.1 120.3-97.1Z"/>
    <path fill="#1F2845" d="M490.8 437.6c0 4.8 2.4 8.4 7.2 10.7a41.6 41.6 0 0 0 18 3.7c7.3 0 14.5-.3 21.5-1a437.4 437.4 0 0 0 30.5-3.7c.7 13.3-2 22.8-8 28.3-5.8 5.6-17.7 8.3-35.6 8.3-24.6 0-42.6-5-54.3-15-11.5-10-17.3-27.2-17.3-51.9 0-12.3 1.6-22.7 4.7-31.1a41 41 0 0 1 13.8-19.6 58 58 0 0 1 20.3-9.4c7.5-1.9 16.2-2.8 26.2-2.8 19 0 33.2 4 42.1 12.2 9 8 13.6 21 13.6 38.6 0 6.8-1.3 12.1-4 16.3-2.6 4-6 6.8-10.2 8.2a76.4 76.4 0 0 1-15.2 3c-6 .6-11.8.8-17.6.6a110 110 0 0 0-35.8 4.6Zm-1.2-24.1c2.6-1.9 7-3 12.8-3.7 6-.7 11.4-1 16.6-1 5.2-.1 9.8-1.2 13.7-3.3a10 10 0 0 0 5.8-9.7c0-4-3.1-7.3-9.5-10a34 34 0 0 0-25.6-.9c-11.5 4.2-16.1 13.6-13.8 28.6ZM722.3 398v83.9c-5.4.3-10 .3-13.8 0-4-.5-7.5-1.4-11-2.8a14 14 0 0 1-7.7-6.8c-1.6-3.1-2.3-7-2.2-11.8v-61.8c-2.3-11.2-12.8-15.6-31.4-13.3-9.7 1.2-15.3 2.1-16.9 2.8.5 2.5.8 5.7.8 9.2v63c.2 4.8-.7 8.8-2.3 12a14.6 14.6 0 0 1-7.7 6.7 39 39 0 0 1-10.8 2.7 85 85 0 0 1-13.9.1V369.7c0-10 16.2-15.4 48.3-16.1 45.6-1.2 68.5 13.6 68.6 44.4Zm120.8-93.8c2.3 1.7 5.2 2.8 8.7 3.3 3.5.4 6.6.7 9.5.7 2.8 0 5.6.5 8.2 1.3 2.5.8 4.6 2.8 6 6a35 35 0 0 1 2.2 14.1v136l-2.2 2.7a32 32 0 0 1-3.6 4 40.7 40.7 0 0 1-15.7 7.7 167 167 0 0 1-34.6 3.8c-23.6 0-40.6-5.2-51-15.4-10.3-10.2-15.4-27.3-15.4-51 0-9.3 1.2-17.6 3.7-24.8a52.3 52.3 0 0 1 9.7-17.9 61.2 61.2 0 0 1 31.3-18 86.4 86.4 0 0 1 17.9-1.8c11.8 0 20.2 1.9 25.4 5.6v-56.3h-.1Zm0 115.2v-32.7a61.6 61.6 0 0 0-25.4-2.6 29 29 0 0 0-9.8 2.8 29.8 29.8 0 0 0-8.8 6 30.4 30.4 0 0 0-6 10.6 49 49 0 0 0 .5 31.2c1.9 4.3 4.2 7.6 6.8 10 2.7 2.2 6 4 10 5a48.5 48.5 0 0 0 20.8 1.8c3.7-.2 6.3-.6 7.7-.9l4.1-.9h.3c-.1.2-.1-10-.2-30.3Zm67.4-1.4-.4-3.6a71.5 71.5 0 0 1 3.4-21.8 58.9 58.9 0 0 1 17.9-26.3 56.7 56.7 0 0 1 18.3-8.8 104 104 0 0 1 45.5-2 72.1 72.1 0 0 1 15.1 4.5 45 45 0 0 1 11.4 6.9c3.3 2.8 6 5.5 8.2 8.2a38 38 0 0 1 5.4 9.6 57 57 0 0 1 5 19 112 112 0 0 1 .5 15.2v4.7a72 72 0 0 1-1.7 16.2c-.7 4.3-1.8 8.2-3.2 11.5a51.7 51.7 0 0 1-17.2 21c-4 2.7-9.4 5-16 6.8a77.8 77.8 0 0 1-22 2.8c-8.4 0-16-.6-22.6-1.7a89.8 89.8 0 0 1-16.9-4.2 38.5 38.5 0 0 1-12.1-7.3 43.7 43.7 0 0 1-13.7-21.4 120.6 120.6 0 0 1-5-29.2Zm34.3 2.2c.5 5.3 1.1 9.6 2 12.8.8 3 2.4 6.2 4.6 9.2 2.2 3 5.6 5.4 10 6.8a58.4 58.4 0 0 0 17 2c5.4 0 10.1-.7 13.9-2.5 3.9-1.7 6.7-3.6 8.6-5.8a32.6 32.6 0 0 0 6.5-19.8v-6a55.4 55.4 0 0 0-1.1-9.7 48.2 48.2 0 0 0-4.2-10.3c-1-1.5-2.3-3-4-4.5a22.1 22.1 0 0 0-5.4-3.8 42.6 42.6 0 0 0-16.6-3.3c-6.2 0-11.5.8-15.7 2.6a24.7 24.7 0 0 0-9.5 5.9c-2 2.2-3.5 5.1-4.6 8.7a36.6 36.6 0 0 0-1.7 8.4v7.6c.2.7.2 1.4.2 1.7Zm213.4-66.2c-.2.3-.1 2 0 4.9a41.6 41.6 0 0 1-1.9 17 13 13 0 0 1-5.6 7.4 20 20 0 0 1-11 2.7c-6.4 0-11.4.3-15 .8a21 21 0 0 0-9.5 3.5 13.2 13.2 0 0 0-5.5 7.8 55 55 0 0 0-1.4 13.8v73.8a31 31 0 0 0-11-4.7c-4.5-1.2-8.3-2-11.5-2.7-3.1-.6-6-2.4-8.4-5.4-2.5-3-3.7-7.4-3.7-13V398l.1-3.8c.1-1.6.4-3.8.9-6.7a41.8 41.8 0 0 1 7.2-17.4 36.3 36.3 0 0 1 19.7-13.9 53 53 0 0 1 16.3-2.3h40.3Zm62.8 178.9c-2.8-2-6.4-3.3-11-3.6-4.5-.4-8.3-.6-11.5-.6-3.1 0-6-1.6-8.4-5-2.4-3.3-3.6-8.7-3.6-16.2v-136l2.2-2.7c1.3-1.6 2.5-2.8 3.6-3.7a50 50 0 0 1 15.6-8 167 167 0 0 1 34.6-3.8c23.7 0 40.7 5.2 51 15.4 10.3 10.3 15.5 27.3 15.5 51.1 0 11.5-1.8 21.5-5.5 30a46.5 46.5 0 0 1-15 19.5 66.8 66.8 0 0 1-42 13c-10.7 0-19.1-1-25.5-3.2V533Zm0-115.3v32.7c2.5.8 5.2 1.4 8 1.9l10.6 1.2c4.4.3 8.3-.2 12-1.4a42 42 0 0 0 10.6-5.3c3.4-2.3 6-6 8.1-11a48.9 48.9 0 0 0 .2-33.5 29 29 0 0 0-6.7-10c-2.6-2.2-6-4-10-5a59.3 59.3 0 0 0-10.5-2.2c-2.8-.3-6.3 0-10.4.4-4.2.5-6.7.7-7.7 1l-4.1.8h-.3l.2 30.4Zm155.1-59.2c7.6-3 20.2-4.6 37.9-4.6a49 49 0 0 1 22 4.5 33.7 33.7 0 0 1 13.5 10 43 43 0 0 1 6.3 12.9c1.5 4.8 2.3 8.4 2.4 10.8a34 34 0 0 1 0 6v84c-23.1 3-34.6-4-34.6-21.4v-25.4c.1-23-1-36.8-3.3-41.9-2.3-5-9.5-7.6-21.6-8-7.6 0-15.1 1.5-22.7 4.2v71c.3 9.3-2.6 15.3-8.7 18.2a55 55 0 0 1-26 3.3V302c2.8 2 6.5 3.3 11 3.6 4.5.4 8.4.6 11.5.6 3.2 0 6 1.6 8.4 5 2.5 3.3 3.7 8.7 3.7 16.2v31h.2Zm120.7-17.5a18.6 18.6 0 0 1 .1-26.3c3.6-3.5 8-5.4 13.1-5.4 5 0 9.4 1.9 13 5.4 3.7 3.6 5.5 8 5.5 13.1 0 5-1.8 9.4-5.4 13-3.6 3.7-8 5.5-13.1 5.5-5 0-9.5-1.7-13.2-5.3Zm30.3 36.1c0-7.5-1.3-13-3.7-16.3-2.5-3.3-5.3-5-8.4-5-3.2 0-7-.1-11.5-.5-4.6-.4-8.3-1.5-11-3.6v130.2c11.2.7 19.9-.5 26-3.3 6-2.9 9-8.8 8.6-18.1V377Zm150.9 21v83.9c-5.3.3-10 .3-13.7 0a40 40 0 0 1-11-2.8c-3.5-1.3-6-3.6-7.6-6.8-1.7-3.1-2.4-7-2.3-11.8v-61.8c-2.3-11.2-12.8-15.6-31.4-13.3a111 111 0 0 0-16.8 2.8c.4 2.5.7 5.7.7 9.2v63c.2 4.8-.7 8.8-2.3 12a14.6 14.6 0 0 1-7.7 6.7 39 39 0 0 1-10.8 2.7 85 85 0 0 1-13.9.1V369.7c0-10 16.2-15.4 48.3-16.1 45.5-1.2 68.4 13.6 68.6 44.4Zm42.1-11.7c0-.4 0-1-.3-1.8a35 35 0 0 1 3-17.7 19.5 19.5 0 0 1 12.4-11c3.3-1.1 7.2-1.8 11.7-1.8h6.5c4-.2 8-.2 12.3 0l12.7.6a67.6 67.6 0 0 1 23.8 5.9c3.6 1.5 7 3.7 10 6.5a45.3 45.3 0 0 1 13 23.4 83.9 83.9 0 0 1 1.8 18.2V434c0 6.3-.7 12-2.1 17.2a47.5 47.5 0 0 1-5.2 12.6 38 38 0 0 1-25.7 16.7 74.5 74.5 0 0 1-15 1.6h-32l-2.1-.1a60.1 60.1 0 0 1-12.5-2.5 37 37 0 0 1-15-10 38 38 0 0 1-7.2-22.2 60 60 0 0 1 3.3-21.3 27.7 27.7 0 0 1 9.7-13.4c4.5-3.1 9.3-5.3 14.7-6.5a91.2 91.2 0 0 1 19.6-1.9 94 94 0 0 0 27.4-2.6c4.9-1.8 7.3-4.5 7.3-8.2 0-5.3-5.1-8.8-15.1-10.6a119 119 0 0 0-32.1-1.2 86.8 86.8 0 0 0-25 4.6Zm73.2 34.8a33 33 0 0 1-2.7 2.7 32.5 32.5 0 0 1-7.7 4.3c-4 1.7-8.2 2.6-12.5 2.6a51 51 0 0 0-18.3 2.8c-4.7 1.8-7 4.4-7 7.8 0 4 1.6 7 5 9 3.5 2 10.2 3 20.3 3h9.6a16.4 16.4 0 0 0 10.3-4.8c.8-1 1.4-2.8 2-5.9.5-3 .8-5.9.9-8.6v-13Z"/>
  </g>
  <defs>
    <clipPath id="a">
      <path fill="#fff" d="M0 0h1827v835H0z"/>
    </clipPath>
  </defs>
</svg>
