<svg xmlns="http://www.w3.org/2000/svg" fill="none" viewBox="0 0 19 29">
  <path fill="#000" d="M17.4 28.7c-.7 0-1.3-.6-1.3-1.4 0-.7.6-1.3 1.3-1.3.7 0 1.3.6 1.3 1.3 0 .8-.6 1.4-1.3 1.4Zm0-3c-.9 0-1.6.7-1.6 1.6 0 1 .7 1.7 1.6 1.7.9 0 1.6-.8 1.6-1.7 0-1-.7-1.7-1.6-1.7Zm-2.6-12.4 4.2-.1a14 14 0 0 0-2.8-8 14 14 0 0 1-1.4 8.1Zm-.6.9a12.6 12.6 0 0 1-11.5 6C1.5 22 .8 24 0 25.9c8 4.4 18.2-.3 19-11.6h-4.8Z"/>
  <path fill="url(#a)" d="M0 1.7C2.2 6.9 3.9 13 14.8 13.3a13.7 13.7 0 0 0 1.4-8.2A12.4 12.4 0 0 0 0 1.7Z"/>
  <path fill="url(#b)" d="M14.2 14.2c-6.5.4-9.6 2.9-11.5 6h1c4.3 0 8.2-2.4 10.5-6Z"/>
  <path fill="#000" d="M16.8 27h-.3.7v.1H17v.8h-.2V27Zm.5-.1h.3l.2.5.1-.5h.4v.9H18V27l-.3.8h-.1l-.2-.7v.7h-.2v-1Z"/>
  <defs>
    <radialGradient id="a" cx="0" cy="0" r="1" gradientTransform="matrix(-9.04252 -6.26133 5.72695 -8.27077 8.2 6.5)" gradientUnits="userSpaceOnUse">
      <stop offset=".2" stop-color="#ECECEC"/>
      <stop offset=".2" stop-color="#D6D6D6"/>
      <stop offset=".4" stop-color="#969696"/>
      <stop offset=".5" stop-color="#606060"/>
      <stop offset=".6" stop-color="#373737"/>
      <stop offset=".7" stop-color="#191919"/>
      <stop offset=".8" stop-color="#060606"/>
      <stop offset=".9"/>
    </radialGradient>
    <radialGradient id="b" cx="0" cy="0" r="1" gradientTransform="matrix(-1.93098 -4.31676 11.04995 -4.94288 8.4 17.3)" gradientUnits="userSpaceOnUse">
      <stop offset=".1" stop-color="#ECECEC"/>
      <stop offset=".2" stop-color="#E1E1E1"/>
      <stop offset=".3" stop-color="#C2C2C2"/>
      <stop offset=".4" stop-color="#909090"/>
      <stop offset=".5" stop-color="#4C4C4C"/>
      <stop offset=".7"/>
    </radialGradient>
  </defs>
</svg>
