<?xml version="1.0" standalone="no"?>
<!DOCTYPE svg PUBLIC "-//W3C//DTD SVG 20010904//EN"
 "http://www.w3.org/TR/2001/REC-SVG-20010904/DTD/svg10.dtd">
<svg version="1.0" xmlns="http://www.w3.org/2000/svg"
 width="663.000000pt" height="597.000000pt" viewBox="0 0 663.000000 597.000000"
 preserveAspectRatio="xMidYMid meet">

<g transform="translate(0.000000,597.000000) scale(0.100000,-0.100000)"
fill="#000000" stroke="none">
<path d="M120 5733 c0 -6 83 -151 170 -298 43 -72 658 -1131 735 -1265 17 -30
163 -282 325 -560 161 -278 358 -617 438 -755 80 -137 166 -286 192 -330 26
-44 115 -197 198 -340 82 -143 294 -507 470 -810 175 -302 397 -684 492 -848
95 -164 174 -296 175 -295 2 2 292 500 482 828 12 19 143 246 293 505 269 463
392 674 787 1355 110 190 272 469 360 620 l159 275 -1265 3 c-695 1 -1266 0
-1268 -2 -5 -4 38 -80 299 -528 l150 -258 348 0 c192 0 351 -3 353 -8 5 -7
-26 -62 -224 -401 -46 -79 -95 -163 -107 -185 -272 -473 -366 -626 -377 -614
-7 7 -106 175 -220 373 -115 198 -238 412 -275 475 -37 63 -174 300 -305 525
-240 414 -480 827 -740 1275 -79 135 -152 261 -163 280 -11 19 -40 70 -66 113
-25 43 -46 80 -46 82 0 3 819 5 1820 5 1229 0 1820 -3 1820 -10 0 -8 -314
-554 -450 -782 l-22 -38 456 0 456 0 23 38 c13 20 108 183 212 362 103 179
200 345 215 370 24 39 321 551 378 650 10 19 40 70 66 113 25 43 46 80 46 82
0 3 -1438 5 -3195 5 -1757 0 -3195 -3 -3195 -7z m6050 -187 c0 -4 -256 -450
-460 -801 -47 -82 -124 -214 -169 -292 l-83 -143 -94 0 c-52 0 -94 2 -94 4 0
5 34 64 345 601 114 198 221 384 237 413 l29 52 -2571 0 -2572 0 20 -32 c11
-18 140 -242 287 -498 147 -256 298 -517 335 -580 74 -128 160 -277 465 -805
114 -198 289 -502 390 -675 100 -173 242 -418 315 -545 166 -287 478 -829 623
-1080 141 -245 138 -239 147 -229 7 8 341 588 440 764 20 36 153 268 295 515
142 248 359 625 482 839 122 214 220 392 217 395 -3 3 -335 8 -738 9 l-731 4
-43 74 c-23 40 -42 77 -42 81 0 4 416 7 925 5 509 -1 925 -5 925 -8 0 -4 -35
-68 -79 -143 -90 -156 -215 -375 -409 -711 -74 -129 -185 -323 -247 -430 -117
-203 -247 -429 -480 -835 -205 -358 -518 -900 -520 -903 -2 -2 -41 64 -88 145
-110 193 -285 495 -377 653 -39 69 -141 244 -225 390 -278 481 -336 582 -543
940 -113 195 -244 423 -292 505 -47 83 -165 285 -260 450 -95 165 -241 417
-324 560 -306 532 -364 632 -421 730 -258 447 -309 534 -324 563 l-12 22 2861
0 c1573 0 2860 -2 2860 -4z"/>
</g>
</svg>
