<svg xmlns="http://www.w3.org/2000/svg" fill="none" viewBox="0 0 20 20">
  <g clip-path="url(#a)">
    <path fill="#000" d="M19.9 9.9h-9.6v3.4h5.5c-.5 1-1.2 2-2.1 2.4a6 6 0 0 1-3.2.8c-1.9 0-3.5-.6-4.8-1.9a6.3 6.3 0 0 1-2-4.7c0-1.7.6-3.2 2-4.5a6.5 6.5 0 0 1 4.6-1.9c2.2 0 4 .9 5.7 2.6l2.5-2.5A10.7 10.7 0 0 0 15 .9C13.5.3 12 0 10.3 0a9.8 9.8 0 0 0-8.9 4.9c0 .4-.2.8-.4 1.2a5 5 0 0 0-.5 1.2 13 13 0 0 0-.2 4c0 .5.2 1 .3 1.4.2.8.4 1.7 1 2.4.1.2.5.5.6.9l.9 1 .9.8 1 .7 1 .6 1 .4h.6l.4.1 1 .2a12.6 12.6 0 0 0 5.8-1c.7-.3 1.3-.6 1.8-1.1.5-.5 1-1 1.4-1.7l.6-1 .3-.9.5-1a15.5 15.5 0 0 1 .4-1.1V9.9Z"/>
    <path fill="url(#b)" d="M19.8 11.9a9.4 9.4 0 0 1-1.2 3.5 9 9 0 0 1-3.4 3.4c-1.3.8-3 1.2-4.8 1.2-2 0-3.7-.4-5.3-1.3A9.2 9.2 0 0 1 2.8 17c-.1-.2 1.3.3 3.5.5 1.9.1 4.3 0 6.3-.5 2-.6 3.9-1.7 5.2-2.8 1.3-1.2 2-2.3 2-2.2Z"/>
    <path fill="url(#c)" d="M7.6 19.7a10 10 0 0 1-2.8-1.1c-1.2-.7-1.9-1.5-2.4-2-.3-.5-.8-1-1.2-1.9A10 10 0 0 1 2.4 3.4l1-1-.6 4a14.8 14.8 0 0 0 4.8 13.3Z"/>
  </g>
  <defs>
    <linearGradient id="b" x1="3.7" x2="20.4" y1="18.7" y2="14.9" gradientUnits="userSpaceOnUse">
      <stop offset="0" stop-color="#352711"/>
      <stop offset="1" stop-color="#F2A50A"/>
    </linearGradient>
    <linearGradient id="c" x1="1.6" x2="4.4" y1="4.2" y2="18.2" gradientUnits="userSpaceOnUse">
      <stop offset="0" stop-color="#352711"/>
      <stop offset="1" stop-color="#F2A50A"/>
    </linearGradient>
    <clipPath id="a">
      <path fill="#fff" d="M0 0h20v20H0z"/>
    </clipPath>
  </defs>
</svg>
