<svg xmlns="http://www.w3.org/2000/svg" fill="none" viewBox="0 0 20 20">
  <g fill="#F26D42" clip-path="url(#a)">
    <path d="M8.8.9c.2 0 .4-.2.4-.4C9.2.2 9 0 8.8 0c-.3 0-.5.2-.5.4 0 .3.2.5.5.5Zm1.2.7V1c0-.3.3-.5.5-.5.3 0 .4.2.5.4v1.3c0 .3-.2.5-.5.5-.2 0-.4-.2-.4-.5a7.6 7.6 0 0 1 0-.6Z"/>
    <path fill-rule="evenodd" d="M16.2 12v4c0 .1 0 .3-.2.4A1280.6 1280.6 0 0 0 9.5 20 1276.6 1276.6 0 0 0 3 16V7.7c.2-.2.3-.3.6-.2.2 0 .3.2.3.4v.7c0 .3.2.4.5.4.2 0 .4-.2.4-.4V6.7c0-.4.1-.6.4-.6.3 0 .5.2.5.6a12 12 0 0 1 0 .5c0 .3.2.5.4.5.3 0 .4-.2.4-.5a317.3 317.3 0 0 0 .2-3l.5-.2c.2 0 .2.2.3.4v1.7c0 .3.1.5.4.5.3 0 .4-.2.4-.5V5c0-.3.2-.5.5-.5.2 0 .4.2.4.5v.5c0 .3.2.5.5.5.2 0 .4-.2.4-.4V3.9c0-.3.2-.5.5-.4.3 0 .4.2.4.4a245 245 0 0 0 0 2c0 .2.2.4.4.4s.4-.2.4-.4v-.7c0-.3.2-.5.5-.5.2 0 .4.2.4.5V7c0 .3.2.5.4.5.3 0 .5-.1.5-.5 0-.2.2-.4.4-.4.3 0 .5.2.5.5v1.1c0 .2.2.4.4.4.3 0 .4-.2.4-.4 0-.5.2-.7.5-.7s.4.2.4.7V12Zm-3.5.5v-2.3c0-.2 0-.2-.2-.2a45.2 45.2 0 0 1-1.8.2v1.1c0 .3 0 .3-.3.3H8.9c-.2 0-.3 0-.3-.2v-1.2c0-.2 0-.2-.2-.2H6.8c-.2 0-.3 0-.3.2a602.5 602.5 0 0 1 .3 4.7h1.6c.1 0 .2 0 .2-.2a18 18 0 0 1 0-1.2c0-.1 0-.2.2-.2a62.5 62.5 0 0 0 1.9.2v1.1c0 .2 0 .3.2.3h1.6c.2 0 .2 0 .2-.3v-2.1Z" clip-rule="evenodd"/>
    <path d="M9.2 3V2c0-.2-.2-.4-.4-.4-.3 0-.5.2-.5.4v1.3c0 .3.2.4.4.4.3 0 .5-.1.5-.4V3Zm3.5.7c0 .3-.2.5-.4.5a.5.5 0 0 1-.5-.4c0-.3.2-.5.5-.5.2 0 .4.2.4.4Z"/>
  </g>
  <defs>
    <clipPath id="a">
      <path fill="#fff" d="M0 0h20v20H0z"/>
    </clipPath>
  </defs>
</svg>
