<svg width="40" height="40" viewBox="0 0 40 40" fill="none" xmlns="http://www.w3.org/2000/svg">
    <g filter="url(#filter0_d_9479_1312)">
        <path d="M23.535 6.68668C23.2866 5.99379 22.4243 5.77694 21.84 6.26041L20.6423 7.25106C20.2505 7.57502 19.7003 7.59855 19.3064 7.30819L18.1019 6.42088C17.5144 5.9876 16.6541 6.27856 16.4104 6.9924L15.9112 8.45591C15.7479 8.93434 15.2861 9.25289 14.7898 9.229L13.2726 9.15572C12.5329 9.11994 11.9475 9.82546 12.1221 10.5436L12.4798 12.0152C12.5965 12.4959 12.3694 13.0082 11.9289 13.2578L10.581 14.0227C9.92356 14.3952 9.79916 15.2921 10.336 15.7858L11.437 16.7984C11.7969 17.1296 11.8773 17.6726 11.6319 18.1171L10.8812 19.4764C10.5149 20.1394 10.8908 20.9425 11.6198 21.056L13.1147 21.2878C13.6038 21.3636 13.9653 21.7656 13.9931 22.2633L14.0778 23.786C14.1192 24.5289 14.876 24.9831 15.5656 24.6797L16.9799 24.0574C17.4422 23.8537 17.9712 23.9867 18.2631 24.3801L19.1564 25.5828C19.4301 25.9516 19.8869 26.0736 20.2952 25.9579C20.5365 25.8894 20.7609 25.7384 20.9209 25.507L21.8055 24.228C22.0947 23.8101 22.6219 23.6316 23.0859 23.7954L24.5039 24.2962C25.1957 24.54 25.9491 24.0209 25.9852 23.2748L26.0591 21.7454C26.0834 21.2453 26.4423 20.8127 26.9304 20.6948L28.4233 20.3345C29.1513 20.1589 29.5214 19.3238 29.1504 18.6927L28.3906 17.3977C28.1421 16.9748 28.2183 16.4246 28.5755 16.0631L29.6692 14.9565C30.203 14.4165 30.0719 13.5308 29.4122 13.2146L28.0592 12.5661C27.8175 12.4504 27.6391 12.2509 27.5456 12.0139C27.4676 11.8163 27.4483 11.593 27.4999 11.3703L27.8472 9.86863C28.0165 9.13608 27.4264 8.48037 26.6869 8.57991L25.171 8.78309C24.6752 8.84967 24.2112 8.57109 24.0445 8.10667L23.535 6.68668Z" fill="#FC4665"/>
        <path d="M17.2212 17.9083L16.0967 17.607L16.712 15.3106L14.605 14.7461L13.9897 17.0424L12.8615 16.7401L14.2871 11.4196L15.4153 11.7219L14.8565 13.8072L16.9636 14.3717L17.5224 12.2865L18.6468 12.5878L17.2212 17.9083Z" fill="white"/>
        <path d="M23.2545 16.6659C23.1447 17.0759 22.9936 17.4358 22.8014 17.7458C22.6098 18.0533 22.3771 18.3004 22.1035 18.4871C21.8323 18.6744 21.5202 18.791 21.1673 18.8369C20.815 18.8803 20.4217 18.8438 19.9874 18.7275C19.5532 18.6111 19.1943 18.4461 18.911 18.2323C18.6283 18.0161 18.4151 17.7588 18.2715 17.4603C18.1302 17.1624 18.0539 16.8312 18.0423 16.4667C18.0308 16.1022 18.0803 15.7137 18.1908 15.3012C18.3384 14.7505 18.5565 14.2954 18.8453 13.9359C19.1371 13.5747 19.5012 13.3316 19.9377 13.2067C20.3742 13.0819 20.8824 13.0971 21.4623 13.2525C22.0397 13.4072 22.4837 13.6471 22.7945 13.9722C23.1076 14.2979 23.2991 14.6899 23.3687 15.148C23.4408 15.6068 23.4028 16.1127 23.2545 16.6659ZM19.3716 15.6254C19.2721 15.9966 19.2324 16.3292 19.2524 16.6232C19.2755 16.9154 19.3671 17.161 19.527 17.3599C19.6876 17.5563 19.9256 17.6968 20.241 17.7813C20.5612 17.8671 20.84 17.8651 21.0773 17.7753C21.3152 17.683 21.5148 17.5155 21.6761 17.2726C21.8405 17.028 21.9724 16.7201 22.0718 16.349C22.2213 15.7909 22.2347 15.3239 22.1118 14.9477C21.989 14.5716 21.6886 14.3195 21.2107 14.1914C20.8929 14.1062 20.6138 14.1095 20.3734 14.2011C20.1361 14.2909 19.9341 14.4578 19.7673 14.7017C19.6036 14.9439 19.4717 15.2518 19.3716 15.6254Z" fill="white"/>
        <path d="M24.8378 19.9491L23.7097 19.6468L24.8837 15.2653L23.439 14.8782L23.6906 13.9393L27.7082 15.0158L27.4566 15.9547L26.0119 15.5676L24.8378 19.9491Z" fill="white"/>
    </g>
    <defs>
        <filter id="filter0_d_9479_1312" x="0" y="0" width="40" height="40" filterUnits="userSpaceOnUse" color-interpolation-filters="sRGB">
            <feFlood flood-opacity="0" result="BackgroundImageFix"/>
            <feColorMatrix in="SourceAlpha" type="matrix" values="0 0 0 0 0 0 0 0 0 0 0 0 0 0 0 0 0 0 127 0" result="hardAlpha"/>
            <feOffset dy="4"/>
            <feGaussianBlur stdDeviation="5"/>
            <feComposite in2="hardAlpha" operator="out"/>
            <feColorMatrix type="matrix" values="0 0 0 0 0 0 0 0 0 0 0 0 0 0 0 0 0 0 0.15 0"/>
            <feBlend mode="normal" in2="BackgroundImageFix" result="effect1_dropShadow_9479_1312"/>
            <feBlend mode="normal" in="SourceGraphic" in2="effect1_dropShadow_9479_1312" result="shape"/>
        </filter>
    </defs>
</svg>
