<svg xmlns="http://www.w3.org/2000/svg" fill="none" viewBox="0 0 20 20">
  <g clip-path="url(#a)">
    <path fill="#334C90" d="M.1 8.7 0 10c0 2.7 4.5 4.9 10 4.9 4.5 0 8.2-1.4 9.6-3.3l.3-.7c.2-.4 0-.9 0-1.4 0-.3-.2-.7-.4-1C17.9 6.5 14.3 5 10 5S2 6.2.5 8.2l-.4.5Z"/>
    <path fill="#fff" d="M1.3 11.2h.1c.3 0 .4 0 .5-.4l.5-2.4v-.2c0-.2 0-.2-.2-.2H2h2-.2c-.3 0-.4 0-.4.4l-.6 2.4v.2c0 .2 0 .2.2.2h.2-1.9Zm4.2-.1c0 .5-.2.8-.3 1a1 1 0 0 1-.9.4c-.4 0-.7-.2-.7-.6 0-.2.2-.4.3-.4.2 0 .3.2.3.4s0 .3-.2.3h-.1l.3.2c.4 0 .4-.4.7-1.4v-.3c-.2.4-.4.6-.7.6-.3 0-.5-.3-.5-.8 0-.4.1-.9.4-1.2.2-.2.5-.3.7-.3.2 0 .4.2.4.5l.1-.5h.8l-.6 2.1ZM4.4 11v.2c.1 0 .3 0 .4-.3L5 9.6v-.4c-.1 0-.2 0-.3.3L4.4 11Zm2.2-1.6v-.2c-.1 0-.3.3-.4.8.1-.7.3-1 .6-1s.4.2.4.5v.5c.2-.7.4-1 .7-1 .2 0 .3.2.3.5s-.1.4-.3.4c-.2 0-.3-.1-.3-.4v-.3s-.4.7-.7 2h-.7l.4-1.8Zm3.8.6c0 .7-.5 1.3-1.2 1.3-.6 0-1-.4-1-1 0-.7.6-1.3 1.2-1.3s1 .4 1 1Zm-.7-.7c0-.1 0-.2-.2-.2-.1 0-.2.1-.2.3l-.4 1.4v.2c0 .1 0 .2.2.2.1 0 .2 0 .3-.3l.3-1.4v-.2Zm1.7 1.9c.2 0 .4 0 .4-.3s-.2-.3-.6-.5c-.3-.2-.4-.3-.4-.6 0-.5.3-.8 1-.8.4 0 .7.3.7.6 0 .2 0 .3-.2.3s-.4-.2-.4-.4c0-.1.1-.2.3-.2l-.4-.2c-.2 0-.4.1-.4.3 0 .3.2.3.5.5s.5.4.5.7c0 .4-.4.7-1 .7-.5 0-.8-.3-.8-.6 0-.2.1-.3.3-.3.2 0 .3.1.3.3 0 .2 0 .3-.2.3h-.2l.6.2Zm3.5-1.2c0 .7-.6 1.3-1.2 1.3s-1-.4-1-1c0-.7.5-1.3 1.2-1.3.6 0 1 .4 1 1Zm-.7-.7c0-.1 0-.2-.2-.2l-.3.3-.3 1.4v.2l.1.2c.2 0 .3 0 .3-.3l.4-1.4v-.2Zm1.3 3.2h-1v-.1c.2 0 .3-.2.4-.6l.7-2.6h-.4V9h.4c.2-.8.6-1.2 1-1.2.3 0 .5.2.5.5 0 .2-.2.3-.3.3-.2 0-.3 0-.3-.3 0-.2.1-.3.3-.3h-.2c-.2 0-.3.3-.4 1h.4-.5c-.1 1.2-.4 2.3-.6 3.4Z"/>
    <path fill="#fff" d="M16.6 9.2V9h.3l.3-1h.7l-.2 1h.3v.2h-.4l-.4 1.6v.2l.1.1c.1 0 .3-.2.4-.8h.1c-.2.7-.4 1-.8 1-.3 0-.5-.1-.5-.5l.1-.5.3-1.1h-.3Z"/>
  </g>
  <defs>
    <clipPath id="a">
      <path fill="#fff" d="M0 0h20v20H0z"/>
    </clipPath>
  </defs>
</svg>
