<svg width="33" height="32" viewBox="0 0 33 32" fill="none" xmlns="http://www.w3.org/2000/svg">
<path d="M16.0302 12.9398C14.3107 12.9398 12.9171 14.3341 12.9171 16.0536C12.9171 17.7731 14.3107 19.1674 16.0302 19.1674C17.7497 19.1674 19.144 17.7731 19.144 16.0536C19.144 14.3341 17.7497 12.9398 16.0302 12.9398Z" fill="url(#paint0_radial_5982_84300)"/>
<path d="M16.0302 12.9398C14.3107 12.9398 12.9171 14.3341 12.9171 16.0536C12.9171 17.7731 14.3107 19.1674 16.0302 19.1674C17.7497 19.1674 19.144 17.7731 19.144 16.0536C19.144 14.3341 17.7497 12.9398 16.0302 12.9398Z" fill="url(#paint1_radial_5982_84300)" fill-opacity="0.2"/>
<path fill-rule="evenodd" clip-rule="evenodd" d="M10.522 23.3354C10.8509 23.4636 11.3459 23.6153 12.2566 23.6568V23.6569C13.2409 23.7022 13.5358 23.7112 16.0302 23.7112C18.5246 23.7112 18.8204 23.7022 19.805 23.6569C20.7156 23.6155 21.2108 23.4638 21.5396 23.3356C21.9757 23.1658 22.2873 22.9633 22.614 22.6369C22.9407 22.3105 23.1429 21.9993 23.3126 21.5632C23.44 21.2343 23.5925 20.7393 23.634 19.8286C23.6792 18.8432 23.6883 18.5483 23.6883 16.0539C23.6883 13.5595 23.6792 13.2645 23.634 12.2791C23.5926 11.3685 23.4409 10.8733 23.3126 10.5445C23.1429 10.1084 22.9411 9.79684 22.614 9.47014C22.2868 9.14344 21.9757 8.94048 21.5396 8.77146C21.2098 8.64442 20.7156 8.49161 19.805 8.45014C18.8196 8.4053 18.5235 8.39566 16.0302 8.39566C13.5369 8.39566 13.2411 8.4047 12.2566 8.44999C11.3459 8.49138 10.8508 8.64308 10.522 8.77131C10.0851 8.94034 9.77426 9.14284 9.44757 9.46999C9.12086 9.79714 8.91866 10.1083 8.74888 10.5444C8.62185 10.8742 8.46904 11.3683 8.42756 12.279C8.38303 13.2644 8.37324 13.5593 8.37324 16.0537C8.37324 18.5482 8.38228 18.8439 8.42756 19.8285C8.46896 20.7392 8.62065 21.2343 8.74888 21.5631C8.91791 21.9992 9.12042 22.3101 9.44757 22.6368C9.77471 22.9635 10.0859 23.1657 10.522 23.3354ZM16.0302 20.8499C13.3812 20.8499 11.2339 18.7026 11.2339 16.0536H11.234C11.234 13.4044 13.3812 11.2573 16.0302 11.2573C18.6792 11.2573 20.8265 13.4046 20.8265 16.0536C20.8265 18.7026 18.6792 20.8499 16.0302 20.8499ZM20.0842 11.6899C19.9612 11.5055 19.8955 11.2888 19.8956 11.0671C19.8959 10.7699 20.014 10.485 20.2242 10.275C20.4344 10.0649 20.7193 9.9468 21.0165 9.94666H21.0169C21.2386 9.94675 21.4553 10.0126 21.6396 10.1358C21.8239 10.2591 21.9675 10.4342 22.0522 10.639C22.137 10.8439 22.1591 11.0692 22.1157 11.2867C22.0724 11.5041 21.9656 11.7037 21.8087 11.8604C21.6519 12.0171 21.4522 12.1238 21.2347 12.167C21.0173 12.2101 20.7919 12.1878 20.5871 12.1029C20.3823 12.018 20.2073 11.8743 20.0842 11.6899Z" fill="url(#paint2_radial_5982_84300)"/>
<path fill-rule="evenodd" clip-rule="evenodd" d="M10.522 23.3354C10.8509 23.4636 11.3459 23.6153 12.2566 23.6568V23.6569C13.2409 23.7022 13.5358 23.7112 16.0302 23.7112C18.5246 23.7112 18.8204 23.7022 19.805 23.6569C20.7156 23.6155 21.2108 23.4638 21.5396 23.3356C21.9757 23.1658 22.2873 22.9633 22.614 22.6369C22.9407 22.3105 23.1429 21.9993 23.3126 21.5632C23.44 21.2343 23.5925 20.7393 23.634 19.8286C23.6792 18.8432 23.6883 18.5483 23.6883 16.0539C23.6883 13.5595 23.6792 13.2645 23.634 12.2791C23.5926 11.3685 23.4409 10.8733 23.3126 10.5445C23.1429 10.1084 22.9411 9.79684 22.614 9.47014C22.2868 9.14344 21.9757 8.94048 21.5396 8.77146C21.2098 8.64442 20.7156 8.49161 19.805 8.45014C18.8196 8.4053 18.5235 8.39566 16.0302 8.39566C13.5369 8.39566 13.2411 8.4047 12.2566 8.44999C11.3459 8.49138 10.8508 8.64308 10.522 8.77131C10.0851 8.94034 9.77426 9.14284 9.44757 9.46999C9.12086 9.79714 8.91866 10.1083 8.74888 10.5444C8.62185 10.8742 8.46904 11.3683 8.42756 12.279C8.38303 13.2644 8.37324 13.5593 8.37324 16.0537C8.37324 18.5482 8.38228 18.8439 8.42756 19.8285C8.46896 20.7392 8.62065 21.2343 8.74888 21.5631C8.91791 21.9992 9.12042 22.3101 9.44757 22.6368C9.77471 22.9635 10.0859 23.1657 10.522 23.3354ZM16.0302 20.8499C13.3812 20.8499 11.2339 18.7026 11.2339 16.0536H11.234C11.234 13.4044 13.3812 11.2573 16.0302 11.2573C18.6792 11.2573 20.8265 13.4046 20.8265 16.0536C20.8265 18.7026 18.6792 20.8499 16.0302 20.8499ZM20.0842 11.6899C19.9612 11.5055 19.8955 11.2888 19.8956 11.0671C19.8959 10.7699 20.014 10.485 20.2242 10.275C20.4344 10.0649 20.7193 9.9468 21.0165 9.94666H21.0169C21.2386 9.94675 21.4553 10.0126 21.6396 10.1358C21.8239 10.2591 21.9675 10.4342 22.0522 10.639C22.137 10.8439 22.1591 11.0692 22.1157 11.2867C22.0724 11.5041 21.9656 11.7037 21.8087 11.8604C21.6519 12.0171 21.4522 12.1238 21.2347 12.167C21.0173 12.2101 20.7919 12.1878 20.5871 12.1029C20.3823 12.018 20.2073 11.8743 20.0842 11.6899Z" fill="url(#paint3_radial_5982_84300)" fill-opacity="0.2"/>
<path fill-rule="evenodd" clip-rule="evenodd" d="M6.9604 27.955C7.50067 28.1657 8.31293 28.4145 9.80819 28.4825C11.4245 28.5572 11.9102 28.5714 16.0037 28.5714C20.0986 28.5714 20.5843 28.5565 22.2007 28.4825C23.6959 28.4145 24.5082 28.1657 25.0484 27.955C25.7643 27.6762 26.2754 27.3445 26.812 26.8079C27.3485 26.2714 27.6803 25.761 27.959 25.0452C28.1682 24.5049 28.4186 23.6926 28.4866 22.1974C28.5605 20.5796 28.5755 20.0939 28.5755 16.0004C28.5755 11.9054 28.5605 11.4212 28.4866 9.80341C28.4186 8.30816 28.1697 7.49589 27.959 6.95563C27.6803 6.23976 27.3492 5.72864 26.812 5.19211C26.2747 4.65558 25.7643 4.3223 25.0484 4.04507C24.5067 3.83584 23.6959 3.58551 22.2007 3.51751C20.5828 3.44503 20.0986 3.42859 16.0037 3.42859C11.9102 3.42859 11.4245 3.44353 9.80744 3.51751C8.31219 3.58551 7.49992 3.83435 6.95966 4.04507C6.24304 4.3223 5.73267 4.65558 5.19614 5.19211C4.66036 5.73013 4.32783 6.24051 4.0491 6.95638C3.83987 7.49813 3.58954 8.30891 3.52154 9.80416C3.44906 11.422 3.43262 11.9062 3.43262 16.0011C3.43262 20.0961 3.44756 20.5811 3.52229 22.1974C3.59029 23.6926 3.83912 24.5049 4.04985 25.0452C4.32708 25.761 4.65961 26.2714 5.19688 26.8079C5.73416 27.3445 6.24453 27.6762 6.9604 27.955ZM9.91198 7.20334C10.5054 6.97244 11.1849 6.81477 12.1792 6.76949H12.1796C13.1761 6.72346 13.4951 6.71292 16.0313 6.71292C18.5676 6.71292 18.8858 6.72398 19.8819 6.76949C20.8755 6.81402 21.5546 6.97244 22.1492 7.20334C22.7626 7.44179 23.284 7.76087 23.8031 8.28073C24.3221 8.8006 24.6413 9.32121 24.8805 9.93538C25.1114 10.5288 25.269 11.2082 25.3143 12.2026C25.3596 13.1986 25.3701 13.517 25.3701 16.0536C25.3701 18.5902 25.3596 18.9079 25.3143 19.9046C25.2698 20.8989 25.1114 21.578 24.8805 22.1718C24.6413 22.786 24.3229 23.3074 23.8031 23.8265C23.2832 24.3455 22.7626 24.6647 22.1484 24.9039C21.5546 25.1348 20.8756 25.2924 19.8812 25.3377C18.8852 25.3837 18.5668 25.3943 16.0302 25.3943C13.4936 25.3943 13.1757 25.383 12.1792 25.3377C11.1849 25.2924 10.5065 25.1348 9.91198 24.9039C9.29707 24.6647 8.77713 24.3453 8.25734 23.8265C7.73755 23.3076 7.4184 22.786 7.17995 22.1718C6.94905 21.578 6.79138 20.899 6.74609 19.9046C6.70006 18.9086 6.68952 18.5902 6.68952 16.0536C6.68952 13.517 6.70006 13.1986 6.74609 12.2026C6.79138 11.2083 6.94905 10.5291 7.17995 9.93538C7.4184 9.32046 7.73747 8.79978 8.25734 8.28073C8.7772 7.76169 9.29781 7.44179 9.91198 7.20334Z" fill="url(#paint4_radial_5982_84300)"/>
<path fill-rule="evenodd" clip-rule="evenodd" d="M6.9604 27.955C7.50067 28.1657 8.31293 28.4145 9.80819 28.4825C11.4245 28.5572 11.9102 28.5714 16.0037 28.5714C20.0986 28.5714 20.5843 28.5565 22.2007 28.4825C23.6959 28.4145 24.5082 28.1657 25.0484 27.955C25.7643 27.6762 26.2754 27.3445 26.812 26.8079C27.3485 26.2714 27.6803 25.761 27.959 25.0452C28.1682 24.5049 28.4186 23.6926 28.4866 22.1974C28.5605 20.5796 28.5755 20.0939 28.5755 16.0004C28.5755 11.9054 28.5605 11.4212 28.4866 9.80341C28.4186 8.30816 28.1697 7.49589 27.959 6.95563C27.6803 6.23976 27.3492 5.72864 26.812 5.19211C26.2747 4.65558 25.7643 4.3223 25.0484 4.04507C24.5067 3.83584 23.6959 3.58551 22.2007 3.51751C20.5828 3.44503 20.0986 3.42859 16.0037 3.42859C11.9102 3.42859 11.4245 3.44353 9.80744 3.51751C8.31219 3.58551 7.49992 3.83435 6.95966 4.04507C6.24304 4.3223 5.73267 4.65558 5.19614 5.19211C4.66036 5.73013 4.32783 6.24051 4.0491 6.95638C3.83987 7.49813 3.58954 8.30891 3.52154 9.80416C3.44906 11.422 3.43262 11.9062 3.43262 16.0011C3.43262 20.0961 3.44756 20.5811 3.52229 22.1974C3.59029 23.6926 3.83912 24.5049 4.04985 25.0452C4.32708 25.761 4.65961 26.2714 5.19688 26.8079C5.73416 27.3445 6.24453 27.6762 6.9604 27.955ZM9.91198 7.20334C10.5054 6.97244 11.1849 6.81477 12.1792 6.76949H12.1796C13.1761 6.72346 13.4951 6.71292 16.0313 6.71292C18.5676 6.71292 18.8858 6.72398 19.8819 6.76949C20.8755 6.81402 21.5546 6.97244 22.1492 7.20334C22.7626 7.44179 23.284 7.76087 23.8031 8.28073C24.3221 8.8006 24.6413 9.32121 24.8805 9.93538C25.1114 10.5288 25.269 11.2082 25.3143 12.2026C25.3596 13.1986 25.3701 13.517 25.3701 16.0536C25.3701 18.5902 25.3596 18.9079 25.3143 19.9046C25.2698 20.8989 25.1114 21.578 24.8805 22.1718C24.6413 22.786 24.3229 23.3074 23.8031 23.8265C23.2832 24.3455 22.7626 24.6647 22.1484 24.9039C21.5546 25.1348 20.8756 25.2924 19.8812 25.3377C18.8852 25.3837 18.5668 25.3943 16.0302 25.3943C13.4936 25.3943 13.1757 25.383 12.1792 25.3377C11.1849 25.2924 10.5065 25.1348 9.91198 24.9039C9.29707 24.6647 8.77713 24.3453 8.25734 23.8265C7.73755 23.3076 7.4184 22.786 7.17995 22.1718C6.94905 21.578 6.79138 20.899 6.74609 19.9046C6.70006 18.9086 6.68952 18.5902 6.68952 16.0536C6.68952 13.517 6.70006 13.1986 6.74609 12.2026C6.79138 11.2083 6.94905 10.5291 7.17995 9.93538C7.4184 9.32046 7.73747 8.79978 8.25734 8.28073C8.7772 7.76169 9.29781 7.44179 9.91198 7.20334Z" fill="url(#paint5_radial_5982_84300)" fill-opacity="0.2"/>
<defs>
<radialGradient id="paint0_radial_5982_84300" cx="0" cy="0" r="1" gradientUnits="userSpaceOnUse" gradientTransform="translate(5.05984 28.0206) scale(31.9221)">
<stop offset="0.09" stop-color="#FA8F21"/>
<stop offset="0.78" stop-color="#D82D7E"/>
</radialGradient>
<radialGradient id="paint1_radial_5982_84300" cx="0" cy="0" r="1" gradientUnits="userSpaceOnUse" gradientTransform="translate(19.8782 27.0173) scale(21.9673)">
<stop offset="0.708333" stop-color="#8C3AAA" stop-opacity="0"/>
<stop offset="1" stop-color="#8C3AAA"/>
</radialGradient>
<radialGradient id="paint2_radial_5982_84300" cx="0" cy="0" r="1" gradientUnits="userSpaceOnUse" gradientTransform="translate(5.05984 28.0206) scale(31.9221)">
<stop offset="0.09" stop-color="#FA8F21"/>
<stop offset="0.78" stop-color="#D82D7E"/>
</radialGradient>
<radialGradient id="paint3_radial_5982_84300" cx="0" cy="0" r="1" gradientUnits="userSpaceOnUse" gradientTransform="translate(19.8782 27.0173) scale(21.9673)">
<stop offset="0.708333" stop-color="#8C3AAA" stop-opacity="0"/>
<stop offset="1" stop-color="#8C3AAA"/>
</radialGradient>
<radialGradient id="paint4_radial_5982_84300" cx="0" cy="0" r="1" gradientUnits="userSpaceOnUse" gradientTransform="translate(5.05984 28.0206) scale(31.9221)">
<stop offset="0.09" stop-color="#FA8F21"/>
<stop offset="0.78" stop-color="#D82D7E"/>
</radialGradient>
<radialGradient id="paint5_radial_5982_84300" cx="0" cy="0" r="1" gradientUnits="userSpaceOnUse" gradientTransform="translate(19.8782 27.0173) scale(21.9673)">
<stop offset="0.708333" stop-color="#8C3AAA" stop-opacity="0"/>
<stop offset="1" stop-color="#8C3AAA"/>
</radialGradient>
</defs>
</svg>
