<svg width="102" height="45" viewBox="0 0 102 45" fill="none" xmlns="http://www.w3.org/2000/svg">
<path d="M19.244 17.5101C18.8557 17.1717 18.3702 16.918 17.7876 16.7488C17.205 16.5584 16.6332 16.4633 16.0722 16.4633C15.4465 16.4633 14.8747 16.5796 14.3568 16.8122C13.839 17.0237 13.3859 17.3303 12.9975 17.7321C12.6307 18.1128 12.3394 18.578 12.1236 19.1279C11.9078 19.6777 11.8 20.2699 11.8 20.9043C11.8 21.5387 11.9186 22.1309 12.156 22.6807C12.3933 23.2305 12.717 23.7064 13.1269 24.1082C13.5369 24.4888 14.0116 24.7955 14.551 25.0281C15.112 25.2396 15.7054 25.3453 16.3311 25.3453C17.0648 25.3453 17.7337 25.1973 18.3378 24.9012C18.942 24.584 19.4598 24.161 19.8914 23.6323H17.9494V19.1913H26.2674V26.2335C25.7711 27.1006 25.1777 27.8936 24.4873 28.6126C23.7968 29.3105 23.02 29.9132 22.157 30.4208C21.3154 30.9283 20.3984 31.3195 19.4059 31.5945C18.4133 31.8694 17.3884 32.0068 16.3311 32.0068C14.7776 32.0068 13.3103 31.7213 11.9294 31.1504C10.5485 30.5794 9.34017 29.7969 8.30447 28.803C7.29034 27.809 6.4812 26.6353 5.87704 25.2819C5.29446 23.9284 5.00317 22.4692 5.00317 20.9043C5.00317 19.3817 5.28368 17.9436 5.84468 16.5902C6.40568 15.2367 7.17167 14.063 8.14264 13.0691C9.13518 12.054 10.3003 11.2609 11.6381 10.69C12.9975 10.0978 14.4539 9.80176 16.0075 9.80176C17.2158 9.80176 18.2623 9.91807 19.1469 10.1507C20.0316 10.3833 20.776 10.6477 21.3802 10.9437C22.0922 11.2821 22.6856 11.6522 23.1603 12.054L19.244 17.5101Z" fill="#3959D9"/>
<path d="M28.0561 10.3093H35.2413V25.9163H41.1965V31.4676H28.0561V10.3093Z" fill="#3959D9"/>
<path d="M40.8772 20.9043C40.8772 19.3817 41.1685 17.9436 41.751 16.5902C42.3552 15.2367 43.1643 14.063 44.1785 13.0691C45.2142 12.054 46.4225 11.2609 47.8034 10.69C49.1843 10.0978 50.6516 9.80176 52.2051 9.80176C53.7587 9.80176 55.2259 10.0978 56.6069 10.69C57.9878 11.2609 59.1853 12.054 60.1994 13.0691C61.2351 14.063 62.0443 15.2367 62.6269 16.5902C63.231 17.9436 63.5331 19.3817 63.5331 20.9043C63.5331 22.4269 63.231 23.865 62.6269 25.2184C62.0443 26.5719 61.2351 27.7561 60.1994 28.7712C59.1853 29.7652 57.9878 30.5582 56.6069 31.1504C55.2259 31.7213 53.7587 32.0068 52.2051 32.0068C50.6516 32.0068 49.1843 31.7213 47.8034 31.1504C46.4225 30.5582 45.2142 29.7652 44.1785 28.7712C43.1643 27.7561 42.3552 26.5719 41.751 25.2184C41.1685 23.865 40.8772 22.4269 40.8772 20.9043ZM47.674 20.9043C47.674 21.5176 47.7926 22.0991 48.03 22.649C48.2673 23.1777 48.591 23.6429 49.0009 24.0447C49.4109 24.4465 49.8856 24.7637 50.425 24.9964C50.986 25.229 51.5794 25.3453 52.2051 25.3453C52.8309 25.3453 53.4135 25.229 53.9529 24.9964C54.5139 24.7637 54.9994 24.4465 55.4093 24.0447C55.8193 23.6429 56.143 23.1777 56.3803 22.649C56.6177 22.0991 56.7363 21.5176 56.7363 20.9043C56.7363 20.291 56.6177 19.72 56.3803 19.1913C56.143 18.6415 55.8193 18.1657 55.4093 17.7639C54.9994 17.3621 54.5139 17.0448 53.9529 16.8122C53.4135 16.5796 52.8309 16.4633 52.2051 16.4633C51.5794 16.4633 50.986 16.5796 50.425 16.8122C49.8856 17.0448 49.4109 17.3621 49.0009 17.7639C48.591 18.1657 48.2673 18.6415 48.03 19.1913C47.7926 19.72 47.674 20.291 47.674 20.9043Z" fill="#3959D9"/>
<path d="M65.3208 10.3093H72.7649C74.1458 10.3093 75.4189 10.4891 76.584 10.8486C77.7708 11.2081 78.7957 11.7368 79.6588 12.4346C80.5219 13.1325 81.1907 13.9996 81.6654 15.0358C82.1617 16.0509 82.4098 17.2246 82.4098 18.5569C82.4098 19.6143 82.2588 20.5131 81.9567 21.2532C81.6547 21.9934 81.3202 22.6067 80.9534 23.0931C80.5219 23.6429 80.0364 24.1082 79.4969 24.4888L83.5426 31.4676H75.4512L72.2147 26.1066V31.4676H65.3208V10.3093ZM72.2147 20.714H72.5707C73.3906 20.714 74.0811 20.5342 74.6421 20.1747C75.2247 19.8152 75.516 19.2125 75.516 18.3666C75.516 17.5207 75.2247 16.918 74.6421 16.5584C74.0811 16.1989 73.3906 16.0192 72.5707 16.0192H72.2147V20.714Z" fill="#3959D9"/>
<path d="M87.6559 22.3635L80.9562 10.3093H88.6268L91.119 14.782L93.5788 10.3093H101.249L94.5497 22.3635V31.4676H87.6559V22.3635Z" fill="#3959D9"/>
<path fill-rule="evenodd" clip-rule="evenodd" d="M0.0714239 6.65668C-0.0579626 6.4716 -0.00860665 6.21157 0.196878 6.1178C1.00373 5.74963 1.54861 6.03606 1.88136 6.42581C2.08247 6.66136 2.45917 6.75012 2.75508 6.65869C3.56607 6.40811 4.43297 6.88244 4.69135 7.71814C4.82331 8.14495 4.77102 8.58347 4.58024 8.9438C4.40539 9.27402 4.41188 9.76032 4.76402 9.88532C5.50458 10.1482 6.32575 10.1843 7.125 9.93732C8.52045 9.50616 9.4841 8.32504 9.73428 6.94867C9.76052 6.80432 9.59748 6.69957 9.45726 6.74289C8.72737 6.96841 7.94716 6.54151 7.71462 5.78938C7.48208 5.03725 7.88526 4.24471 8.61515 4.01918C8.71578 3.98809 8.81736 3.9694 8.91833 3.96225C8.9857 3.95748 9.026 3.86567 8.98344 3.81325C8.86593 3.66854 8.777 3.50201 8.72171 3.32317C8.66641 3.14433 8.64585 2.95668 8.66118 2.77093C8.67651 2.58518 8.72744 2.40497 8.81106 2.2406C8.89468 2.07622 9.00936 1.93089 9.14854 1.81291C9.28773 1.69493 9.44869 1.6066 9.62224 1.55298C9.7958 1.49935 9.97854 1.48148 10.16 1.50037C10.3415 1.51927 10.5183 1.57457 10.6801 1.66311C10.8419 1.75165 10.9857 1.8717 11.1032 2.01641C11.2207 2.16112 11.3096 2.32764 11.3649 2.50649C11.4202 2.68533 11.4407 2.87298 11.4254 3.05873C11.4199 3.12601 11.505 3.17909 11.5633 3.14503C11.6507 3.09397 11.7451 3.0521 11.8457 3.02101C12.5756 2.79549 13.3558 3.22239 13.5883 3.97452C13.8209 4.72665 13.4177 5.5192 12.6878 5.74472C12.5476 5.78804 12.4721 5.96649 12.5752 6.07087C13.5587 7.06609 15.0209 7.49765 16.4164 7.06648C17.2156 6.81953 17.8732 6.32654 18.3363 5.69176C18.5564 5.38991 18.2875 4.98482 17.9568 4.81092C17.5958 4.62107 17.305 4.28847 17.173 3.86156C16.9146 3.02586 17.3626 2.14526 18.1736 1.89468C18.4695 1.80325 18.7304 1.51741 18.7635 1.20948C18.8183 0.700026 19.1065 0.15626 19.9804 0.00510664C20.2029 -0.0333906 20.3905 0.15345 20.3881 0.379238L20.2896 9.82799C19.9562 9.7171 19.5985 9.6117 19.2164 9.51178C18.2673 9.26359 17.1445 9.13949 15.8481 9.13949C14.1814 9.13949 12.6188 9.45537 11.1603 10.0871C9.72507 10.6963 8.47499 11.5424 7.41012 12.6254C6.77488 13.2721 6.22143 13.99 5.74975 14.7793L0.0714239 6.65668Z" fill="#3959D9"/>
<path d="M30.5124 44.9997C29.5146 44.9997 28.6166 44.7912 27.8183 44.374C27.0292 43.9478 26.4078 43.3583 25.9543 42.6056C25.5007 41.8529 25.2739 41.0004 25.2739 40.0482C25.2739 39.096 25.5007 38.2435 25.9543 37.4908C26.4078 36.7381 27.0292 36.1532 27.8183 35.736C28.6166 35.3098 29.5146 35.0967 30.5124 35.0967C31.3833 35.0967 32.1679 35.2508 32.8664 35.5592C33.5648 35.8675 34.1454 36.3119 34.608 36.8923L32.8936 38.443C32.2768 37.6994 31.5284 37.3276 30.6485 37.3276C30.1315 37.3276 29.6688 37.4409 29.2606 37.6677C28.8615 37.8944 28.5486 38.2163 28.3218 38.6335C28.1041 39.0416 27.9952 39.5132 27.9952 40.0482C27.9952 40.5833 28.1041 41.0594 28.3218 41.4765C28.5486 41.8846 28.8615 42.202 29.2606 42.4288C29.6688 42.6555 30.1315 42.7688 30.6485 42.7688C31.5284 42.7688 32.2768 42.397 32.8936 41.6534L34.608 43.2041C34.1454 43.7845 33.5648 44.2289 32.8664 44.5372C32.1679 44.8456 31.3833 44.9997 30.5124 44.9997Z" fill="#FC4665"/>
<path d="M42.0312 42.9593H38.0037L37.2553 44.8093H34.5068L38.7112 35.2871H41.3645L45.5825 44.8093H42.7796L42.0312 42.9593ZM41.242 40.9732L40.0175 37.9261L38.7929 40.9732H41.242Z" fill="#FC4665"/>
<path d="M49.6935 44.9997C48.9225 44.9997 48.1741 44.9045 47.4484 44.7141C46.7228 44.5236 46.1331 44.2697 45.6796 43.9523L46.564 41.9662C46.9904 42.2474 47.4847 42.4741 48.0471 42.6464C48.6095 42.8187 49.1629 42.9049 49.7071 42.9049C50.7412 42.9049 51.2583 42.6464 51.2583 42.1295C51.2583 41.8574 51.1086 41.6579 50.8093 41.531C50.519 41.3949 50.0473 41.2544 49.3942 41.1093C48.6776 40.9551 48.0789 40.7918 47.5981 40.6195C47.1173 40.4382 46.7046 40.1525 46.3599 39.7625C46.0152 39.3726 45.8429 38.8466 45.8429 38.1846C45.8429 37.6042 46.0016 37.0827 46.3191 36.6202C46.6366 36.1487 47.1083 35.7768 47.7342 35.5048C48.3691 35.2327 49.1447 35.0967 50.0609 35.0967C50.6868 35.0967 51.3036 35.1692 51.9114 35.3143C52.5191 35.4504 53.0543 35.6544 53.517 35.9265L52.687 37.9261C51.7799 37.4364 50.9 37.1916 50.0473 37.1916C49.5121 37.1916 49.122 37.2732 48.8771 37.4364C48.6322 37.5906 48.5097 37.7946 48.5097 38.0486C48.5097 38.3025 48.6549 38.4929 48.9452 38.6199C49.2354 38.7468 49.7026 38.8783 50.3466 39.0144C51.0723 39.1685 51.671 39.3363 52.1427 39.5177C52.6235 39.69 53.0362 39.9711 53.3809 40.3611C53.7347 40.742 53.9115 41.2634 53.9115 41.9254C53.9115 42.4968 53.7528 43.0137 53.4353 43.4762C53.1178 43.9387 52.6416 44.3105 52.0066 44.5916C51.3717 44.8637 50.6006 44.9997 49.6935 44.9997Z" fill="#FC4665"/>
<path d="M55.156 35.2871H57.8501V44.8093H55.156V35.2871Z" fill="#FC4665"/>
<path d="M68.8288 35.2871V44.8093H66.6109L62.4065 39.7353V44.8093H59.7668V35.2871H61.9847L66.1891 40.3611V35.2871H68.8288Z" fill="#FC4665"/>
<path d="M75.5322 44.9997C74.5253 44.9997 73.6182 44.7866 72.8109 44.3604C72.0127 43.9342 71.3822 43.3447 70.9196 42.592C70.4661 41.8393 70.2393 40.9914 70.2393 40.0482C70.2393 39.1051 70.4661 38.2571 70.9196 37.5044C71.3822 36.7517 72.0127 36.1623 72.8109 35.736C73.6182 35.3098 74.5253 35.0967 75.5322 35.0967C76.5391 35.0967 77.4417 35.3098 78.2399 35.736C79.0472 36.1623 79.6777 36.7517 80.1312 37.5044C80.5939 38.2571 80.8252 39.1051 80.8252 40.0482C80.8252 40.9914 80.5939 41.8393 80.1312 42.592C79.6777 43.3447 79.0472 43.9342 78.2399 44.3604C77.4417 44.7866 76.5391 44.9997 75.5322 44.9997ZM75.5322 42.7688C76.013 42.7688 76.4484 42.6555 76.8384 42.4288C77.2285 42.202 77.5369 41.8846 77.7637 41.4765C77.9905 41.0594 78.1039 40.5833 78.1039 40.0482C78.1039 39.5132 77.9905 39.0416 77.7637 38.6335C77.5369 38.2163 77.2285 37.8944 76.8384 37.6677C76.4484 37.4409 76.013 37.3276 75.5322 37.3276C75.0515 37.3276 74.6161 37.4409 74.226 37.6677C73.8359 37.8944 73.5275 38.2163 73.3008 38.6335C73.074 39.0416 72.9606 39.5132 72.9606 40.0482C72.9606 40.5833 73.074 41.0594 73.3008 41.4765C73.5275 41.8846 73.8359 42.202 74.226 42.4288C74.6161 42.6555 75.0515 42.7688 75.5322 42.7688Z" fill="#FC4665"/>
</svg>
