<svg xmlns="http://www.w3.org/2000/svg" fill="none" viewBox="0 0 20 20">
  <g fill="#000" clip-path="url(#a)">
    <path d="M10.4 7.9c0 .5 0 1 .2 1.4.3-.5.8-1 1.3-1.4A3.3 3.3 0 0 1 14 4.8a1.2 1.2 0 0 0 2.2-.3 1.2 1.2 0 0 0-.7-2.2 1.1 1.1 0 0 0-1.1-.3 1.2 1.2 0 0 0-.8 1.3A4.8 4.8 0 0 0 10.4 8Z"/>
    <path d="M1.5 7.9V1.5h17v6.4a3.3 3.3 0 0 1-5.5 2.5c-.3.4-.5 1-.6 1.4A4.8 4.8 0 0 0 20 8V0H0v7.9c0 .5 0 1 .2 1.4L1.5 8Z"/>
    <path d="M14.4 18a1.1 1.1 0 0 0 1.1-.3 1.2 1.2 0 1 0 .7-2.2 1.2 1.2 0 0 0-.8-.9 1.2 1.2 0 0 0-1.4.6 3.3 3.3 0 1 1 3.4-5.6c.3-.4.5-1 .5-1.4a4.8 4.8 0 0 0-6.6 6.7c.5.8 1.4 1.4 2.3 1.8a1.2 1.2 0 0 0 .8 1.3Zm-4.8-5.9c0-.5 0-1-.2-1.4-.3.5-.8 1-1.3 1.4A3.3 3.3 0 0 1 6 15.2a1.2 1.2 0 0 0-2.3.3 1.2 1.2 0 0 0 .7 2.2 1.1 1.1 0 0 0 1.2.2 1.2 1.2 0 0 0 .8-1.3 4.8 4.8 0 0 0 3.2-4.5Z"/>
    <path d="M6.4 3.3A1.2 1.2 0 0 0 5.6 2a1.2 1.2 0 0 0-1.2.3 1.2 1.2 0 1 0-.7 2.2 1.2 1.2 0 0 0 2.2.3 3.3 3.3 0 1 1-3.3 5.6c-.3.4-.5 1-.6 1.4a4.8 4.8 0 1 0 4.4-8.5Z"/>
    <path d="M19.8 10.7 18.5 12v6.4h-17V12A3.3 3.3 0 0 1 7 9.6c.3-.4.5-1 .6-1.4A4.8 4.8 0 0 0 0 12v8h20v-8c0-.5 0-1-.2-1.4Z"/>
  </g>
  <defs>
    <clipPath id="a">
      <path fill="#fff" d="M0 0h20v20H0z"/>
    </clipPath>
  </defs>
</svg>
