<svg width="32" height="24" viewBox="0 0 32 24" fill="none" xmlns="http://www.w3.org/2000/svg">
    <path d="M6.20161 23.8622V22.2787C6.20161 21.6715 5.83202 21.2758 5.2254 21.2758C4.9068 21.2758 4.56589 21.3815 4.32821 21.7218C4.14342 21.4312 3.88216 21.2758 3.48391 21.2758C3.18314 21.2628 2.89593 21.4016 2.71926 21.6453V21.3267H2.21777V23.8603H2.71926V22.4106C2.71926 21.9646 2.98306 21.7511 3.35264 21.7511C3.72222 21.7511 3.93314 21.9888 3.93314 22.4106V23.8622H4.43462V22.4106C4.43462 21.9646 4.69843 21.7511 5.06801 21.7511C5.43759 21.7511 5.64851 21.9888 5.64851 22.4106V23.8622H6.20161ZM14.4356 21.3548H13.5117V20.5901H13.0115V21.3548H12.4839V21.8008H13.0115V22.9911C13.0115 23.5716 13.2224 23.9151 13.8558 23.9151C14.0957 23.9101 14.3308 23.8467 14.5408 23.7303L14.3821 23.2842C14.2397 23.3732 14.0746 23.4191 13.9067 23.4161C13.6429 23.4161 13.511 23.2575 13.511 22.9937V21.7804H14.435V21.358L14.4356 21.3548ZM19.1331 21.2758C18.8553 21.2696 18.5946 21.4099 18.4469 21.6453V21.3267H17.9454V23.8603H18.4469V22.4374C18.4469 22.0149 18.6578 21.7511 19.0012 21.7511C19.1171 21.7558 19.2321 21.7736 19.344 21.804L19.5027 21.3287C19.3817 21.2981 19.2578 21.2804 19.1331 21.2758ZM12.034 21.5396C11.7702 21.3548 11.4006 21.2758 11.0049 21.2758C10.3715 21.2758 9.9758 21.5663 9.9758 22.0678C9.9758 22.4903 10.2664 22.7273 10.8201 22.807L11.0839 22.8331C11.3745 22.886 11.5593 22.9918 11.5593 23.1237C11.5593 23.3085 11.3483 23.4423 10.952 23.4423C10.6494 23.4485 10.353 23.3559 10.1077 23.1785L9.84389 23.5742C10.2135 23.838 10.6621 23.8928 10.9271 23.8928C11.6663 23.8928 12.062 23.55 12.062 23.0746C12.062 22.6286 11.7434 22.4151 11.191 22.3354L10.9271 22.3093C10.6895 22.2832 10.4811 22.2035 10.4811 22.0455C10.4811 21.8607 10.692 21.7269 10.9826 21.7269C11.3012 21.7269 11.616 21.8588 11.7746 21.9378L12.034 21.5396ZM19.6875 22.5954C19.6875 23.3601 20.189 23.9151 21.0072 23.9151C21.3767 23.9151 21.6406 23.8361 21.9044 23.6245L21.6406 23.2288C21.4538 23.3801 21.2214 23.4638 20.981 23.4665C20.535 23.4665 20.189 23.1237 20.189 22.6222C20.189 22.1207 20.5305 21.7804 20.981 21.7804C21.2214 21.7831 21.4538 21.8668 21.6406 22.0181L21.9044 21.6224C21.6406 21.4115 21.3767 21.3318 21.0072 21.3318C20.2151 21.2789 19.6875 21.8333 19.6875 22.5986V22.5954ZM16.151 21.2758C15.4118 21.2758 14.9103 21.8034 14.9103 22.5954C14.9103 23.3875 15.438 23.9151 16.2032 23.9151C16.5756 23.9229 16.9391 23.8018 17.2323 23.5723L16.9685 23.2027C16.7565 23.367 16.4975 23.4594 16.2294 23.4665C15.8866 23.4665 15.517 23.2556 15.4647 22.807H17.3388V22.5961C17.3388 21.804 16.8634 21.2764 16.151 21.2764V21.2758ZM16.1249 21.7511C16.4944 21.7511 16.7583 21.9888 16.7844 22.3845H15.4125C15.4915 22.0149 15.7311 21.7511 16.1249 21.7511ZM9.28952 22.5954V21.3287H8.78804V21.6473C8.60325 21.4096 8.34199 21.2777 7.96986 21.2777C7.25746 21.2777 6.72922 21.832 6.72922 22.5973C6.72922 23.3626 7.25682 23.917 7.96986 23.917C8.33944 23.917 8.60325 23.7851 8.78804 23.5474V23.866H9.28952V22.5954ZM7.25746 22.5954C7.25746 22.1201 7.54803 21.7511 8.04951 21.7511C8.52487 21.7511 8.81416 22.1207 8.81416 22.5954C8.81416 23.0969 8.49556 23.4397 8.04951 23.4397C7.54803 23.4659 7.25746 23.0701 7.25746 22.5954ZM26.7612 21.2758C26.4833 21.2696 26.2227 21.4099 26.0749 21.6453V21.3267H25.5734V23.8603H26.0743V22.4374C26.0743 22.0149 26.2852 21.7511 26.6286 21.7511C26.7445 21.7558 26.8595 21.7736 26.9714 21.804L27.1301 21.3287C27.0091 21.2981 26.8852 21.2804 26.7605 21.2758H26.7612ZM24.8081 22.5954V21.3287H24.3066V21.6473C24.1218 21.4096 23.8606 21.2777 23.4885 21.2777C22.7761 21.2777 22.2478 21.832 22.2478 22.5973C22.2478 23.3626 22.7754 23.917 23.4885 23.917C23.858 23.917 24.1218 23.7851 24.3066 23.5474V23.866H24.8081V22.5954ZM22.7761 22.5954C22.7761 22.1201 23.0666 21.7511 23.5681 21.7511C24.0435 21.7511 24.3328 22.1207 24.3328 22.5954C24.3328 23.0969 24.0142 23.4397 23.5681 23.4397C23.0666 23.4659 22.7761 23.0701 22.7761 22.5954ZM29.902 22.5954V20.3257H29.4005V21.6453C29.2157 21.4077 28.9544 21.2758 28.5823 21.2758C27.8699 21.2758 27.3417 21.8301 27.3417 22.5954C27.3417 23.3607 27.8693 23.9151 28.5823 23.9151C28.9519 23.9151 29.2157 23.7832 29.4005 23.5455V23.8641H29.902V22.5954ZM27.8699 22.5954C27.8699 22.1201 28.1605 21.7511 28.662 21.7511C29.1373 21.7511 29.4266 22.1207 29.4266 22.5954C29.4266 23.0969 29.108 23.4397 28.662 23.4397C28.1598 23.4665 27.8693 23.0708 27.8693 22.5954H27.8699Z" fill="black"/>
    <path d="M20.6121 2.11548H11.4541V17.0529H20.6121V2.11548Z" fill="#FF5F00"/>
    <path d="M12.3776 9.58419C12.3782 6.67295 13.71 3.9218 15.9931 2.11546C12.098 -0.947056 6.50331 -0.501891 3.14148 3.13805C-0.220339 6.778 -0.220339 12.3904 3.14148 16.0303C6.50331 19.6703 12.098 20.1154 15.9931 17.0529C13.71 15.2466 12.3782 12.4954 12.3776 9.58419Z" fill="#EB001B"/>
    <path d="M31.3802 9.58413C31.3828 13.2192 29.309 16.5365 26.0401 18.1263C22.7711 19.7162 18.8813 19.2993 16.0234 17.0529C18.3071 15.247 19.6391 12.4955 19.6391 9.58413C19.6391 6.67271 18.3071 3.92129 16.0234 2.1154C18.8813 -0.13105 22.7711 -0.547917 26.0401 1.04194C29.309 2.63179 31.3828 5.94906 31.3802 9.58413Z" fill="#F79E1B"/>
</svg>
