<svg xmlns="http://www.w3.org/2000/svg" fill="none" viewBox="0 0 20 20">
  <g clip-path="url(#a)">
    <path fill="#8DBF64" d="m10.1 14.8 3.3 3.3H6.9l3.2-3.3Z"/>
    <path fill="#6EB57A" d="M10.1 14.8v3.3H7l3.2-3.3Z"/>
    <path fill="#8DBF64" d="m15.6 9.2 4.4 4.4-4.4 4.4-4.3-4.4 4.3-4.4Z"/>
    <path fill="#6AB477" d="M15.6 13.6H20L15.6 18l-4.3-4.4h4.3Z"/>
    <path fill="#6EB57A" d="M15.6 9.2V18l-4.3-4.4 4.3-4.4Z"/>
    <path fill="#51906B" d="M13.6 13.6h2V18l-4.3-4.4h2.3Z"/>
    <path fill="#fff" d="m14.6 13.6.6-.4c.3-.3.4-.7.4-.7a2 2 0 0 0 1.1 1.1s-.3 0-.6.4l-.5.7-.3-.6-.7-.5Z"/>
    <path fill="#000" d="m15.6 10.7 3 3-3 2.8-2.9-2.9 3-2.9Zm0 1-1.8 2 1.8 1.7 1.9-1.8-1.9-1.8Z"/>
    <path fill="#8DBF64" d="m4.4 9.2 4.3 4.4L4.4 18 0 13.6l4.4-4.4Z"/>
    <path fill="#6AB477" d="M4.4 13.6h4.3L4.4 18 0 13.6h4.4Z"/>
    <path fill="#6EB57A" d="M4.4 9.2V18L0 13.6l4.4-4.4Z"/>
    <path fill="#51906B" d="M2.3 13.6h2V18L0 13.6h2.3Z"/>
    <path fill="#fff" d="m3.3 13.6.6-.4c.4-.3.5-.7.5-.7a2 2 0 0 0 1 1.1s-.3 0-.6.4l-.4.7L4 14c-.3-.4-.7-.5-.7-.5Z"/>
    <path fill="#000" d="m4.4 10.7 2.9 3-3 2.8-2.9-2.9 3-2.9Zm0 1-1.9 2 1.9 1.7 1.8-1.8-1.8-1.8Z"/>
    <path fill="#8DBF64" d="m10 1 5.8 5.8-5.7 5.8-5.7-5.8L10 1Z"/>
    <path fill="#6AB477" d="M10 6.8h5.8L10 12.6 4.4 6.8H10Z"/>
    <path fill="#6EB57A" d="M10 1v11.6L4.5 6.8 10 1Z"/>
    <path fill="#51906B" d="M7.4 6.8H10v5.8L4.4 6.8h3Z"/>
    <path fill="#fff" d="m8.7 6.8.8-.6.6-.8s.1.4.5.8.9.6.9.6-.4.1-.9.6c-.4.4-.5.8-.5.8l-.5-.8c-.4-.5-1-.6-1-.6Z"/>
    <path fill="#000" d="m10 3.1 3.7 3.7-3.6 3.6-3.7-3.6L10.1 3Zm0 1.1L7.6 6.8l2.6 2.5 2.5-2.5-2.5-2.6Z"/>
  </g>
  <defs>
    <clipPath id="a">
      <path fill="#fff" d="M0 0h20v20H0z"/>
    </clipPath>
  </defs>
</svg>
