<svg xmlns="http://www.w3.org/2000/svg" fill="none" viewBox="0 0 20 20">
  <g fill="#3D263A" clip-path="url(#a)">
    <path d="m8.6 13.8-1.3-3.5v-.7h1.1V7.3H7v6.5H6V6.3h2.9c.4 0 .7.2.7.7v2.7c0 .4-.3.7-.7.7h-.4l1.2 3.3H8.6Zm2.4 0h2.4c.5 0 .7-.3.7-.7V9.8h-2v1h.9v2h-1.5V7.3H13v1.3h1.1V7c0-.5-.2-.7-.7-.7h-2.3c-.5 0-.7.2-.7.7v6c0 .5.2.8.7.8Z"/>
    <path fill-rule="evenodd" d="M20 8.8a10 10 0 0 0-1-3.4c-3-.7-5.5-2.6-6.9-5.2a10.1 10.1 0 0 0-4.3 0 10.1 10.1 0 0 1-6.7 5.1C.5 6.3 0 7.5 0 8.7a10 10 0 0 1 2.8 8.5 10 10 0 0 0 2.9 2 10 10 0 0 1 8.6 0 8.4 8.4 0 0 0 3-2.2A10 10 0 0 1 20 8.8Zm-10 8.7a7.4 7.4 0 1 1 0-14.8 7.4 7.4 0 0 1 0 14.8Z" clip-rule="evenodd"/>
  </g>
  <defs>
    <clipPath id="a">
      <path fill="#fff" d="M0 0h20v20H0z"/>
    </clipPath>
  </defs>
</svg>
