<?xml version="1.0" standalone="no"?>
<!DOCTYPE svg PUBLIC "-//W3C//DTD SVG 20010904//EN"
 "http://www.w3.org/TR/2001/REC-SVG-20010904/DTD/svg10.dtd">
<svg version="1.0" xmlns="http://www.w3.org/2000/svg"
 width="1088.000000pt" height="1088.000000pt" viewBox="0 0 1088.000000 1088.000000"
 preserveAspectRatio="xMidYMid meet">
<metadata>
Created by potrace 1.14, written by Peter Selinger 2001-2017
</metadata>
<g transform="translate(0.000000,1088.000000) scale(0.100000,-0.100000)"
fill="#000000" stroke="none">
<path d="M7440 10861 c-56 -18 -132 -54 -157 -74 -75 -63 -135 -157 -148 -235
-4 -20 -9 -50 -11 -65 -9 -50 -33 -95 -71 -135 -39 -39 -102 -80 -131 -85 -66
-10 -190 -106 -247 -191 -30 -44 -64 -125 -72 -171 -7 -44 -9 -205 -2 -205 3
0 6 -6 7 -12 2 -41 46 -149 74 -184 52 -66 178 -174 203 -174 14 0 79 -68 102
-107 38 -65 33 -126 -15 -185 -120 -148 -250 -260 -377 -323 -33 -16 -61 -33
-63 -37 -2 -5 -7 -8 -12 -8 -5 0 -21 -5 -37 -12 -15 -6 -32 -12 -38 -14 -5 -1
-45 -14 -88 -28 -43 -14 -81 -25 -85 -25 -4 1 -9 0 -12 -1 -3 -1 -16 -4 -30
-5 -14 -2 -36 -6 -50 -9 -32 -8 -253 -10 -300 -2 -19 3 -53 8 -75 11 -42 7
-70 15 -170 47 -65 21 -101 35 -125 49 -8 5 -22 12 -30 15 -8 3 -22 10 -30 15
-8 5 -22 12 -30 16 -56 26 -167 107 -243 180 -40 38 -48 51 -45 76 3 28 12 36
91 77 182 94 262 221 261 415 0 78 -10 133 -26 152 -6 7 -8 13 -4 13 3 0 -6
23 -21 52 -62 116 -202 216 -328 235 -32 4 -118 4 -140 -1 -62 -13 -82 -20
-103 -33 -32 -20 -69 -26 -77 -13 -4 6 -8 39 -10 74 -4 84 -12 121 -45 187
-71 145 -189 232 -345 256 -160 24 -327 -52 -417 -189 -105 -160 -102 -340 8
-527 30 -51 22 -67 -36 -75 -61 -8 -135 -35 -167 -61 -7 -5 -30 -23 -51 -40
-46 -36 -133 -161 -132 -190 0 -3 0 -6 -1 -7 -9 -32 -12 -58 -15 -135 -3 -98
16 -171 67 -258 27 -45 117 -135 136 -135 7 0 13 -4 13 -9 0 -5 32 -21 71 -36
81 -31 184 -38 262 -18 42 10 54 10 78 -3 33 -16 39 -44 25 -101 -3 -13 -8
-33 -11 -45 -19 -88 -92 -261 -144 -343 -42 -66 -112 -157 -160 -208 -57 -60
-201 -177 -218 -177 -7 0 -13 -4 -13 -10 0 -5 -4 -10 -10 -10 -5 0 -30 -13
-56 -30 -26 -16 -51 -27 -55 -24 -5 3 -9 0 -9 -5 0 -6 -5 -11 -11 -11 -6 0
-25 -6 -42 -14 -67 -28 -88 -36 -144 -50 -32 -8 -78 -18 -103 -21 -25 -4 -56
-8 -70 -10 -39 -7 -221 -7 -265 0 -145 20 -261 52 -310 85 -16 11 -26 20 -21
20 5 0 1 9 -10 21 -28 31 -26 157 3 219 12 25 22 48 23 52 0 4 7 23 15 43 45
106 36 265 -22 385 -35 70 -36 72 -109 145 -34 34 -83 73 -110 87 -107 55
-249 71 -359 41 -61 -18 -137 -17 -181 2 -18 7 -35 11 -38 7 -3 -3 -6 0 -6 6
0 7 -6 12 -13 12 -8 0 -36 23 -62 51 -66 69 -147 121 -215 137 -44 10 -175 5
-216 -8 -92 -29 -133 -53 -150 -88 -24 -50 -13 -91 48 -178 29 -41 58 -83 63
-92 6 -9 13 -19 16 -22 3 -3 26 -34 50 -70 24 -36 54 -78 66 -95 12 -16 83
-118 157 -225 74 -107 139 -199 143 -205 5 -5 65 -91 133 -190 69 -99 133
-189 142 -199 10 -11 18 -25 18 -32 0 -7 4 -14 8 -16 4 -1 33 -39 63 -83 29
-44 56 -82 59 -85 3 -3 25 -34 49 -70 24 -36 47 -67 50 -70 4 -3 24 -32 46
-65 21 -33 42 -61 47 -63 4 -2 8 -8 8 -14 0 -9 14 -28 60 -85 6 -7 10 -17 10
-23 0 -5 4 -10 8 -10 4 0 16 -15 27 -32 17 -31 71 -107 95 -135 5 -7 10 -16
10 -21 0 -5 9 -17 20 -27 11 -10 20 -24 20 -32 0 -7 4 -13 8 -13 4 0 16 -15
27 -32 10 -18 23 -37 28 -43 8 -9 160 -226 189 -269 7 -10 31 -44 53 -75 22
-31 53 -75 69 -98 16 -24 31 -43 35 -43 3 0 41 53 83 118 75 117 165 240 214
294 13 15 24 30 24 33 0 3 8 13 18 23 9 10 49 54 87 97 88 98 163 173 261 261
42 38 87 79 100 92 13 12 26 22 29 22 4 0 23 16 43 35 20 19 42 35 49 35 7 0
16 6 20 13 11 17 120 97 133 97 5 0 10 4 10 8 0 5 12 15 28 23 15 8 29 17 32
20 12 14 263 159 355 204 55 28 103 54 106 58 3 5 8 8 10 7 5 -2 44 13 99 38
25 12 72 32 105 45 33 13 69 28 80 32 11 5 22 9 25 9 3 1 25 9 50 18 63 23
240 79 270 84 14 3 48 11 75 19 28 8 61 16 75 19 14 2 75 14 135 26 61 12 128
23 150 25 22 1 56 6 75 9 208 38 816 38 1075 0 17 -2 51 -6 76 -8 26 -3 75
-10 110 -17 35 -6 73 -13 84 -14 75 -11 364 -82 415 -102 8 -3 24 -8 35 -10
11 -2 27 -6 35 -10 21 -8 31 -12 60 -19 l25 -5 2 303 c0 167 2 337 3 378 1 41
1 80 0 85 -2 6 -1 15 0 20 2 10 11 846 13 1325 1 150 6 248 12 252 7 5 6 8 -1
8 -9 0 -10 25 -3 105 1 17 -1 40 -5 53 -4 12 -3 22 2 22 5 0 7 12 5 28 -2 15
-4 41 -3 57 5 204 4 405 -3 426 -22 70 -94 92 -197 60z"/>
<path d="M6217 7364 c-2 -3 -58 -7 -123 -9 -161 -7 -287 -17 -369 -30 -16 -3
-41 -7 -55 -9 -25 -4 -123 -22 -170 -31 -14 -3 -36 -7 -50 -10 -20 -4 -142
-37 -285 -79 -5 -2 -23 -6 -40 -11 -16 -4 -34 -11 -40 -15 -5 -3 -30 -13 -55
-20 -25 -7 -49 -17 -55 -20 -5 -4 -32 -15 -60 -25 -97 -36 -340 -153 -443
-214 -29 -17 -57 -31 -62 -31 -6 0 -10 -4 -10 -9 0 -5 -13 -14 -29 -21 -16 -6
-38 -20 -50 -31 -12 -11 -21 -17 -21 -14 0 5 -108 -70 -137 -95 -7 -5 -16 -10
-22 -10 -5 0 -11 -3 -13 -7 -1 -5 -37 -35 -78 -67 -200 -159 -400 -356 -546
-541 -21 -27 -43 -55 -49 -62 -21 -25 -31 -39 -55 -75 -14 -21 -28 -38 -32
-38 -5 0 -8 -5 -8 -12 0 -6 -11 -26 -25 -44 -14 -18 -25 -37 -25 -42 0 -6 -3
-12 -8 -14 -9 -4 -92 -136 -92 -148 0 -5 -6 -15 -13 -22 -21 -20 -167 -315
-160 -322 4 -3 1 -6 -5 -6 -7 0 -12 -7 -12 -15 0 -8 -4 -23 -10 -33 -18 -33
-68 -159 -75 -190 -3 -18 -11 -32 -17 -32 -6 0 -8 -7 -5 -15 4 -8 2 -17 -2
-19 -5 -3 -12 -20 -16 -38 -4 -18 -9 -37 -11 -43 -5 -17 -33 -112 -49 -167 -8
-29 -17 -64 -20 -78 -3 -14 -7 -36 -10 -50 -3 -14 -8 -36 -11 -50 -2 -14 -7
-36 -10 -50 -7 -29 -12 -60 -18 -110 -3 -19 -5 -35 -6 -35 -1 0 -3 -13 -5 -30
-1 -16 -5 -55 -9 -85 -15 -126 -17 -149 -21 -233 -2 -48 -6 -91 -8 -95 -3 -4
-1 -16 3 -27 4 -11 4 -29 0 -41 -5 -11 -4 -27 0 -34 5 -8 5 -21 0 -31 -5 -9
-7 -19 -4 -22 4 -3 8 -55 9 -114 2 -59 6 -135 9 -168 13 -132 22 -209 31 -255
3 -14 8 -43 10 -65 3 -22 8 -48 11 -57 3 -9 7 -27 10 -40 5 -22 8 -36 18 -90
18 -87 107 -376 141 -453 7 -16 23 -55 35 -85 30 -74 152 -316 195 -388 97
-163 277 -423 296 -430 5 -2 9 -8 9 -12 0 -5 10 -20 22 -33 13 -13 41 -45 63
-72 37 -45 247 -258 326 -331 19 -17 77 -64 129 -105 52 -40 97 -77 100 -80 8
-9 297 -199 303 -199 4 0 22 -11 42 -24 86 -59 573 -283 650 -300 6 -2 57 -18
115 -36 58 -19 110 -35 115 -36 6 -1 39 -10 75 -19 36 -9 74 -19 85 -20 30 -5
78 -15 95 -20 8 -3 33 -7 55 -10 22 -3 67 -11 100 -17 33 -5 79 -12 101 -14
23 -2 55 -6 70 -8 131 -24 613 -25 797 -2 15 2 55 7 90 11 34 3 69 8 77 10 8
2 35 7 60 10 25 3 52 8 60 10 8 2 31 7 50 11 46 8 65 12 65 14 0 1 11 3 25 5
14 2 36 6 50 10 14 3 30 7 35 8 6 2 16 6 23 10 6 5 12 6 12 4 0 -3 44 8 98 24
53 17 104 32 112 34 8 2 60 20 115 40 55 21 115 42 133 48 17 6 32 14 32 19 0
4 7 8 16 8 29 0 305 140 459 233 45 28 290 190 295 196 3 3 23 20 45 36 133
99 363 312 480 445 61 69 128 150 144 174 8 12 17 23 20 26 9 8 82 109 116
160 17 25 32 47 35 50 11 10 44 65 41 69 -1 2 2 7 7 10 5 3 29 39 53 80 l44
74 0 1124 c0 617 -2 1124 -5 1124 -17 4 -2650 3 -2652 -1 0 -3 -2 -321 -3
-707 -1 -493 2 -703 9 -706 6 -2 144 -3 308 -3 261 1 295 -1 288 -14 -20 -34
-156 -167 -247 -241 -36 -30 -139 -96 -194 -125 -30 -16 -56 -31 -59 -35 -7
-8 -175 -69 -204 -75 -14 -2 -37 -9 -51 -14 -14 -5 -25 -7 -25 -5 0 2 -10 1
-23 -4 -13 -5 -48 -12 -78 -16 -30 -4 -65 -9 -79 -11 -70 -10 -384 -3 -396 9
-4 4 -21 7 -38 7 -17 0 -74 12 -126 25 -52 14 -102 27 -110 30 -8 2 -16 4 -17
5 -2 2 -6 3 -10 5 -34 9 -131 55 -175 82 -21 13 -38 21 -38 17 0 -3 -13 5 -29
18 -16 12 -41 31 -57 40 -41 25 -68 42 -74 48 -3 3 -32 28 -65 55 -73 61 -134
128 -213 230 -56 73 -152 261 -190 370 -17 50 -24 73 -37 125 -47 186 -50 443
-9 660 34 181 116 380 220 538 55 81 198 236 257 277 16 11 41 30 55 42 15 13
33 23 40 23 6 0 12 4 12 8 0 5 18 17 40 27 22 10 40 22 40 27 0 4 5 8 12 8 6
0 38 13 72 29 34 15 90 38 126 51 36 12 72 25 80 28 17 6 17 6 93 22 32 6 70
13 85 14 15 1 32 4 37 7 12 6 300 3 365 -4 55 -6 98 -14 173 -32 12 -3 33 -8
47 -10 47 -9 55 -11 65 -16 6 -3 51 -18 100 -34 123 -38 255 -102 348 -169 43
-31 81 -56 85 -56 4 0 26 28 49 63 23 34 77 110 120 169 43 58 85 116 93 128
8 12 22 30 30 40 8 11 44 61 80 112 35 51 70 97 77 101 7 4 13 12 13 18 0 5
26 45 58 88 31 44 64 89 72 101 8 13 20 28 25 34 6 6 19 24 29 41 11 16 23 34
28 40 5 5 47 64 93 130 46 66 90 127 98 135 14 15 174 239 192 268 6 9 15 21
20 28 6 6 18 22 27 35 9 13 46 65 81 114 36 50 63 93 60 97 -9 16 -162 128
-254 185 -53 34 -147 86 -209 117 -62 31 -118 60 -124 64 -6 4 -13 7 -16 8 -7
1 -58 22 -95 39 -74 34 -262 104 -295 110 -3 1 -43 13 -90 28 -47 15 -94 29
-105 31 -11 2 -54 14 -95 25 -41 11 -86 22 -100 25 -14 3 -63 12 -110 21 -47
9 -98 19 -115 21 -92 12 -124 16 -160 19 -91 8 -205 16 -282 20 -46 2 -87 7
-93 10 -5 3 -10 3 -10 -2 0 -8 -114 -7 -137 1 -6 3 -13 2 -16 0z"/>
</g>
</svg>
