<svg xmlns="http://www.w3.org/2000/svg" fill="none" viewBox="0 0 20 20">
  <path fill="#BA1218" d="M11.3 14.7v-.3l.3.1s2.7.7 4-.5c1.4-1.1 1.8-3.8.2-6.5a24.5 24.5 0 0 0-6.2-5.8C9 2.2 5 4.9 3.5 7.5c-1.7 2.7-1.2 5.4 0 6.5 1.4 1.2 4.1.5 4.1.5H8v.2s.2 1.6-1 2.8c-.9 1-2.4 1.6-4.4 1.6v.9c2.3 0 4-.6 5.1-1.9C9 16.6 9 14.8 9 14.6l-.2-1.3-1.3.3c-.6.2-2.4.5-3.2-.3-1-.9-1.3-3 0-5.4 1.3-2 4.2-4.2 5.4-5.1 1.3.9 4.1 3 5.4 5.1 1.4 2.3 1 4.5 0 5.4-.7.8-2.6.5-3.2.3l-1.3-.3v1.3c-.1.2-.2 2 1.2 3.6 1 1.2 2.8 1.8 5 1.8v-1c-2 0-3.4-.5-4.4-1.5-1.1-1.2-1-2.7-1-2.8Z"/>
  <path fill="#BA1218" d="M16.6 15c1.7-1.5 2.4-4.9.3-8.3A26.2 26.2 0 0 0 10.2.4L9.6 0 9 .4c-.2.2-4.8 3.2-6.7 6.3-2 3.4-1.4 6.8.4 8.3 1 1 2.5 1.1 3.6 1l-.4.6c-.7.7-1.8 1-3.4 1v1c1.9 0 3.3-.5 4.1-1.4.7-.8.9-1.8.9-2.2-.8.1-3 .5-4.2-.7-1.5-1.3-2-4.2-.2-7.1 1.8-3 6.2-6 6.4-6l.1-.1h.2c.2.2 4.6 3.1 6.4 6 1.8 3 1.2 6-.2 7.2-1.3 1.2-3.4.8-4.2.7 0 .4.1 1.4.9 2.2.8 1 2.2 1.4 4 1.4v-1c-1.5 0-2.7-.3-3.3-1l-.4-.5c1 0 2.5-.1 3.6-1Z"/>
</svg>
