<svg xmlns="http://www.w3.org/2000/svg" fill="none" viewBox="0 0 20 20">
  <g clip-path="url(#a)">
    <path fill="url(#b)" fill-rule="evenodd" d="M.8 0H10c.6 0 1 0 1.6.2 3.4 1 6 3.2 7.5 6.4.1.2.3.4.1.6-.2.2-.4 0-.5-.2-1-.5-2.1-1-3.3-1-3-.3-6-.1-8.9-.2-.3 0-.5.2-.5.5 0 .6.3.7.8.7A2168 2168 0 0 1 17 7a2.8 2.8 0 0 1 2.3 2.9v9.3c0 .8 0 .8-.8.8h-8.2c-4 0-8.4-3-10-6.8 0-.1-.2-.3 0-.5.1-.1.3 0 .5.2 1 .7 2.2 1.1 3.6 1.1h8.4c.3 0 .6 0 .6-.5 0-.4-.3-.5-.7-.5H2.6A3 3 0 0 1 0 10.1V.8A.8.8 0 0 1 .8 0Z" clip-rule="evenodd"/>
  </g>
  <defs>
    <linearGradient id="b" x1="19.2" x2="0" y1="12.6" y2="7.4" gradientUnits="userSpaceOnUse">
      <stop stop-color="#34BCD5"/>
      <stop offset="1" stop-color="#A1509E"/>
    </linearGradient>
    <clipPath id="a">
      <path fill="#fff" d="M0 0h20v20H0z"/>
    </clipPath>
  </defs>
</svg>
