<svg xmlns="http://www.w3.org/2000/svg" fill="none" viewBox="0 0 20 20">
  <g fill="#000" fill-rule="evenodd" clip-path="url(#a)" clip-rule="evenodd">
    <path d="M2 12.7v-1h2.7v1.2c0 1 .5 1.6 1.3 1.6s1.2-.5 1.2-1.6a3 3 0 0 0-.5-1.7c-.3-.6-.8-1-1.3-1.5L4.1 8.3c-.6-.5-1-1-1.4-1.8a5 5 0 0 1-.6-2.4 4 4 0 0 1 1.1-3C3.9.4 4.9 0 6.1 0s2.1.4 2.8 1a5 5 0 0 1 1 3.1v.6H7.3V4c0-1.1-.5-1.6-1.3-1.6-1 0-1.4.5-1.4 1.6 0 .4.1.9.3 1.3a13.4 13.4 0 0 0 1.7 2 25.6 25.6 0 0 1 2.1 2.2 5.2 5.2 0 0 1 1 3.2c0 1.4-.3 2.4-1 3-.6.8-1.5 1.2-2.8 1.2A4 4 0 0 1 3 15.8c-.7-.7-1-1.8-1-3Zm12-4.6h1.2c.4 0 .7 0 1-.3l.2-1.2V4c0-.6 0-1-.3-1.2-.2-.2-.5-.4-1-.4H14V8Zm-2.7 8.6V.2h3.9c2.5 0 3.8 1.3 3.8 4v2.2c0 2.7-1.2 4-3.8 4h-1.3v6.3h-2.6ZM2 20h17v-2.3H2V20Z"/>
  </g>
  <defs>
    <clipPath id="a">
      <path fill="#fff" d="M0 0h20v20H0z"/>
    </clipPath>
  </defs>
</svg>
