<svg xmlns="http://www.w3.org/2000/svg" fill="none" viewBox="0 0 3185 2373">
  <path fill="#000" d="M2708.2 520.2V783h-179.9V89.3c5.9-.3 11.7-.9 17.5-.9 86 0 171.8-.9 257.7.5a371 371 0 0 1 85.3 10.5c117.3 29.6 159.6 120.3 151.7 223.4-3.8 50.1-21.8 94.6-59 130-25.5 24.3-56.5 38.2-93.3 45.9l218.4 283.6c-7.1.6-11.7 1.3-16.3 1.3-64.3 0-128.6-.3-192.9.4-11.7 0-17.8-4.3-23.7-13.6-50.1-79-100.5-157.7-151.2-236.4l-10-14.8-4.3 1Zm.4-294.4c0 56.5 0 111.7.3 166.8a11.3 11.3 0 0 0 8 7.8c34.2 0 68.8 0 99.7-18 49.9-28.6 49.9-110.9-.2-139-32.9-18.7-69.3-19-107.8-17.6ZM857.3 88.4v22.4c0 118.5-.3 237.1.4 355.7.1 26 2.3 52 6.6 77.8 13.3 80.3 65.9 107.9 140.2 98.6 56.8-7 88.5-43 96.1-106.1 3.4-29.1 5-58.5 5-87.8.6-113 .3-226 .3-339.1 0-21.4 0-21.4 22-21.4h158.7v17l-.3 400.5c0 47.3-3.6 94.2-20.6 138.9-30 78.6-90.6 122.2-169.6 142.7C1006.9 811 918 809 831.6 776 741.8 741.7 693.4 674 682 579.8a723 723 0 0 1-5-84.5c-.5-130.2-.3-260.5-.3-390.7 0-7.3-2.1-16.2 10.6-16.1h170Zm547.2 0h278.7a340 340 0 0 1 115.9 17.8c75.8 27.2 119 81.7 131.9 160.6a337 337 0 0 1-3.8 125.4c-18.9 87-78.2 143-169.4 154.3-49.2 6-99.4 4.7-149.1 6.6-7.7.3-15.3 0-25.4 0v229.4h-178.8V88.4ZM1583.3 320v74.7c0 8.3 1.3 14 11.6 13.3 28.2-1.5 56.6-.7 84.4-4 38.5-4.6 59.9-24.7 65.1-60 2-16 1.9-32-.6-47.9-4.5-32.8-24.6-53.6-57.1-57.9-30.6-4-61.7-3.8-92.6-5.6-9.1-.5-11 4.9-10.8 12.6V320ZM76.2 724.3l77.3-144.7c18.2 12.8 34.7 25.9 52.6 36.7 40.6 24.8 84.2 40.2 132.6 31a105 105 0 0 0 40.7-17.3c34-24.6 34.2-72.6-1-95.5-20.4-13.3-44.5-21.7-67.7-30.1-29.1-10.6-59.3-18.1-88.5-28.2-76.9-26.6-115.3-80.3-117.8-162.4-3.3-101.2 45.5-185.6 133.3-223.4a269.7 269.7 0 0 1 125-20.6 481.4 481.4 0 0 1 186.7 49c4.3 2.2 8.5 4.9 14 8a175286 175286 0 0 0-68.7 133.6c-31.6-13-60.8-27.2-91.5-36.6a100.7 100.7 0 0 0-76 6.6c-19.6 10-33.6 24.4-34.3 47.2-.6 21.6 11.5 37.6 30 46.4 22.8 10.8 47 18.9 70.8 27.6 31.1 11.5 63.4 20 93.4 34 73.6 34 109.5 92.5 104.9 174-1 24.3-4 48.5-9 72.3a193.6 193.6 0 0 1-116 138.8c-138.2 60.6-266.4 30.5-391-46.4Zm1941.3 57.9V89.3h395.2v150.5h-214.1v118h203.3v152.4h-203.4v120.5h213.8v151.6l-394.8-.1ZM309.7 2020.9h-63.4v-62h157.3c11.1 88.1-39.2 160.3-111.5 178.3-93.5 23.3-183.5-22.1-208.1-106.6-27.1-93.1 16.6-184.7 101.1-212.4 86.5-28.3 176.3 6 202.9 78l-74.4 31.2-7.6-12.7a72.6 72.6 0 0 0-116.4-13.8c-37 38.3-38 111.7-1.9 150.8a79.4 79.4 0 0 0 89.8 18.8 50.9 50.9 0 0 0 32.2-49.6Zm821.9 121.8-90.7-.3-23-58.6H894.2l-19.7 58.5s-54.4.5-76.3.5h-14.7c2.4-7.3 4-13.2 6.1-19 38.6-99.7 121.4-315.5 121.4-315.5l94.5.8 126 333.6Zm-173.4-233.8-36.5 108.8h73.1l-36.6-108.8Zm2137.6-73.1-30.6 59.4c-15.9-5.6-30.5-11.7-45.7-16-7-1.3-14.3-1-21.2.7-12.9 2.5-23.3 9.4-24.5 23.3-1.3 13.8 8.6 21.1 20 25.5 15.4 5.8 31.3 10.5 47 15.8 46.1 15.6 67.4 41.3 68 81.5.7 52.9-21 87.3-65.8 104.4-51.7 19.7-124.2 8.4-165.8-26.4l31.6-59c23 9.3 44.6 18.3 66.5 26.6 4.8 1.2 10 1.3 14.8.2 19.7-2.4 31.6-12 33.5-26.6 2.3-18.7-10-27.1-24.6-32.7-14.6-5.6-29.4-9.6-44.1-14.4-46.6-15.2-63.7-34.8-65.2-74.8-1.9-50.3 19.4-88 61.3-103.7 49.9-18.6 96.8-5.9 144.8 16.2Zm-245.6-548.5c-1.7 107.6-83.4 191-186 189.8-105.6-1.3-185.3-87.8-183.4-199.1 1.6-91 89.8-169.8 188.6-168 99.8 1.8 182.3 82.5 180.8 177.3ZM918.4 1110c99.4.2 184.7 80.5 184.7 174 0 107.5-81.6 192.8-185 193.2-103.3.3-186.2-86.5-185.6-194.3.7-93.4 86.4-173.2 185.9-173Z"/>
  <path fill="#000" fill-rule="evenodd" d="M3107.6 890v809.5H77.8V890h3029.8ZM1623 1621.4V1110h139.4V967.3h-452V1111h139.7v510s116.3.4 172.9.4Zm509.4-.6-.3-510.5 122.5.2h18.6V967h-453.8c0 45.6.6 143 .6 143l141.6.6V1621l170.8-.1Zm-1976.1-.7h375v-144.3H327.4V967h-171v653Zm1118.9-325a351.5 351.5 0 1 1-703-.1 351.5 351.5 0 0 1 703 0Zm-537 0a185.4 185.4 0 1 0 370.8 0 185.4 185.4 0 0 0-370.8 0Zm1927 351.4a351.5 351.5 0 1 0 .1-703 351.5 351.5 0 0 0 0 703Zm0-166a185.4 185.4 0 1 1 0-370.9 185.4 185.4 0 0 1 0 370.8Z" clip-rule="evenodd"/>
  <path fill="#000" d="M1767 2372.8h-94.9l59.1-370.4h97.7l77 197.8 77-197.8h97.6l59 370.4h-94.8l-32.6-220.1-85.6 220.1h-41.4l-85.5-220.1-32.6 220.1Zm791.9-.8v-368.8h207v78.8h-111.6v64.4h111.6v80.5h-111.6v64.4h111.6v80.6h-207Z"/>
</svg>
