<svg xmlns="http://www.w3.org/2000/svg" fill="none" viewBox="0 0 80 80">
  <path fill="#FFA700" d="m40.4 80-5.1-.3a772.6 772.6 0 0 1-6.4-.5L16.5 68.9l-5.3-4.5-.4-.5-3.6-11.1c-.5-1.4-.8-3-1.1-4.4L4 40v-.7l1.3-4.6L10.7 16l.1-.5c0-.5.3-.7.6-.9l.3-.2c2.9-2.6 5.7-5.3 8.7-7.8L24 3.8A790.8 790.8 0 0 1 29.3 0a10439.9 10439.9 0 0 1 22.4.1l9.1 7c1 .7 2 1.7 3 2.6a1920.3 1920.3 0 0 1 6 5.9l6.7 23.1c.4.7.2 1.3 0 1.9l-2.8 11.7-1.3 4-2.5 7.7-.4.5-17.1 14.3c-.5.4-1 .6-1.6.7l-5 .2-4.9.3h-.5Zm11-23.6L58 66.8v-.1l2.1-4v-.3l.2-1.8c0-1.9.2-3.8.3-5.6l.1-2.8-.2.1-6.7 2.1-.2.1-2.2 1.9ZM20 52.2l.2 2.7.4 7.3v.6a519.6 519.6 0 0 0 2.2 4l6.6-10.4-2.3-1.9H27l-5-1.7-2-.6Zm-2.5-8.9.2-.2 4-5.7c.3-.4.5-.9.6-1.5l.6-2.2-10.7-4 .4 4.5.2.7c1 2 2.2 4 3.3 5.9l1.4 2.5Zm45.7 0 4.8-8.6.1-.3.2-1.8.2-2.9-10.7 4 .8 3 .2.2 4.3 6.2.1.2Zm-5.8 24-6.6-10.5-2.3 2-.2.2-3.7 6.5-.1.2h.1a1577.4 1577.4 0 0 0 8.8 2.5l2.8-.7 1.2-.3Zm-21.1-1.6v-.2l-4-6.5-.1-.1-2.3-2-6.6 10.4h.1l3.5 1h.7l7.2-2 1.4-.5Zm14-49.8v-.2L44.7 8l-.3-.2L41 6.1h-.2v12.7h3l3.1-1.4 3.5-1.5ZM40 19V6l-.2.1a438.3 438.3 0 0 0-4 2.1l-5.2 7.3-.3.3.3.2 6 2.6.6.2H40Zm28.3 10-.2-.3-2.4-3c-.1-.2-.3-.4-.5-.4l-6.2-3-2-.8v.3l-.3 7.4.1 1.1.6 2.1.2.4 10.7-4Zm-45.1 4 .8-3v-.4l-.2-6.4v-1.6h-.2l-8.2 3.7-.3.3-2.4 3.1-.2.3 10.7 4Zm17.5 8v13.6h8.7L40.7 41Zm-9.3 13.6H40V41l-8.6 13.6Zm9.3-33v16.8l7-11-7-5.9ZM40 38.3V21.5l-7 5.9 7 11Zm10 15.8c1-3.1 1.8-6.3 2.7-9.4l-11.3-4.2L50 54.2Zm-19.3 0c3-4.5 5.8-9 8.6-13.5v-.1L28 44.8c1 3.1 1.8 6.3 2.7 9.4Zm-5.3-20.5 13.9 5.1-7-11c-2.2 2-4.5 4-6.9 5.9Zm23-5.8-7 10.9 14-5.1-7-5.8ZM39 39.7l-14-5.2 2.7 9.4L39 39.7Zm2.8 0L53 44l2.6-9.4-13.8 5.2Zm28.6-7.8L69 34.8l-.1.3-.4 4-.4 5.6-.4 4 .2-.2 4.8-5.2v-2.5a1210.5 1210.5 0 0 0-.4-6.4l-1.8-2.5ZM13.1 48.7l-.1-1.8-1-11.2c0-.6-.1-1-.4-1.5l-1.2-2.1-.1-.2-1.7 2.5-.1.3a1466 1466 0 0 0-.3 8.6l3.2 3.5 1.7 1.9Zm47.6 17.5 2.7-.8.2-.2 4.5-6.4c.2-.1.2-.3.2-.5l-.8-5L67 51v.1l-6 11.7-.1.2-.2 3.3ZM13.7 51v.2l-1.2 7.3v.4a1543.4 1543.4 0 0 0 5 6.6l1.3.5 1.2.3-.1-3c0-.3 0-.5-.2-.6L14 51.2l-.2-.3ZM58 14.2v.2l7.7 9.9.3.2 2.5 1.1.2.1v-.3l.1-2.6v-.5L65 15.7a1 1 0 0 0-.7-.6l-5.2-.7-1.1-.2ZM12 25.7h.3l2.4-1.2.4-.3 7.5-9.8.2-.2h-.2a1351.2 1351.2 0 0 0-6.7 1.2l-4 7v2l.1 1.3ZM43.3 4.6h-.1a384.7 384.7 0 0 0 2.1 2.7L56 12.6l.2.1v-.2c-1-2.2-2-4.4-2.8-6.6l-.3-.3a1825.3 1825.3 0 0 0-7.3-2.1l-2.5 1Zm-18.8 8.1h.2l10.8-5.4.2-.3 1.7-2.2.1-.2L35 3.4h-.3l-7 2.2a1697 1697 0 0 1-3 6.8l-.2.3Zm17 59.5.1.1 5.7 3.5h.3a885.7 885.7 0 0 0 7.1-3.3l1.3-2.1.1-.3-2.3-.7c-.5-.2-.9-.1-1.3 0l-8.8 2.2-2.2.6Zm-2.2 0H39l-10.8-2.8a2 2 0 0 0-1.2 0l-1.8.5-.6.2a373.4 373.4 0 0 0 1.7 2.7l6.8 3a445.6 445.6 0 0 1 4-2.2l2.2-1.4Zm-11.7-52-.1.4-2.4 8.1c-.2.9-.4 1.7-.3 2.6V33l7.1-5.8-4.3-7ZM55.9 33v-3.2a11322.2 11322.2 0 0 0-2.7-9.5l-4.4 6.9 7 5.8Zm-2.3 11.1 7.1 2.7v-.4L58.4 39a8.4 8.4 0 0 0-1.5-3.3c-.3-.2-.5-.6-.7-1l-2.7 9.5ZM20 46.8l7.1-2.7-2.7-9.4-1.6 2.3-.1.3-1.6 5.7-1 3.8Zm40.4.9c-2.3-1-4.7-1.8-7-2.7l-2.7 9.4h.2l1.7-.5 1.3-.7 6.3-5.3.2-.2Zm-40 0 .2.2 6.3 5.3c.4.3.8.6 1.2.7.4 0 .7.2 1 .3l1 .3-.1-.3-2.5-8.9c0-.2-.1-.2-.3-.2l-4.5 1.7-2.4.9Zm20.3 7.9V64l.3-.2 6-5c.7-.6 1.4-1.3 1.9-2.3l.5-1h-8.7Zm-9.4 0 1.3 2.2.2.3 7 5.8.2.2v-8.5h-8.7Zm16.9-29 4.4-6.8h-8.4a3 3 0 0 0-1.3.3l-1.7.7 7 5.9Zm-20-6.8 4.4 6.9 7-5.9h-.2a97.5 97.5 0 0 0-2.5-1h-8.7Zm38.7 28.9 1-12.2-4.2 7.5 3.2 4.7Zm-53 0L17 44l-4.2-7.6 1 12.3Zm.4 1.7L19.7 61c0-3-.2-6-.4-8.9l-5-1.6ZM61 60.8l5.4-10.4-5 1.6-.4 8.8ZM23.5 14.6l-7 9h.2l6.8-3c.2-.1.2-.2.2-.4l-.2-4.2v-1.4Zm40.7 9.1-7-9v.2c0 1.8 0 3.5-.2 5.3 0 .2 0 .3.3.4l5 2.3 1.9.8ZM34.5 8.8l-9.7 4.7 4.6 2 .4-.1 3.1-4.5 1.6-2Zm21.3 4.8c-3.1-1.7-6.3-3.2-9.5-4.8 0 .2.2.4.3.5l4.4 6c0 .2.2.2.3.2l4.5-2ZM41.2 71.4c3.4-1 6.8-1.8 10.2-2.6l-.2-.1-7-2.1-.4.1-2 3.5-.6 1.2Zm-11.8-2.7c3.4 1 6.7 1.8 10.1 2.6v-.1l-2.6-4.5a1735.7 1735.7 0 0 1-7.5 2ZM26.6 6h-.2l-4.7 1.4-1 .6 3 4.8L26.6 6Zm27.6 0 2.8 6.8L60 8l-1-.5-3.2-1-1.6-.6Zm13.5 44.4 1.2 7.5.2-.4 3-4.1.4-1.2-4.8-1.8Zm-56 7.4h.2l1.2-7.4-4.8 1.8c0 .5.2 1 .5 1.3l2.9 4v.3Zm61-13.5L68 49.5l4.8 1.8c.3-.9.3-.9.3-1.8v-1.3l-.3-4ZM8 44.3v.2c0 1.8-.2 3.5-.3 5.3l.3 1.5 4.8-1.8L8 44.3Zm56.2-30.1-2.7-4.7c-.2-.5-.6-.6-1-1l-2.9 4.7 6.6 1Zm-41-1-3-4.7c-.3.3-.7.5-.9.9L16.7 14v.2l6.4-1Zm23.3 63.1-5.8-3.5v5.7h1l4.8-2.2ZM40 72.8l-5.7 3.5.2.2 4.3 1.9c.4.2.8 0 1.2.1v-5.7Zm36-33.1-3-4.1.4 6.9 2.5-2.8Zm-68.3-4-2.9 4 2.6 2.7.3-6.8ZM11.8 21l3.2-5.8-3.4.6.2 5.2Zm57.4-5.2-3.5-.6 3.2 5.8.3-5.2Zm-53.3 49-3.6-5.2-.7 4L16 65Zm48.9 0 4.3-1.3-.6-3.9-3.7 5.2ZM48.4 76.5l2.8 1.8.3-.1 2.2-3.9.2-.2a943 943 0 0 0-5.5 2.4Zm-16 0-5.5-2.4 2.4 4.2h.1l3-1.8ZM33.5 3v-.1l-4-1.7-.2.1-.8 2-.6 1.4L33.5 3Zm13.7 0c1.9.5 3.7 1 5.6 1.7l-.1-.3-1.2-3c-.1-.2-.2-.3-.4-.2l-3.7 1.6-.2.2ZM17.9 44l1.4 2.5 2.1-7.5-3.5 5Zm45 0-3.5-5 2 7.5 1.4-2.5Zm-36-24h-.2l-2.1 1c-.2 0-.2.2-.2.3l.2 4.3v1.8h.1l2.1-7.4ZM56 27.5v-.3a2177.4 2177.4 0 0 0 .2-6.1L54 20h-.2l2.1 7.4ZM34 60.2v.1l2.9 5c0 .1.2.2.3.1l1.5-.4.7-.3-5.4-4.5Zm12.7 0-5.4 4.5h.1l2.2.7c.1 0 .2 0 .3-.2l2.5-4.4.3-.5Zm-26.7-9 5 1.8-5.3-4.5.2 2.9Zm41-2.8-5.4 4.4v.1l5.2-1.6.1-2.9ZM34.8 18.8h-.2L30 16.6l-.3.1-1.3 1.8-.1.2h6.6Zm17.5 0-1.4-2h-.3l-3.5 1.4-1.3.6h6.5Zm4.2-3.8c-1 1.3-1.8 2.7-2.7 4l2.5 1.2c0-1.8 0-3.5.2-5.2Zm-32.4 0 .2 5.2 2.4-1.1-2.6-4.1Zm16.5 55.7 2.6-4.4-2.6-.8v5.2Zm-.7 0v-5.2l-2.5.8 2.5 4.4ZM29 16.3l-4-1.8 2.5 4 1.7-2.2Zm22.7 0 1.7 2.2 2.5-4-4.2 1.8Zm11.6 28.4-1.4 2.5 4.1 1.6c-.8-1.4-1.8-2.7-2.7-4Zm-44.5 2.5-1.4-2.5-2.7 4c1.4-.4 2.7-1 4.1-1.5Zm47 2.5L61.6 48l-.2 3 4.2-1.4ZM19.1 51l-.1-2.9-4 1.5v.1l4.1 1.3Zm56.4-9.7a284.5 284.5 0 0 0-2.2 2.5l.2 3.2v1l2-6.7ZM7.1 48v-.2l.2-4.2-.1-.3-2-2.1v-.1l1.8 7Zm64.5 7.4-2 2.7c-.4.5-.6 1-.4 1.6l.4 2.5 2-6.8ZM11 62.3V62l.6-2.9-.1-.4-2.2-3-.2-.2 2 6.8ZM28.2 2l-4.8 4A66.6 66.6 0 0 0 27 4.6l1-2.2.1-.5Zm24.3 0A205.3 205.3 0 0 1 54 5a242.3 242.3 0 0 1 3.5 1 865 865 0 0 1-4.9-4ZM68 14.8v-.1l-4.8-4a98.8 98.8 0 0 0 2.1 3.6l2.7.5Zm-50.3-4v-.1l-4.8 4a38.7 38.7 0 0 0 2.9-.5l2-3.5ZM9 28l1.3 2.3 1.1-1.4v-2L9 28Zm61.4 2.3 1.3-2.3-2.3-1-.1 1.8v.1l1.1 1.4ZM42 4.2 40.4 2l-1.6 2 1.5.7h.2l1.5-.6Zm18 63.2-1.7.5-.1.1-.9 1.5 2.5.7.1-2.8Zm-36.6 2.1-.8-1.4-.1-.2-1.7-.5.2 2.8 2.4-.7Zm7.5 9h5.8a359.1 359.1 0 0 0-3.5-1.5L31 78.4Zm19 0L47.4 77h-.2l-2.4 1-.8.4h5.7ZM5.5 37.3v-.1l2.1-3 .1-.3L8 32v-1.5l-2.3 6.8Zm69.5 0-2.3-6.8a71.7 71.7 0 0 0 .2 3.8l2.1 3Zm-5.3-19-.2 3.8v.3a476.6 476.6 0 0 0 1.7 3v-.1l-1.5-7Zm-58.8 0-1.6 7a402.6 402.6 0 0 0 1.8-3.2l-.2-3.8Zm47 54h-.2L55 73.5l-.2.3-1.6 2.7v.2l4.6-4.4Zm-30.5 4.5-1-2c-.5-1-1-1.5-1.8-1.7l-.4-.1-1.4-.7 4.6 4.5ZM67 65.3h-.1l-2.9.9s-.2 0-.3.2l-1.4 2-.3.4 5-3.5ZM18.7 69 17 66.2l-.2-.1-2-.7-1-.3v.1l5 3.6Zm30-67.7c-1.9 0-3.7.2-5.6.3l.1.1 1.9.6c.5.2 1 .2 1.5 0l2.1-1Zm-11 .4L31.9 1l.2.1a610 610 0 0 0 3 1.2l1.5-.5c.4 0 .7-.2 1.1-.3Zm33.1 29.6 1.4 1.7-.2-3.7-1.2 2Zm-62-2L8.5 33l1.3-1.7-1.1-2Zm60.7-5.5a145.8 145.8 0 0 0 0 2.4l1.8.8-1.8-3.2Zm-58.3 0L9.4 27l1.8-.8.1-.2v-2.2Zm49.3 45.8 2-2.8-1.7.5-.2.1v2.2Zm-40.3-.2v-2l-.2-.1-1.8-.6 2 2.7ZM58.7 71l-1.8-.5c-.4.6-.8 1.2-1 1.8l2.8-1.3ZM44.5 3.1V3l-3-1v.2a409.7 409.7 0 0 0 1.3 1.6l1.7-.7ZM25 72.2l-.6-1c-.2-.3-.3-.7-.5-.8a27 27 0 0 0-1.8.5l2.9 1.3ZM36.3 3c.5.3 1 .6 1.7.8h.1l1.2-1.6-3 .8Zm32.6 30 1-1.8-.7-1-.3 2.8Zm-57.1 0-.2-2.8-.8 1 1 1.8Zm9 31.5h-.1a219.2 219.2 0 0 0 .1 2c.4 0 .7.2 1.1.3l-1.2-2.3Zm39.3 0-1.3 2.3 1-.3.2-.2v-1.8ZM12 28l1.6-2a4 4 0 0 0-1.5.6l-.1.2V28Zm56.5 0v-1.5l-1.3-.5-.2-.1 1.5 2ZM39.3 5.4l-1-.5-1.1 1.4v.1l2.1-1Zm4.2 1v-.1l-1-1.3c-.4 0-.7.2-1 .4l2 1Zm13.7 61.8-2.2.6 1.5.5.2-.1.5-1Zm-33.7 0 .6 1h.1c.5 0 1-.2 1.5-.4l-2.2-.6Zm33.4-35-.3-.9v1c0-.1.1-.2.3-.2Zm-32.7 0v-.9l-.3.8.3.1Zm-.5.8-.3.7.5-.6-.2-.1Zm33.1 0 .5.8-.2-.8h-.3ZM31 56.7v-.1l-.4-.7-.2.3.6.5Zm19.2-.8-.5.7c.3 0 .4-.2.7-.4l-.2-.3ZM30 55.4Zm21.4-.2-.6.2c.1.3.2.3.6-.2ZM40.8 20l.5-.2c-.5 0-.6 0-.5.2Zm-.8 0c0-.2-.1-.3-.5-.2l.5.3Z"/>
</svg>
