<svg xmlns="http://www.w3.org/2000/svg" fill="none" viewBox="0 0 2716 886">
  <path fill="#FFA700" d="m385.6 866.4-54.1-3c-21.2-1-42.4-2.1-63.6-3.4-1.3 0-2.8-1.1-4-2.1-44-36.4-87.7-72.9-131.5-109.3l-56.6-47.2a11.9 11.9 0 0 1-3.3-5.1c-13.1-39.4-26.4-78.7-39-118.4-4.7-14.8-7.9-30.4-11.6-45.8-7.3-30-14.3-59.9-21.5-89.8-.6-2.7-.5-4.8.2-7.4 4.8-16.2 9.6-32.3 14.2-48.6l55.8-196.2c.5-2 1.3-4 1.6-6 .8-5 3.4-7.3 6.3-9.4 1-.7 2-1.6 3-2.5 30.6-27.5 61-55.5 91.8-82.5 12.7-11.1 26.2-20.3 39.4-30.3 17.1-13 34.3-25.8 51.4-38.5 1.2-1 2.7-1.5 4-1.5l233.5-.4c1.2 0 2.4.4 3.3 1.3 32.5 24.2 65 48.3 97.2 73 10.7 8.3 20.6 18.6 30.8 28l62 57.7a12 12 0 0 1 3.1 5.1l70.2 245 .2.9c3.7 6.2 2 12.4.4 19-10.2 41.3-20 82.7-30.4 124-3.8 14.8-9.2 29-13.9 43.4L698 696.7a12 12 0 0 1-3.8 5.8C633.6 753 573 803.3 512.4 854a25.8 25.8 0 0 1-16.3 6.8c-17.8.7-35.4 1.8-53.2 2.7l-51.4 3c-2 .2-3.8 0-5.7 0h-.2Zm116.2-250.2 70 110.3.8-1.1 22-42.5c.4-.9.7-2 .7-3l1-19.2 3.2-59 1.4-29.2-2.5.6-70.9 22.5c-.6.2-1.4.4-2 1l-23.7 19.6Zm-332-43.8 1.5 28.8 4.2 77.3c0 1.8.6 3.8 1.3 5.3a5574.2 5574.2 0 0 0 22.1 42.9L269 616.3l-23.7-19.8c-.6-.4-1.4-.6-2-.8l-52.7-16.8-20.7-6.5ZM143.2 478l2-2.9c14-19.9 27.8-40 41.7-59.7a44 44 0 0 0 7.4-15.9c2-7.8 4.3-15.3 6.6-23.3L87 333.9l4 47.5c.2 2.5 1 5.2 2.2 7.2l34.6 62.4 15.2 27Zm484.2.2.9-1.3 50.3-90.3c.5-1 .8-2 1-3.2l1.6-19 2.5-30.6L570 376.1l9 31.3c.2 1 .9 2 1.5 2.7l45.4 65.4 1.5 2.7Zm-61.6 253-69.8-110-24.9 20.7-1.5 2-39.8 69-.9 2 1.9.6c29.7 8.9 59.4 17.7 89.2 26.4a6 6 0 0 0 3.5.1l30-7.6 12.3-3.2ZM342 714.8l-.6-1.3-40.5-70c-.3-.6-.8-1.3-1.3-1.7L275 621.2l-69.7 110 1.6.6 36.6 9.3c2.6.6 5.4 1.4 7.9.7 25.2-7.2 50.4-14.8 75.6-22.3l15-4.7Zm149.5-527.2L490 185c-19.2-26.6-38.3-53.4-57.6-80a8 8 0 0 0-2.7-2.4l-38.3-19.1c-.6-.4-1.3-.6-2-.8v135.6h28c1.5 0 3-.4 4.5-1l33.2-14.2 36.5-15.6Zm-110 30.8V82.7l-2.4 1-37 18.6a13 13 0 0 0-4.4 3.9c-18.6 25.6-37 51.4-55.6 77.1-1 1.3-2.2 2-3.3 3.1 1.3 1.5 2 1.8 2.7 2l63.6 27.4c2 1 4.2 2.4 6.3 2.4 10 .3 20 .2 30.1.2Zm299.6 106.3-2.4-2.7c-8.5-10.9-16.8-21.9-25.3-32.6-1.2-1.6-2.9-3-4.5-3.8l-66.4-30c-7-3-13.8-6.2-20.9-9.3 0 1.6-.2 2.9-.3 4.2l-3 78c-.2 4.1.3 7.9 1.4 11.7l6.4 22.4 1.3 4.4 113.7-42.3ZM203.4 367l8.9-31.6c.3-1.1.2-2.5.2-3.8-1-22.7-1.7-45.5-2.6-68.3l-.7-17-1.7.8-86.9 39.1c-1 .4-2 1.4-2.7 2.4l-26 33.8L90 325l113.3 42Zm186 86.3v144.5H481l-91.7-144.5Zm-99.6 144.5h91.6V453.5L289.8 598Zm99.4-351v179l74.3-117-74.3-62ZM381.6 426V246.9l-74.4 62L381.6 426Zm106 167.5 28.4-100L396 449l91.7 144.7Zm-204.5 0 91.3-143.9-.3-.5-119.4 44.4 28.4 100Zm-56.3-217.8 147 54.7c0-.3.2-.5.3-.8l-73.3-115.5-74 61.6ZM470 314.2c-24.5 38.6-49 77-73.3 115.5l.3.7 147-54.7c-25-20.6-49.4-41-74-61.5ZM370.7 440v-.7l-146.9-54.7 28.2 99.5L370.7 440Zm29.3-.7v.7l118.6 44.2 28.2-99.5L400 439.3ZM704 357c-5.8 10.4-11.4 20.3-16.9 30.4-.5 1-.8 2.4-1 3.6l-3.4 41.7-5 59.8-3.4 41.8 1.6-1.4 50.6-55a6 6 0 0 0 1-3.5 12834 12834 0 0 0-4.2-87.7 7 7 0 0 0-.8-3.3L704 356.9ZM96.5 534.5 95 516.3c-3.3-39.7-6.7-79.5-9.8-119.3a34.3 34.3 0 0 0-4.5-15.3c-4.5-7.3-8.5-15-12.8-22.6a29 29 0 0 0-1.2-2c-6.3 8.9-12.4 17.5-18.4 26.3-.5.6-.7 2-.7 3-1.5 29.3-3 58.6-4.3 88 0 1.3.7 3 1.5 3.9l33.6 36.6 18.1 19.6Zm504.2 186.2 28.7-9c.9-.3 1.6-1.3 2.2-2.1 16-22.4 31.9-44.8 47.9-67 1.4-2 1.6-3.8 1.3-6.3-3-17.2-5.7-34.5-8.5-51.8L668 558l-.9 1.6L603.4 683c-.3.7-.8 1.7-.8 2.6l-1.9 35.2ZM103 557.9l-.5 2.1-12.6 77.8a7 7 0 0 0 1 4.1l48.1 67.6a7.1 7.1 0 0 0 3.4 2.7c5 1.7 9.7 3 14.6 4.5l13 3.9c-.6-11.3-1.1-22.2-1.8-33a16 16 0 0 0-1.5-5.8l-62-120.8-1.7-3Zm469-388.5c0 .4-.3.8-.5 1.1.6.3 1.1.5 1.5 1l80.8 104.7a8 8 0 0 0 3.3 2.5l26.3 12 2.3.8c0-1.4.2-2.5.3-3.6.3-9 .8-18 1-27 0-1.8-.4-4-1.3-5.5-13-23.5-26.4-46.8-39.4-70.5-2.1-3.8-4.4-5.1-7.6-5.6-18.4-2.6-36.8-5.5-55.2-8.2-3.8-.7-7.6-1.2-11.4-1.7ZM85 291.6l2.7-1.1 25.7-11.6c1.4-.7 2.9-1.9 4-3.3l80-103.8c.6-.6 1-1.4 1.6-2.2h-2.4L128.9 180c-1 .1-2 1-2.7 2.1l-41.6 74c-.5 1-1 2.5-.9 3.7l.7 18.2c.1 4.6.4 9 .6 13.7ZM416 67.3l-.7 1.4c6.2 8.1 12.3 16.2 18.6 24.2 1.1 1.4 2.4 2.8 3.9 3.5l112.6 56 2.5 1.1c-.4-1-.5-1.6-.8-2.1-9.6-23.3-19.3-46.7-29.1-70-.6-1.4-2-2.5-3.2-2.8A19238 19238 0 0 0 445.3 56c-.9-.3-2-.6-2.8-.3-8.9 3.8-17.7 7.6-26.6 11.6Zm-198.3 86.2c1-.5 1.6-.6 2-1l114-56.7a8 8 0 0 0 2.7-2.4l17.2-23.9c.5-.6.8-1.3 1.4-2.3l-26.8-11.7c-.8-.3-1.8 0-2.6.1l-75 22.7c-1.5.4-2.4 1.4-3.1 3.3L219 150.1l-1.3 3.4ZM397.2 784l1.6 1.2 59.8 37.1a4 4 0 0 0 3.5.2 9360 9360 0 0 0 72.4-32.1 7.6 7.6 0 0 0 3.1-3c4.4-7.5 8.6-15 12.9-22.6.6-.8 1-1.8 1.6-3-8.4-2.6-16.7-4.6-24.6-7.5a21.7 21.7 0 0 0-13.8 0c-31 8-62.2 15.8-93.3 23.7-7.4 2-15 4-23.2 6Zm-23.6.2-2.5-.8c-38.2-9.6-76.5-19.4-114.7-29.2a21.4 21.4 0 0 0-13 .3c-6.2 2.2-12.4 3.8-18.6 5.6l-6.3 2 14.6 25.6c.8 1.3 2 2.4 3.2 3l71.9 32c1.6.7 3 .6 4.5-.4a4696 4696 0 0 1 37.5-23.4c7.6-4.9 15.2-9.6 23.4-14.7Zm-124-550.7-1.1 3.3c-8.2 28.9-16.3 57.8-24.6 86.6a66 66 0 0 0-3.4 27.3c.5 5.2.4 10.7.6 16 0 .5 0 1.2.2 2.3l74.7-62.3-46.5-73.2Zm300 135.6 1.1-31.5c0-1-.3-2-.5-2.8a116092 116092 0 0 0-29-101.2l-46.4 73.2 74.8 62.3Zm-24 117.6 75.4 28.1c-.4-1.6-.6-2.7-1-3.8-7.4-26.4-15.3-52.7-22.3-79.4a89.1 89.1 0 0 0-16.4-35c-2.5-3-4.6-6.7-7.1-10.3l-28.6 100.4Zm-356 28.1 75.5-28-28.5-100.5-17.4 25.1c-.6.8-.8 2-1 2.9L181 474.5l-11.4 40.3Zm428.4 9.3-75-27.9-28.2 99.7c1.2-.3 1.9-.4 2.5-.7 6-1.8 11.9-3.9 17.8-5.5 4.7-1.3 9-3.8 13.1-7.3 22.4-18.8 44.9-37.3 67.4-56l2.4-2.3Zm-425.2 0 2.7 2.4c22.4 18.8 44.9 37.3 67.2 56.2 4.2 3.4 8.4 6 13.1 7.1 3.4.9 6.7 2.1 10 3.2l10.2 3-.8-3.3c-8.9-31.2-17.8-62.3-26.5-93.6-.6-2.1-1.3-2.7-3-2l-47 17.5-26 9.6ZM389.3 608v89.9l2.4-2c21-17.4 42-35.2 63.1-52.2a71.7 71.7 0 0 0 20.8-25.4c1.6-3.4 3.8-6.6 6-10.3h-92.3Zm-100.1 0 13.6 23.6a9.8 9.8 0 0 0 2.6 3.1l74.2 61.8 1.8 1.3V608h-92.2Zm179-306.5 46.2-72.9h-87.7a31 31 0 0 0-14.2 3c-6 2.8-12 5.2-18.6 8l74.3 62Zm-211.9-72.9 46.2 73 74.2-61.9-2-1-21.3-9c-1.4-.6-3-1-4.4-1h-92.6ZM667 534.7l10.8-129.2-.6-.3-44.5 80 34.3 49.5Zm-563 0 34.3-49.4-44.6-80.1c-.2 0-.3.2-.5.3L104 534.7Zm5.6 18.5 57 110.7.5-.4-5-93.6-52.5-16.7Zm494.2 110.4.6.2 57-110.5-52.7 16.7-4.9 93.6ZM206.4 173.8c-24.8 32.3-49.2 64-73.7 95.6.7.4 1 .4 1.4.3l73-32.9c1.4-.7 1.7-1.6 1.6-3.5l-1.7-44.9-.6-14.6Zm431.3 96.3.3-.7-73.6-95.5a77 77 0 0 0-.3 3.4c-.7 18.4-1.3 36.9-2.2 55.2 0 2.8.6 3.8 2.4 4.5l54.3 24.4 19 8.7Zm-315-157.4-.3-.7-101.6 50.4c16.5 7.2 32.3 13.8 48.2 20.8 1.7.8 2.8.4 4-1.4l33.7-46.9c5.4-7.3 10.7-14.8 16-22.2Zm226.5 50v-.6l-101-50.2c0 .3-.3.7-.5 1 1.3 1.7 2.8 3.2 4 5 15.5 21.3 30.9 42.9 46.3 64.2.6.8 2 1.6 2.7 1.3 16.3-6.7 32.4-13.7 48.5-20.6ZM394 775l108-27.5c-.6-.7-1.2-1-1.7-1l-75-22.5c-1.4-.4-2.3.3-3.1 1.7l-21 36.6-7.3 12.6Zm-125-28v.5L376.6 775l-.8-1.7-27.3-47.6c-1.2-2-2.2-1.9-3.7-1.4a18195 18195 0 0 1-76 22.6ZM239 82.1c-.7 0-1.1 0-1.5.2-16.5 5-33.2 10-49.7 15.3-3.6 1.1-7 4.1-10.6 6.4l32 50.4L239 82.2Zm292.6-.2 30 72.5 32-50.3c-3.6-2.3-6.6-5.2-10-6.2-11.6-4-23.5-7.4-35.3-11l-16.7-5Zm143 470.6 12.8 79.3 2.1-3.5c10.4-14.6 20.7-29.3 31.2-43.7 2.7-3.7 3.6-8.2 5.1-13-17.1-6.4-34-12.7-51.3-19Zm-592 79 1-1c4.1-25.9 8.4-51.8 12.7-78l-51.2 19c1.3 5.5 2.8 10 5.7 14 10.3 14.1 20.4 28.5 30.6 42.9.5.9.8 2 1.1 3.1ZM728.2 488c-17 18.6-33.8 36.7-50.8 55.1l51 19c3.1-9.3 3.1-9.3 2.5-18.8l-.6-13.7-2-41.6Zm-685.6.1-.2 2.2c-.9 18.6-1.7 37.2-2.8 55.9a43.2 43.2 0 0 0 2.8 16l51-19-50.8-55Zm594.8-319-27.9-49.6c-2.7-4.8-6.6-6.6-10-10L568.2 159l69.2 10.3ZM202.6 159l-31.5-49.7c-3.1 3.2-6.8 5.5-9 9.2-9.4 15.9-18.3 32.2-27.4 48.3l-1.1 2.5 69-10.3Zm247.7 668.9c-20.6-13-40.7-25.4-61-38v60.4c3.6 0 7.4 1.1 10.5-.2 16.7-7 33.3-14.5 50.5-22.2Zm-68.8-38-61 38 2.5 1.1c15.2 6.8 30.3 13.4 45.5 20.3 4.3 2 8.6 1.2 13 1.4v-60.9ZM762 439.2l-30.8-43.6 3.6 73 27.2-29.4ZM39.5 396.6c-.2 0-.4-.2-.5-.3l-30.2 43 27.1 29.4 3.6-72Zm43.3-154.2 34.2-60.8-36.6 5.5 2.4 55.3ZM690.3 187l-36.6-5.5 34.2 60.8 2.4-55.3ZM126.4 707.2l.2-.6-39-54.9-6.8 41.5 45.6 14Zm517.6-.6.3.6 45.5-14.1-6.7-41.4-39 55ZM470.1 829.7l30.3 18.9c1.5 1 2.3.7 3.3-1.1 7.7-13.7 15.4-27.3 23.2-40.8l1.3-2.7c-19.5 8.5-38.5 17-58 25.7Zm-169.5-.1L243 804c8.1 15.1 16.4 29.8 24.8 44.3.2.6 1.3.8 1.7.6 10.3-6.2 20.4-12.6 31.1-19.3ZM313 49.3l-1.1-.9-41.3-18c-1.3-.7-1.8 0-2.4 1.4l-8.5 20.6-6.2 15 59.5-18Zm144.5 0 59.7 18.1-1.2-3.1c-4.4-10.6-8.8-21-13-31.7-1-2.2-1.7-2.7-3.5-2-13.1 5.9-26.2 11.5-39.3 17.3-.8.3-1.5.7-2.7 1.4Zm-310 436.6 14.7 26.4 22.3-78.8-.4-.4c-12.1 17.6-24.4 35-36.6 52.8Zm475.8 0L586.6 433l-.4.4 22.3 78.7 14.8-26.3ZM241.6 232.2h-.9l-23 10.2c-1.3.6-1.2 1.8-1.1 3.3l1.7 45.5.8 19h.5l22-78Zm309.6 78h.5l.2-3.2 2.4-61.7c0-2-.6-2.4-1.7-2.9-7.2-3.1-14.5-6.5-21.8-9.8-.4-.2-1-.2-1.7-.4l22.1 78ZM317.8 657l.4 1.3 30.4 52.6c.9 1.6 1.8 1.7 3 1.3l16.3-4.9 7.7-2.3-57.8-48Zm135 .7s0-.3-.2-.4l-57 47.3c.3.4.4.6.6.6 7.9 2.4 15.7 4.9 23.6 7 .8.2 2-.8 2.6-1.8 9.2-15.6 18.2-31.3 27.2-47l3.3-5.7Zm-283.5-95.4 54.6 17.4.1-.7-56.4-47 1.7 30.3ZM603 532l-56.4 47 .2.6 54.5-17.2c.6-10 1-19.8 1.7-30.4ZM326.9 218.4l-1.6-1c-16.7-7.2-33.5-14.4-50.3-21.4-.7-.4-2 .3-2.7 1.2-4.7 6.3-9.2 12.8-13.8 19.2-.4.5-.6 1.1-1 2h69.4Zm186.2 0 .6-1.1-16-21c-.5-.5-1.7-.5-2.5-.1l-37.8 16.1-13 5.6.1.4h68.6Zm43.8-40.6c-.2 0-.4 0-.6-.2-9 14.4-18.2 28.8-27.5 43.4l26 11.7 2-54.9Zm-342.5-.2-.5.3 2 54.8 26-11.6-27.5-43.5Zm174.9 590.2 26.7-46.4c-9.1-2.7-17.8-5.2-26.7-8v54.4Zm-7.8-.2v-54.2l-26.7 8a5481 5481 0 0 0 26.7 46.2ZM265.8 192l-44.5-19.1-.2.4 26.7 42.1 18-23.4Zm239.3-.1 17.8 23.6 26.8-42.2-.2-.4-44.4 19ZM628.2 493l-14.7 26.5 43.8 16.4.2-.6-29.3-42.3Zm-471 26.5L142.6 493 113 535.3l.3.6 43.9-16.4Zm496.8 26v-.6l-43.2-16-1.5 30.9 44.7-14.3Zm-492.5 14.2-1.6-30.9-43.1 16v.7l44.7 14.2Zm597-103.6c0-.2-.2-.3-.3-.5l-22 24c-.6.6-.7 2.4-.7 3.5l1.7 34 .5 10.7.5.1 20.4-71.8ZM32.9 528.6l.4-2 2-44.5c0-1-.6-2.6-1.3-3.3-6.8-7.6-13.7-15-20.6-22.5-.2-.3-.6-.4-1.3-.8l20.8 73Zm683.1 78-.4-.3c-7 9.8-13.8 20-21.1 29.4-4.1 5.2-5.3 10-3.6 17.3 1.9 8.3 3 17 4.5 26.5l20.6-73ZM75.5 679.1l.6-3 5-30.5c.3-2 0-3.2-1-4.6L57 608.6l-1.5-1.8-.4.3 20.5 72.1Zm181.4-640-.4-.4-51.3 42.8c12.5-3.2 24.9-7 37.2-10.8.8-.2 1.9-1.4 2.4-2.6 3.4-7.8 6.6-15.8 9.8-23.7l2.3-5.3Zm257.4-.4-.4.3 1 2.5 10.7 26c.8 2 1.9 3 3.4 3.5l19.2 5.8 17.1 5 .2-.5c-17-14.1-34.2-28.3-51.2-42.6Zm163.1 136.6.1-.6-51-42.5c6.6 12.8 13.5 25.1 20.4 37.3a3 3 0 0 0 2 1.4c9.5 1.6 19 3 28.5 4.4Zm-532.9-42.5-.4-.5-51 42.5c9.6-.9 19.2-2.3 28.6-3.8a3 3 0 0 0 2-1.4c7-12.3 14-24.5 20.8-36.8ZM53.1 316.5A4002 4002 0 0 0 67 341.2l11.7-14.7c.2-.3.5-1 .4-1.4l-.7-19.9L53 316.5ZM704 341.2l13.8-24.7-25.2-11.3c-.2 7-.6 13.2-.7 19.5 0 .6.1 1.4.5 1.8 3.8 5 7.7 9.7 11.6 14.7ZM402.3 63l-16.8-22-17 22.1 16.4 7.1c.4.3 1 0 1.3 0 5.2-2.5 10.4-4.7 16-7.2Zm190.2 670.3-17.1 5.2c-.6.3-1.2.7-1.6 1.4-3 5-5.8 10-8.8 15.5l26 7.7 1.5-29.8Zm-386.7 22.1A497 497 0 0 0 197 740c-.3-.6-.8-1-1.3-1.2l-17.5-5.5 1.6 29.8 26-7.7Zm79.4 94.5v.7h61.5l-.8-.8-34.3-15.2a2 2 0 0 0-1.8 0L285.2 850Zm200.3.6v-.6c-8-5.1-16.2-10.3-24.5-15.3-.7-.5-1.9-.1-2.7.3-8.3 3.5-16.5 7.2-24.8 11l-9.1 4v.6h61.1ZM16.6 414l1-.7 21.7-31c.6-1 1-2.7 1-4 .5-6.7.7-13.3 1-19.9l.7-15.9h-.6L16.6 414Zm737-.3.3-.3-24.7-71.2c0 12.6.6 25 1.2 37.3 0 1 .4 2 .8 2.6 7.5 10.5 15 21 22.3 31.6ZM697 212.8h-.5L695 253c0 1 .5 2.4 1 3.4a5091.3 5091.3 0 0 0 17.3 31l.4-.4-16.5-74.2Zm-623 .1c-.2 0-.3 0-.5-.2L57 287.3l.6-.4c6-10.4 11.9-21 17.7-31.4a6 6 0 0 0 .6-2.7L74 212.9Zm497.2 572.3-1.3.1c-9.5 4.2-19 8.4-28.5 12.8-.9.3-1.6 1.3-2.2 2.3L522.5 830l-1 2.2s0 .2.2.3l49.6-47.2ZM249 832.3c.2 0 .2-.3.4-.4-4-6.9-8.2-13.4-11.7-20.7-4.5-9.5-10.3-15.7-18.5-17.6-1.3-.2-2.4-1-3.6-1.6l-15.3-6.8-.2.7 49 46.4ZM667.2 711v-.6h-.8l-30.7 9.6c-1 .3-2 1.2-2.7 2.2l-15.8 22c-1 1.4-2 2.5-3.2 3.7l.7 1c17.5-12.6 35-25.2 52.5-38ZM156 749l.3-.7-19.3-27.1c-.6-.7-1.4-1-2.1-1.3l-20.8-6.4-10.4-3.2-.2.7 52.5 38ZM474 31.5v-.7l-60.2 4.5a3 3 0 0 0 1.8 1c6.6 2 13.4 3.6 19.9 6.2a18 18 0 0 0 15.6-1c7.5-3.6 15.2-6.6 22.9-10ZM357 36v-.6L296.1 31c.9.7 1.2 1 1.5 1l28.6 12.5c.8.3 1.7.3 2.5 0l16.7-4.9 11.7-3.5Zm351 313.6 14.3 17.6-1.9-38.6c-.2 0-.3 0-.5-.2L708 349.6Zm-657-21-.6.1-1.9 38.4 14.2-17.6c-4-7.3-8-14.1-11.7-21Zm643-58.8c-.4 8.7-.8 16.3-1 24 0 .5.6 1.3 1 1.4 6 2.9 12.3 5.7 19.2 8.8L694 269.9Zm-617.4 0L57.4 304l19.2-8.8c.4-.2 1-1.2 1-1.8l-1-23.6Zm522.1 485.8 21.7-30.4c-6.6 1.4-12.9 3.3-19.2 5.4-.5.1-1.1 1-1.2 1.6l-1.3 23.4Zm-427-2.6-1.2-21.2c0-.5-.6-1.1-1-1.3l-19.2-6-.3.8 21.7 27.7Zm407.6 17.5-.1-.7-18.4-5.4c-.4-.1-1.2.1-1.4.6l-10.6 18.5.3.6 30.2-13.6ZM428.8 51.4v-.6l-31.6-9.6-.5 1 12.6 16.4c.4.5 1.2.7 1.6.5l17.9-7.7Zm-206.5 733-6.3-11c-1.7-3-3-7.4-5.2-8.5-2.4-1.1-5.5 1-8.2 1.7a287 287 0 0 0-11.2 3.4v.7l31 13.7ZM342 50.9v.6l17.7 7.7c.5.3 1.4 0 1.7-.4L374 42.3l-.5-.9c-10.5 3-21 6.2-31.5 9.5Zm346 317.6c.3 0 .4.2.5.3l10.7-19.1-8.6-10.8a4594 4594 0 0 0-2.5 29.6Zm-605.8.2c.2 0 .3-.2.5-.3l-2.5-29.2-8.5 10.6 10.5 18.9Zm95 333.3-.5.2 1 19.6c.1.5.4 1.3.8 1.4 3.6 1.3 7.3 2.4 11.6 3.7L177.3 702Zm416.9.3-.6-.2-12.8 24.9 11.2-3.5c.5-.1 1-1 1.1-1.5.4-6.7.8-13.2 1-19.7Zm-508-386 16.3-21.2c-5.6 1.7-10.8 4-16 6.5-.5.2-.9 1.5-.9 2.2l.5 12.5Zm598.5 0c.2-4.5.3-8.3.6-12.1.1-1.8-.4-2.5-1.6-3l-12.6-5.7-2.5-1-.2.6 16.3 21.2ZM374.4 75.7c-4-1.7-7.4-3.3-10.7-4.6-.3-.1-1 0-1.3.5l-11 14.2.6 1 22.4-11Zm44.3 11.1.5-1-10.6-13.9c-.4-.5-1.2-.9-1.7-.7l-10.5 4.6 22.3 11Zm145.1 654.9-23.2 5.9a135 135 0 0 0 15.6 5.1c.5.1 1.4-.3 1.7-.9 2-3.1 3.7-6.3 6-10.1Zm-356.9 0 6 10.4c.3.4 1 .7 1.4.7l15.9-4.7-.1-.6-23.2-5.8Zm353-372-2.3-8.4a2 2 0 0 1-.6 0v9.6l3-1.1ZM213.8 371v-9.5l-.5-.1-2.4 8.5 3 1Zm-5.5 8-2.4 8.2.4.3 5.1-7.4-3.1-1.2Zm351.2 1.1 5.2 7.5.3-.3-2.4-8.3-3 1.1ZM285.7 618.2l.4-.5-4.4-7.5c-.6 1.2-1.2 2-1.8 3 2.1 2 4 3.5 5.8 5Zm203.3-7.9-4.3 7.5.3.5 6.2-5-2.2-3Zm-213.8-4.5-6-1.8c3.6 4.5 4.5 4.7 6 1.8Zm226.5-2-6 2c1.3 3 1.8 2.8 6-2ZM389.4 231.5l5.3-2.4c-5.1-1-5.7-.8-5.3 2.4Zm-8 0c.1-3-1.2-3.6-5-2.2l5 2.2Z"/>
  <path fill="#000002" d="M1027.2 247.4h-69.4v-52.3h171.8c10.7 0 19.2 8.9 19.2 19.3v33h-69.3v167.9h-52.3V247.4Zm362.4 57.8a110 110 0 1 1-220.1 0 110 110 0 0 1 220.1 0Zm-52.5 0a57.5 57.5 0 1 0-115.1 0 57.5 57.5 0 0 0 115 0Zm86.9-110.1h47.1c2 0 3.8.9 5.3 2.5l59.4 69.1 59.5-69.1a7 7 0 0 1 5.5-2.5h46.8v220.2h-52.3V277.7l-24.8 29.2-20 23a19.4 19.4 0 0 1-29.3 0l-44.8-52.2v137.6h-52.3V195Zm361 0h33.3c10.8 0 19.3 8.6 19.3 19.3v64.7h85.3v-84h33.3c10.5 0 19.3 8.6 19.3 19.3v201h-52.6v-84h-85.3v84H1785V195Zm445 110.1a110 110 0 1 1-220.1.1 110 110 0 0 1 220.1 0Zm-52.6 0a57.5 57.5 0 1 0-115 0 57.5 57.5 0 0 0 115 0Zm87 17.4c0-10.5 8.8-19.3 19.3-19.3h62.7c16 0 28.7-12.9 27.8-28.9a28.2 28.2 0 0 0-28.3-26.7h-81.5v-52.3h81.2c44 0 81.5 35.8 81.2 79.8a79 79 0 0 1-46 71.9l68.3 68.2h-72.7l-59.7-59.7v59.7h-52.3v-92.7Zm212.2-127.5h41.2c5.6 0 11 2.5 14.6 6.7l115.3 134V195h33c10.8 0 19.3 8.6 19.3 19.3v201h-52.8l-118.3-137.6v137.5h-52.3V195.1Z"/>
  <path fill="#FFA700" d="m1000.5 686.9-3.4-1.2c-1-.4-2-1-3.2-1.3l-2.3-1.2-4.3-2.3c-.8-.5-1.6-.8-2.3-1.4l-4-2.8c-2.8-2-5.3-4.4-7.8-6.7a70.5 70.5 0 0 1 7.8-105.7c1.2-1 2.6-1.9 4-2.8 3-1.9 6-3.5 9-4.9l3.1-1.4 3.4-1a68.6 68.6 0 0 1 44.7-.1l3.4 1c1 .6 2 1 3.2 1.5a52 52 0 0 1 8.9 5 62.3 62.3 0 0 1 11.8 9.4l-23.5 23.4a40 40 0 0 0-5.5-4.3h-.1a8 8 0 0 0-1.5-1l-1-.6-1.4-1c-1-.5-2-.8-3-1.1l-1.4-.6-1-.3c-.4-.1-.6-.1-.7-.3l-1.3-.3a39.9 39.9 0 0 0-18.3 0c-.5.1-.9.3-1.4.3l-.6.3-1.2.3-1.4.6c-1 .3-1.9.7-2.8 1.2l-1.2.5-.5.6-1 .5c-.4.2-1 .6-1.3 1l-1.6 1-.1.1h-.2v.2c-.7.3-1.2.9-1.7 1.2v.2a36.5 36.5 0 0 0 0 55.3l1.7 1.4.3.3 1.6 1c1.2 1 2.6 1.6 4 2.3l2.9 1.5a36.6 36.6 0 0 0 13.6 2.6 42.7 42.7 0 0 0 13.6-2.6l3-1.5a24 24 0 0 0 3.8-2.3h.2l2.8-2 2.6-2.5v-25.7h21c6.9 0 12.3 5.4 12.3 12v13.4c0 8.9-3.3 17.5-9.6 23.8l-.2.1c-2.3 2.4-5 4.6-7.6 6.7l-4.2 2.8-2 1.2a41 41 0 0 1-6.9 3.7l-2.7 1v.2h-.4a67.1 67.1 0 0 1-25.7 4.9c-8 0-15.4-1.2-22.4-3.6Zm152.1-128.6.2-.2a12.3 12.3 0 0 1 22.5-.4l61.9 132.6-.3.2h-34.4l-13.4-29h-50l-13.4 29H1091l61.6-132.2Zm21.7 72-10.1-22.2-10.4 22.2h20.5Zm80.4-79.9h30c1.2 0 2.4.6 3.3 1.6l37.8 44 37.9-44c.8-1 2-1.6 3.5-1.6h29.8v140.1h-33.3V603l-15.8 18.5-12.8 14.8a12.3 12.3 0 0 1-18.5 0L1288 603v87.5h-33.3v-140Zm168.5 0h21.2c6.6 0 12.2 5.4 12.2 12.3v127.8h-33.4v-140Zm59.7 0h26.3c3.5 0 7 1.6 9.3 4.2l73.3 85.3v-89.4h21c6.9 0 12.3 5.4 12.3 12.2v127.9h-33.6l-75.3-87.6v87.6H1483V550.4Zm211.7 136.5-3.3-1.2c-1-.4-2.1-1-3.2-1.3l-2.3-1.2-4.3-2.3c-.8-.5-1.6-.8-2.3-1.4-1.5-.9-2.8-1.9-4.1-2.8-2.8-2-5.3-4.4-7.7-6.7a70.4 70.4 0 0 1 7.7-105.7c1.2-1 2.6-1.9 4-2.8 3-1.9 6-3.5 9-4.9l3.2-1.4 3.3-1a68.7 68.7 0 0 1 44.8-.1l3.3 1c1 .6 2.1 1 3.2 1.5 3.2 1.4 6.1 3 9 5a62.3 62.3 0 0 1 11.6 9.4l-23.5 23.4a40 40 0 0 0-5.4-4.3h-.1a5 5 0 0 0-1.5-1l-1-.6-1.4-1c-1-.5-2-.8-3-1.1l-1.4-.6-1-.3c-.4-.1-.6-.1-.8-.3l-1.2-.3a40.2 40.2 0 0 0-18.4 0c-.5.1-.8.3-1.4.3l-.5.3-1.2.3-1.5.6c-1 .3-1.9.7-2.8 1.2l-1.2.5-.5.6-1 .5c-.4.2-1 .6-1.3 1l-1.5 1-.2.1h-.2v.2c-.7.3-1.2.9-1.7 1.2v.2a36.5 36.5 0 0 0 0 55.3l1.7 1.4.4.3 1.5 1c1.3 1 2.7 1.6 4.1 2.3.9.6 1.8 1 2.8 1.5a37.3 37.3 0 0 0 23 1.4c1.4-.3 2.9-.9 4.3-1.4l3-1.5a24 24 0 0 0 3.8-2.3h.2l2.8-2 2.6-2.5v-25.7h21c6.9 0 12.3 5.4 12.3 12v13.4c0 8.9-3.4 17.5-9.7 23.8l-.1.1a89.5 89.5 0 0 1-7.5 6.7l-4.2 2.8-2.1 1.2c-1.4.9-3 1.8-4.6 2.5-.7.5-1.5.9-2.3 1.2l-2.8 1v.2h-.3a67.2 67.2 0 0 1-25.7 4.9c-7.8 0-15.4-1.2-22.4-3.6Z"/>
</svg>
