<svg width="40" height="13" viewBox="0 0 40 13" fill="none" xmlns="http://www.w3.org/2000/svg">
    <path d="M26.0469 0C23.2096 0 20.6741 1.47063 20.6741 4.18774C20.6741 7.30375 25.171 7.51898 25.171 9.08437C25.171 9.7435 24.4156 10.3335 23.1255 10.3335C21.2946 10.3335 19.9261 9.50908 19.9261 9.50908L19.3406 12.2509C19.3406 12.2509 20.917 12.9473 23.01 12.9473C26.112 12.9473 28.553 11.4045 28.553 8.64093C28.553 5.3483 24.0374 5.13948 24.0374 3.68653C24.0374 3.1702 24.6575 2.60446 25.9439 2.60446C27.3954 2.60446 28.5796 3.20405 28.5796 3.20405L29.1526 0.555868C29.1526 0.555868 27.8641 0 26.0469 0ZM0.088234 0.199863L0.0195312 0.599588C0.0195312 0.599588 1.21319 0.818047 2.28828 1.25382C3.67255 1.75353 3.77116 2.04444 4.00429 2.94797L6.54473 12.7412H9.9502L15.1966 0.199863H11.7989L8.42781 8.72681L7.05219 1.49897C6.92603 0.671748 6.28701 0.199863 5.50482 0.199863H0.088234ZM16.5628 0.199863L13.8975 12.7412H17.1374L19.7934 0.199863H16.5628ZM34.6332 0.199863C33.8519 0.199863 33.438 0.618141 33.1342 1.34907L28.3875 12.7412H31.7852L32.4425 10.8425H36.5819L36.9816 12.7412H39.9795L37.3641 0.199863H34.6332ZM35.0751 3.58816L36.0822 8.29429H33.3841L35.0751 3.58816Z" fill="#1434CB"/>
</svg>
