<svg xmlns="http://www.w3.org/2000/svg" fill="none" viewBox="0 0 20 20">
  <g fill="#0074FF" clip-path="url(#a)">
    <path d="M14.7 9.2c0 .5.4.7.8.5.4-.3.7-.8.7-1.3 0-.6-.3-.8-.8-.6-.4.3-.7.8-.7 1.4Zm0 4.3c0 .5.3.7.7.5.5-.3.8-.8.8-1.3 0-.6-.4-.8-.8-.6-.4.3-.7.8-.7 1.4ZM13 12c0 .6.3.8.7.6.5-.3.8-.8.8-1.4 0-.5-.4-.7-.8-.5-.4.3-.7.8-.7 1.3Zm-1.6-1c0 .5.3.8.8.5.4-.3.7-.8.7-1.3s-.3-.8-.8-.6c-.4.3-.7.8-.7 1.4Zm0 4.3c0 .5.3.8.7.5.5-.3.8-.8.8-1.3s-.3-.8-.8-.6c-.4.3-.7.8-.7 1.4Zm0 0c0 .5.3.8.7.5.5-.3.8-.8.8-1.3s-.3-.8-.8-.6c-.4.3-.7.8-.7 1.4Zm0-4.3c0 .5.3.8.8.5.4-.3.7-.8.7-1.3s-.3-.8-.8-.6c-.4.3-.7.8-.7 1.4Zm1.7 1.2c0 .6.3.8.7.6.5-.3.8-.8.8-1.4 0-.5-.4-.7-.8-.5-.4.3-.7.8-.7 1.3Zm1.6 1.4c0 .5.3.7.7.5.5-.3.8-.8.8-1.3 0-.6-.4-.8-.8-.6-.4.3-.7.8-.7 1.4Zm0-4.3c0 .5.4.7.8.5.4-.3.7-.8.7-1.3 0-.6-.3-.8-.8-.6-.4.3-.7.8-.7 1.4Zm0 0c0 .5.4.7.8.5.4-.3.7-.8.7-1.3 0-.6-.3-.8-.8-.6-.4.3-.7.8-.7 1.4Zm0 4.3c0 .5.3.7.7.5.5-.3.8-.8.8-1.3 0-.6-.4-.8-.8-.6-.4.3-.7.8-.7 1.4ZM13 12c0 .6.3.8.7.6.5-.3.8-.8.8-1.4 0-.5-.4-.7-.8-.5-.4.3-.7.8-.7 1.3Zm-1.6-1c0 .5.3.8.8.5.4-.3.7-.8.7-1.3s-.3-.8-.8-.6c-.4.3-.7.8-.7 1.4Zm0 4.3c0 .5.3.8.7.5.5-.3.8-.8.8-1.3s-.3-.8-.8-.6c-.4.3-.7.8-.7 1.4Zm-4.4-5c0 .7.3 1.2.8 1.5.4.3.7 0 .7-.4a2 2 0 0 0-.8-1.5c-.4-.2-.7 0-.7.5Zm-1.7 1c0 .7.3 1.2.8 1.5.4.3.7 0 .7-.4a2 2 0 0 0-.8-1.5c-.4-.2-.7 0-.7.5Zm-1.7 1c0 .7.3 1.2.8 1.5.4.3.7 0 .7-.4a2 2 0 0 0-.7-1.5c-.5-.2-.8 0-.8.5Zm0 0c0 .7.3 1.2.8 1.5.4.3.7 0 .7-.4a2 2 0 0 0-.7-1.5c-.5-.2-.8 0-.8.5Zm1.7-1c0 .7.3 1.2.8 1.5.4.3.7 0 .7-.4a2 2 0 0 0-.8-1.5c-.4-.2-.7 0-.7.5Zm1.7-1c0 .7.3 1.2.8 1.5.4.3.7 0 .7-.4a2 2 0 0 0-.8-1.5c-.4-.2-.7 0-.7.5Zm4.4 5c0 .5.3.8.7.5.5-.3.8-.8.8-1.3s-.3-.8-.8-.6c-.4.3-.7.8-.7 1.4Zm1.5-5.1c0-.5-.3-.8-.8-.6-.4.3-.7.8-.7 1.4 0 .5.3.8.8.5.4-.3.7-.8.7-1.3Zm.2 2c0 .6.3.8.7.6.5-.3.8-.8.8-1.4 0-.5-.4-.7-.8-.5-.4.3-.7.8-.7 1.3Zm1.6 1.4c0 .5.3.8.7.5.5-.3.8-.8.8-1.3 0-.6-.4-.8-.8-.6-.4.3-.7.8-.7 1.4Zm1.5-5.1c0-.6-.3-.8-.8-.6-.4.3-.7.8-.7 1.4 0 .5.4.7.8.5.4-.3.7-.8.7-1.3ZM3.6 12.3c0 .6.3 1 .8 1.4.4.3.7 0 .7-.4a2 2 0 0 0-.7-1.5c-.5-.2-.8 0-.8.5Zm1.7-1c0 .6.3 1 .8 1.4.4.3.7 0 .7-.4a2 2 0 0 0-.8-1.5c-.4-.2-.7 0-.7.5Zm1.7-1c0 .6.3 1 .8 1.4.4.3.7 0 .7-.4a2 2 0 0 0-.8-1.5c-.4-.2-.7 0-.7.5Zm4.4 4.9c0 .5.3.8.7.5.5-.3.8-.8.8-1.3s-.3-.8-.8-.6c-.4.3-.7.8-.7 1.4Zm1.5-5.1c0-.5-.3-.8-.8-.6-.4.3-.7.8-.7 1.4 0 .5.3.8.8.5.4-.3.7-.8.7-1.3Zm.2 2c0 .6.3.8.7.6.5-.3.8-.8.8-1.4 0-.5-.4-.7-.8-.5-.4.3-.7.8-.7 1.3Zm1.6 1.4c0 .5.3.8.7.5.5-.3.8-.8.8-1.3 0-.6-.4-.8-.8-.6-.4.3-.7.8-.7 1.4Zm1.5-5.1c0-.6-.3-.8-.8-.6-.4.3-.7.8-.7 1.4 0 .5.4.7.8.5.4-.3.7-.8.7-1.3Zm-1.5.8c0 .5.4.8.8.5.4-.3.7-.8.7-1.3 0-.6-.3-.8-.8-.6-.4.3-.7.8-.7 1.4Zm0 4.3c0 .5.3.8.7.5.5-.3.8-.8.8-1.3s-.3-.8-.8-.6c-.4.3-.7.8-.7 1.4ZM13 12.2c0 .5.3.7.8.5.4-.3.7-.8.7-1.3 0-.6-.3-.8-.8-.6-.4.3-.7.8-.7 1.4Zm-1.7-1.3c0 .5.3.8.8.5.4-.3.7-.8.7-1.3s-.3-.8-.8-.6c-.4.3-.7.8-.7 1.4Zm0 4.3c0 .5.3.8.7.5.5-.3.8-.8.8-1.3s-.3-.8-.8-.6c-.4.3-.7.8-.7 1.4Zm-4.4-5c0 .7.3 1.2.8 1.5.4.3.7 0 .7-.4a2 2 0 0 0-.8-1.5c-.4-.2-.7 0-.7.5Zm-1.7 1c0 .7.3 1.2.8 1.5.4.3.7 0 .7-.4a2 2 0 0 0-.8-1.5c-.4-.2-.7 0-.7.5Zm-1.7 1c0 .7.3 1.2.8 1.5.4.3.7 0 .7-.4a2 2 0 0 0-.7-1.5c-.5-.2-.8 0-.8.5Zm0 0c0 .7.3 1.2.8 1.5.4.3.7 0 .7-.4a2 2 0 0 0-.7-1.5c-.5-.2-.8 0-.8.5Zm1.7-1c0 .7.3 1.2.8 1.5.4.3.7 0 .7-.4a2 2 0 0 0-.8-1.5c-.4-.2-.7 0-.7.5Zm1.7-1c0 .7.3 1.2.8 1.5.4.3.7 0 .7-.4a2 2 0 0 0-.8-1.5c-.4-.2-.7 0-.7.5Zm4.4 5c0 .5.3.8.7.5.5-.3.8-.8.8-1.3s-.3-.8-.8-.6c-.4.3-.7.8-.7 1.4Zm0-4.3c0 .5.3.8.8.5.4-.3.7-.8.7-1.3s-.3-.8-.8-.6c-.4.3-.7.8-.7 1.4Zm1.7 1.2c0 .6.3.8.7.6.5-.3.8-.8.8-1.4 0-.5-.4-.7-.8-.5-.4.3-.7.8-.7 1.3Zm1.6 1.4c0 .5.3.7.7.5.5-.3.8-.8.8-1.3 0-.6-.4-.8-.8-.6-.4.3-.7.8-.7 1.4Zm0-4.3c0 .5.4.7.8.5.4-.3.7-.8.7-1.3 0-.6-.3-.8-.8-.6-.4.3-.7.8-.7 1.4ZM9 5.8c.6.3 1.3.3 2 0 .6-.3.6-.8 0-1-.7-.3-1.4-.3-2 0-.6.2-.6.7 0 1Z"/>
    <path d="M0 10a10 10 0 1 0 20 0 10 10 0 1 0-20 0Zm17.2 3.8-6.9 4v-8l7-4v8ZM10 9.3l-7-4 7-3 7 3-7 4Zm-.3 8.5-7-4v-8l7 4v8Z"/>
  </g>
  <defs>
    <clipPath id="a">
      <path fill="#fff" d="M0 0h20v20H0z"/>
    </clipPath>
  </defs>
</svg>
