<svg xmlns="http://www.w3.org/2000/svg" fill="none" viewBox="0 0 2842 1322">
  <path fill="url(#a)" d="M1368 350.5h-1.2c-32 0-59 22.1-59 49.3v528c0 22.6 16.5 41.2 40 47.8h76c23.9-6.6 41.2-25.2 41.2-47.7V537.6c0-32.2 35.4-53.3 70.9-53.3h192.8c43.7 0 80.3 24.1 80.3 54.4 0 30.2-36.6 53.2-80.3 53.2h-78.1c-33.1 0-59.2 22.1-59.2 50.3v33.1c0 28.2 26 50.4 59.2 50.4h113.5c123 0 233-83.5 233-188 0-104.7-87.5-187.2-210.5-187.2H1368Z"/>
  <path fill="url(#b)" d="M2395.1 351.3c-203.3 0-356 139.8-356 312.8 0 162.4 146 296.5 332 312.3H2688c25.7-5.5 44.2-25 44.2-48.7V699.4c0-28.2-26-50.3-59.1-50.3h-37.9c-33.1 0-59.1 22-59.1 50.3v65.4c0 31.1-7.2 78.4-90 78.4h-80.3c-107.6 0-196.3-78.4-196.3-178s88.7-180 196.3-180H2673c33.2 0 59.1-22.2 59.1-50.4v-33.2c0-28.2-26-50.3-59-50.3H2395Z"/>
  <path fill="url(#c)" d="M768.8 609.4s8.1-.2 13.5-3.1c5.4-3 10-5.7 13-9 3.1-3.3 62.7-66.2 69.6-76 7-9.9 42.9-49.5 42.9-49.5s47-53 60.7-72.4c13.8-19.3 25.4-37 30.2-46 4.8-9 9.6-19.1 9.6-19.1s4-9 6.7-13.6c2.6-4.5 14.4-22.7 24.8-30.4a107.8 107.8 0 0 1 72.1-24.5c15.8.4 35.8 3.6 53.6 11.3a104.5 104.5 0 0 1 48.7 43.8 100 100 0 0 1 11.9 40.2c.1 2.9.5 18.4-3.8 32.4s-12 26.8-17.3 33.2a151.6 151.6 0 0 1-23.5 22.5c-6.6 4.4-12.4 8.2-17.6 10.6-5.3 2.4-18.6 7.7-25.7 10.3-7 2.5-20.8 7.4-31.8 11.8s-25.6 10.4-38.3 17a1376 1376 0 0 0-139 86.2 854.6 854.6 0 0 0-39.5 30.3 379.6 379.6 0 0 0-22.3 21 78.4 78.4 0 0 0-13.4 17.3c-3.1 6.5-4.3 8.3-4.7 11.9-.4 3.5-1.2 5.2 0 8.7a29 29 0 0 0 8.6 13.5 489 489 0 0 0 53 42.1 851.3 851.3 0 0 0 109.6 60.4c41 17.6 70 29 87.9 35 18 6 50.1 16.2 65 28.6a95.4 95.4 0 0 1 38.7 54c5 22 4 51-5.8 71.5-8.5 26.1-36.6 53-56.6 63.9-20 10.9-57.2 18.3-75 16.4-18-2-35.4-4.8-52.4-13.6-17-8.7-36.5-27-45.2-40.6a281.7 281.7 0 0 1-23.4-45c-4-11.2-9.3-30-12-37.7a167.7 167.7 0 0 0-17.5-32.3 491.3 491.3 0 0 0-35.2-45.5 883.2 883.2 0 0 0-50.1-52.4 612.7 612.7 0 0 0-37.8-33c-6.4-4.5-10.1-7.5-17.4-8.1a28 28 0 0 0-14.9 1.3c-4.4 1.5-6 1.9-13.2 7.2a485 485 0 0 0-62.5 56.4c-23.6 26.4-43.6 48.1-67.7 83.2-24.2 35.2-56.2 83-82 130.8-25.7 47.6-50.2 101.1-66.8 119.7-16.5 18.6-55 56.6-101.4 71.1-46.4 14.4-73.5 13.8-84.3 12.4-10.8-1.4-54.3-7.5-74.6-23-20.2-15.4-41.4-29.3-52.9-65-8.6-26.5-17.4-59.6 0-96.3a178 178 0 0 1 77.3-78 785 785 0 0 1 92.8-42.5c33.1-12.5 82.2-33 114.4-52A1532 1532 0 0 0 558 805.1c22.6-17 61.4-47.8 77-61.8 15.6-14 40.1-37 46.8-45 6.6-8 10-11.6 10.4-14.8.3-3.2.8-7.5-2.7-13.3a79 79 0 0 0-19.2-19.5c-10.2-8.2-25.3-22.3-45.2-36.3a894 894 0 0 0-50.5-33.7c-13.3-8-60.4-35.6-92.3-48.8a694.5 694.5 0 0 0-84.9-30.4 1250 1250 0 0 1-94.6-30c-15.2-6.6-47.1-21.5-62-35.2-14.9-13.7-36.9-36.7-40.5-67-3.6-30.3 3.8-69.3 15.2-88.4 11.5-19 28.8-47.1 61-62.2 32.2-15 62.2-21.4 87.6-19.8 25.4 1.6 57.3 9.3 88.5 29.3 31.3 20 67.3 62.6 86.4 94.7 19.2 32 45 73.5 56.2 90.3A1510.9 1510.9 0 0 0 687.9 541c11.5 13.5 26.2 31.1 38 42.1 12 11 20 18.1 23.2 20a34.4 34.4 0 0 0 16.3 6.2c1.4.2 3.4.1 3.4.1Z"/>
  <path fill="url(#d)" d="M1195.2 365.4h-.3c-.5-37.4-29.6-73.2-80.1-71.8h-10.6c-31.6 2-54.7 21.2-66.8 48.8l-4 8.3c-23.7 47.8-77.8 114.8-130.6 173.7a2086 2086 0 0 1-97.6 101.8s-18.2 11.7-36.9 10c-39.5-3.7-93.8-66.9-147.1-140.3a3364.3 3364.3 0 0 1-61.3-88.2c-26.9-39.9-42-76.3-67.8-109h.2c-.7-.9-9.4-11.1-11.6-13.5C443.4 246.9 398.8 224 355 224c-32.2 0-64 12.3-92.4 40-1.6 1.6-8.7 10.2-8.7 10.2-34.4 42.5-34.7 105 2.6 136.4 27.9 23.5 56.8 36.5 129.5 57.3l24.3 6.8c98 26.8 206.2 93.3 280.7 164.7 9 8.6 31.6 19.1 24.5 43.9C706.3 714.9 530 887 361.2 949c-74.5 27.3-200.2 72.3-181.9 168.8 21.2 111.3 219.3 128.6 291-13 62.4-123.6 156.3-273.9 273.2-357.2 20.6-19 42.4-23.7 66.4-3 43.7 38.2 147.4 125.8 163.3 177.4 25 80.2 76.4 138.3 164.4 93.4 60.5-40.6 77-126-19.2-156.9-150.6-48.4-251-129-285.5-166-51.6-55.2 90.3-138.6 130-165l5-3.5c59.4-42.2 107-60.7 173.9-86.3 34.7-13.3 51.3-39.7 53-66.5h.3l.1-5.8Z"/>
  <defs>
    <linearGradient id="a" x1="1699.8" x2="1515.1" y1="900.9" y2="212.1" gradientUnits="userSpaceOnUse">
      <stop stop-color="#88868C"/>
      <stop offset=".1" stop-color="#727278"/>
      <stop offset=".2" stop-color="#525458"/>
      <stop offset=".3" stop-color="#373A3C"/>
      <stop offset=".4" stop-color="#242829"/>
      <stop offset=".6" stop-color="#191D1D"/>
      <stop offset=".7" stop-color="#101313"/>
      <stop offset=".8" stop-color="#060808"/>
      <stop offset=".9"/>
    </linearGradient>
    <linearGradient id="b" x1="2468.7" x2="2334.4" y1="1014.4" y2="253" gradientUnits="userSpaceOnUse">
      <stop offset=".1" stop-color="#81858D"/>
      <stop offset=".2" stop-color="#6A6D74"/>
      <stop offset=".3" stop-color="#4C5054"/>
      <stop offset=".4" stop-color="#33383A"/>
      <stop offset=".5" stop-color="#222728"/>
      <stop offset=".7" stop-color="#181C1C"/>
      <stop offset=".8" stop-color="#0F1212"/>
      <stop offset=".9" stop-color="#060707"/>
      <stop offset="1"/>
    </linearGradient>
    <linearGradient id="c" x1="689.8" x2="689.8" y1="184.5" y2="1101.9" gradientUnits="userSpaceOnUse">
      <stop stop-color="#E39544"/>
      <stop offset=".4" stop-color="#E29144"/>
      <stop offset=".9" stop-color="#DF8644"/>
      <stop offset="1" stop-color="#DE8444"/>
    </linearGradient>
    <linearGradient id="d" x1="740.9" x2="655.1" y1="257.3" y2="1237.1" gradientUnits="userSpaceOnUse">
      <stop stop-color="#F4C952"/>
      <stop offset=".1" stop-color="#F3C451"/>
      <stop offset=".1" stop-color="#EEB74D"/>
      <stop offset=".2" stop-color="#E6A248"/>
      <stop offset=".3" stop-color="#DF8C45"/>
      <stop offset=".5" stop-color="#DF8C45"/>
      <stop offset=".6" stop-color="#E29045"/>
      <stop offset=".8" stop-color="#E19145"/>
      <stop offset="1" stop-color="#E29545"/>
    </linearGradient>
  </defs>
</svg>
